<svg width="2751px" height="737px"
 viewBox="0.00 0.00 2751.25 737.00" xmlns="http://www.w3.org/2000/svg" xmlns:xlink="http://www.w3.org/1999/xlink">
<g id="graph0" class="graph" transform="scale(1.0 1.0) rotate(0.0) translate(4.0 733.0)">
<title>example1</title>
<polygon fill="white" stroke="none" points="-4,4 -4,-733 2747.25,-733 2747.25,4 -4,4"/>
<!-- mill.scalalib.JvmWorkerModule.classpath -->
<g id="node1" class="node">
<title>mill.scalalib.JvmWorkerModule.classpath</title>
<polygon fill="none" stroke="black" stroke-dasharray="5,2" points="1572.38,-671 1323.12,-671 1323.12,-635 1572.38,-635 1572.38,-671"/>
<text text-anchor="middle" x="1447.75" y="-647.95" font-family="Times,serif" font-size="14.00">mill.scalalib.JvmWorkerModule.classpath</text>
</g>
<!-- mill.scalalib.JvmWorkerModule.worker -->
<g id="node2" class="node">
<title>mill.scalalib.JvmWorkerModule.worker</title>
<polygon fill="none" stroke="black" stroke-dasharray="5,2" points="1861.75,-586 1623.75,-586 1623.75,-550 1861.75,-550 1861.75,-586"/>
<text text-anchor="middle" x="1742.75" y="-562.95" font-family="Times,serif" font-size="14.00">mill.scalalib.JvmWorkerModule.worker</text>
</g>
<!-- mill.scalalib.JvmWorkerModule.classpath&#45;&gt;mill.scalalib.JvmWorkerModule.worker -->
<g id="edge1" class="edge">
<title>mill.scalalib.JvmWorkerModule.classpath&#45;&gt;mill.scalalib.JvmWorkerModule.worker</title>
<path fill="none" stroke="black" d="M1564.47,-634.57C1572.47,-632.07 1580.31,-629.22 1587.75,-626 1605.86,-618.16 1605.94,-608.5 1623.75,-600 1631.5,-596.3 1639.74,-592.98 1648.13,-590"/>
<polygon fill="black" stroke="black" points="1649.01,-593.39 1657.37,-586.89 1646.77,-586.76 1649.01,-593.39"/>
</g>
<!-- compile -->
<g id="node33" class="node">
<title>compile</title>
<polygon fill="none" stroke="black" stroke-dasharray="5,2" points="2037.12,-355 1976.88,-355 1976.88,-319 2037.12,-319 2037.12,-355"/>
<text text-anchor="middle" x="2007" y="-331.95" font-family="Times,serif" font-size="14.00">compile</text>
</g>
<!-- mill.scalalib.JvmWorkerModule.worker&#45;&gt;compile -->
<g id="edge2" class="edge">
<title>mill.scalalib.JvmWorkerModule.worker&#45;&gt;compile</title>
<path fill="none" stroke="black" d="M1792.35,-549.62C1814.75,-539.81 1840.93,-526.37 1861.75,-510 1915.93,-467.4 1963.88,-401.46 1988.5,-364.5"/>
<polygon fill="black" stroke="black" points="1991.13,-366.87 1993.7,-356.59 1985.28,-363.03 1991.13,-366.87"/>
</g>
<!-- mill.scalalib.JvmWorkerModule.zincLogDebug -->
<g id="node3" class="node">
<title>mill.scalalib.JvmWorkerModule.zincLogDebug</title>
<polygon fill="none" stroke="black" stroke-dasharray="5,2" points="1587.75,-617 1307.75,-617 1307.75,-581 1587.75,-581 1587.75,-617"/>
<text text-anchor="middle" x="1447.75" y="-593.95" font-family="Times,serif" font-size="14.00">mill.scalalib.JvmWorkerModule.zincLogDebug</text>
</g>
<!-- mill.scalalib.JvmWorkerModule.zincLogDebug&#45;&gt;mill.scalalib.JvmWorkerModule.worker -->
<g id="edge3" class="edge">
<title>mill.scalalib.JvmWorkerModule.zincLogDebug&#45;&gt;mill.scalalib.JvmWorkerModule.worker</title>
<path fill="none" stroke="black" d="M1587.96,-584.27C1595.98,-583.42 1604.04,-582.57 1612.03,-581.72"/>
<polygon fill="black" stroke="black" points="1612.19,-585.23 1621.77,-580.69 1611.46,-578.27 1612.19,-585.23"/>
</g>
<!-- sources -->
<g id="node4" class="node">
<title>sources</title>
<polygon fill="none" stroke="black" stroke-dasharray="5,2" points="1163.75,-97 1107.25,-97 1107.25,-61 1163.75,-61 1163.75,-97"/>
<text text-anchor="middle" x="1135.5" y="-73.95" font-family="Times,serif" font-size="14.00">sources</text>
</g>
<!-- allSources -->
<g id="node5" class="node">
<title>allSources</title>
<polygon fill="none" stroke="black" stroke-dasharray="5,2" points="1483.88,-151 1411.62,-151 1411.62,-115 1483.88,-115 1483.88,-151"/>
<text text-anchor="middle" x="1447.75" y="-127.95" font-family="Times,serif" font-size="14.00">allSources</text>
</g>
<!-- sources&#45;&gt;allSources -->
<g id="edge4" class="edge">
<title>sources&#45;&gt;allSources</title>
<path fill="none" stroke="black" d="M1164.03,-83.79C1217.19,-93.05 1334.5,-113.46 1400.08,-124.88"/>
<polygon fill="black" stroke="black" points="1399.36,-128.3 1409.81,-126.57 1400.56,-121.41 1399.36,-128.3"/>
</g>
<!-- allSourceFiles -->
<g id="node7" class="node">
<title>allSourceFiles</title>
<polygon fill="none" stroke="black" stroke-dasharray="5,2" points="1789.38,-198 1696.12,-198 1696.12,-162 1789.38,-162 1789.38,-198"/>
<text text-anchor="middle" x="1742.75" y="-174.95" font-family="Times,serif" font-size="14.00">allSourceFiles</text>
</g>
<!-- allSources&#45;&gt;allSourceFiles -->
<g id="edge5" class="edge">
<title>allSources&#45;&gt;allSourceFiles</title>
<path fill="none" stroke="black" d="M1484.09,-138.67C1533.85,-146.65 1625.12,-161.29 1684.6,-170.83"/>
<polygon fill="black" stroke="black" points="1683.76,-174.24 1694.19,-172.37 1684.87,-167.33 1683.76,-174.24"/>
</g>
<!-- generatedSources -->
<g id="node6" class="node">
<title>generatedSources</title>
<polygon fill="none" stroke="black" stroke-dasharray="5,2" points="1191.12,-151 1079.88,-151 1079.88,-115 1191.12,-115 1191.12,-151"/>
<text text-anchor="middle" x="1135.5" y="-127.95" font-family="Times,serif" font-size="14.00">generatedSources</text>
</g>
<!-- generatedSources&#45;&gt;allSources -->
<g id="edge6" class="edge">
<title>generatedSources&#45;&gt;allSources</title>
<path fill="none" stroke="black" d="M1191.61,-133C1250.95,-133 1344.32,-133 1400.13,-133"/>
<polygon fill="black" stroke="black" points="1399.94,-136.5 1409.94,-133 1399.94,-129.5 1399.94,-136.5"/>
</g>
<!-- allSourceFiles&#45;&gt;compile -->
<g id="edge7" class="edge">
<title>allSourceFiles&#45;&gt;compile</title>
<path fill="none" stroke="black" d="M1789.75,-182.52C1813.83,-186.09 1842.27,-194.15 1861.75,-212 1895.96,-243.35 1863.22,-279 1897.75,-310 1916.16,-326.53 1943.15,-333.28 1965.57,-335.91"/>
<polygon fill="black" stroke="black" points="1965.03,-339.37 1975.3,-336.79 1965.66,-332.4 1965.03,-339.37"/>
</g>
<!-- scalaVersion -->
<g id="node8" class="node">
<title>scalaVersion</title>
<polygon fill="none" stroke="black" stroke-dasharray="5,2" points="193.38,-405 109.12,-405 109.12,-369 193.38,-369 193.38,-405"/>
<text text-anchor="middle" x="151.25" y="-381.95" font-family="Times,serif" font-size="14.00">scalaVersion</text>
</g>
<!-- scalaOrganization -->
<g id="node9" class="node">
<title>scalaOrganization</title>
<polygon fill="none" stroke="black" stroke-dasharray="5,2" points="495.12,-405 381.62,-405 381.62,-369 495.12,-369 495.12,-405"/>
<text text-anchor="middle" x="438.38" y="-381.95" font-family="Times,serif" font-size="14.00">scalaOrganization</text>
</g>
<!-- scalaVersion&#45;&gt;scalaOrganization -->
<g id="edge10" class="edge">
<title>scalaVersion&#45;&gt;scalaOrganization</title>
<path fill="none" stroke="black" d="M193.71,-387C239.85,-387 315.11,-387 369.79,-387"/>
<polygon fill="black" stroke="black" points="369.62,-390.5 379.62,-387 369.62,-383.5 369.62,-390.5"/>
</g>
<!-- transitiveCompileIvyDeps -->
<g id="node10" class="node">
<title>transitiveCompileIvyDeps</title>
<polygon fill="none" stroke="black" stroke-dasharray="5,2" points="1215.12,-621 1055.88,-621 1055.88,-585 1215.12,-585 1215.12,-621"/>
<text text-anchor="middle" x="1135.5" y="-597.95" font-family="Times,serif" font-size="14.00">transitiveCompileIvyDeps</text>
</g>
<!-- scalaVersion&#45;&gt;transitiveCompileIvyDeps -->
<g id="edge9" class="edge">
<title>scalaVersion&#45;&gt;transitiveCompileIvyDeps</title>
<path fill="none" stroke="black" d="M193.71,-401.05C268.81,-426.05 432.7,-478.6 574.25,-510 745.03,-547.89 790.89,-540.11 963.25,-570 989.75,-574.59 1018.47,-579.97 1044.68,-585.04"/>
<polygon fill="black" stroke="black" points="1043.78,-588.43 1054.27,-586.9 1045.12,-581.56 1043.78,-588.43"/>
</g>
<!-- zincAuxiliaryClassFileExtensions -->
<g id="node32" class="node">
<title>zincAuxiliaryClassFileExtensions</title>
<polygon fill="none" stroke="black" stroke-dasharray="5,2" points="538.25,-274 338.5,-274 338.5,-238 538.25,-238 538.25,-274"/>
<text text-anchor="middle" x="438.38" y="-250.95" font-family="Times,serif" font-size="14.00">zincAuxiliaryClassFileExtensions</text>
</g>
<!-- scalaVersion&#45;&gt;zincAuxiliaryClassFileExtensions -->
<g id="edge8" class="edge">
<title>scalaVersion&#45;&gt;zincAuxiliaryClassFileExtensions</title>
<path fill="none" stroke="black" d="M192.5,-368.51C243.55,-345.05 331.59,-304.6 387.04,-279.13"/>
<polygon fill="black" stroke="black" points="388.33,-282.38 395.96,-275.03 385.41,-276.02 388.33,-282.38"/>
</g>
<!-- scalaLibraryIvyDeps -->
<g id="node13" class="node">
<title>scalaLibraryIvyDeps</title>
<polygon fill="none" stroke="black" stroke-dasharray="5,2" points="750.38,-501 621.12,-501 621.12,-465 750.38,-465 750.38,-501"/>
<text text-anchor="middle" x="685.75" y="-477.95" font-family="Times,serif" font-size="14.00">scalaLibraryIvyDeps</text>
</g>
<!-- scalaOrganization&#45;&gt;scalaLibraryIvyDeps -->
<g id="edge13" class="edge">
<title>scalaOrganization&#45;&gt;scalaLibraryIvyDeps</title>
<path fill="none" stroke="black" d="M486.4,-405.4C526.42,-421.06 584.07,-443.61 626.92,-460.37"/>
<polygon fill="black" stroke="black" points="625.47,-463.57 636.06,-463.95 628.02,-457.05 625.47,-463.57"/>
</g>
<!-- enablePluginScalacOptions.super.ScalaModule -->
<g id="node24" class="node">
<title>enablePluginScalacOptions.super.ScalaModule</title>
<polygon fill="none" stroke="black" stroke-dasharray="5,2" points="1271.75,-243 999.25,-243 999.25,-207 1271.75,-207 1271.75,-243"/>
<text text-anchor="middle" x="1135.5" y="-219.95" font-family="Times,serif" font-size="14.00">enablePluginScalacOptions.super.ScalaModule</text>
</g>
<!-- scalaOrganization&#45;&gt;enablePluginScalacOptions.super.ScalaModule -->
<g id="edge12" class="edge">
<title>scalaOrganization&#45;&gt;enablePluginScalacOptions.super.ScalaModule</title>
<path fill="none" stroke="black" d="M495.23,-372.76C595.76,-347.29 813.97,-292.82 999.25,-252 1008.68,-249.92 1018.49,-247.83 1028.34,-245.78"/>
<polygon fill="black" stroke="black" points="1028.88,-249.24 1037.96,-243.79 1027.46,-242.39 1028.88,-249.24"/>
</g>
<!-- scalacPluginClasspath -->
<g id="node30" class="node">
<title>scalacPluginClasspath</title>
<polygon fill="none" stroke="black" stroke-dasharray="5,2" points="1203.88,-405 1067.12,-405 1067.12,-369 1203.88,-369 1203.88,-405"/>
<text text-anchor="middle" x="1135.5" y="-381.95" font-family="Times,serif" font-size="14.00">scalacPluginClasspath</text>
</g>
<!-- scalaOrganization&#45;&gt;scalacPluginClasspath -->
<g id="edge11" class="edge">
<title>scalaOrganization&#45;&gt;scalacPluginClasspath</title>
<path fill="none" stroke="black" d="M495.38,-387C618.62,-387 913.6,-387 1055.55,-387"/>
<polygon fill="black" stroke="black" points="1055.23,-390.5 1065.23,-387 1055.23,-383.5 1055.23,-390.5"/>
</g>
<!-- resolvedIvyDeps -->
<g id="node18" class="node">
<title>resolvedIvyDeps</title>
<polygon fill="none" stroke="black" stroke-dasharray="5,2" points="1501.5,-563 1394,-563 1394,-527 1501.5,-527 1501.5,-563"/>
<text text-anchor="middle" x="1447.75" y="-539.95" font-family="Times,serif" font-size="14.00">resolvedIvyDeps</text>
</g>
<!-- transitiveCompileIvyDeps&#45;&gt;resolvedIvyDeps -->
<g id="edge14" class="edge">
<title>transitiveCompileIvyDeps&#45;&gt;resolvedIvyDeps</title>
<path fill="none" stroke="black" d="M1215.59,-588.21C1267.28,-578.55 1333.94,-566.09 1382.38,-557.03"/>
<polygon fill="black" stroke="black" points="1382.99,-560.48 1392.17,-555.2 1381.7,-553.6 1382.99,-560.48"/>
</g>
<!-- platformSuffix -->
<g id="node11" class="node">
<title>platformSuffix</title>
<polygon fill="none" stroke="black" stroke-dasharray="5,2" points="946.75,-455 849.75,-455 849.75,-419 946.75,-419 946.75,-455"/>
<text text-anchor="middle" x="898.25" y="-431.95" font-family="Times,serif" font-size="14.00">platformSuffix</text>
</g>
<!-- platformSuffix&#45;&gt;transitiveCompileIvyDeps -->
<g id="edge19" class="edge">
<title>platformSuffix&#45;&gt;transitiveCompileIvyDeps</title>
<path fill="none" stroke="black" d="M913.87,-455.4C927.1,-472.23 946.95,-497.94 963.25,-521 980.11,-544.86 975.04,-559.65 999.25,-576 1012.71,-585.09 1028.54,-591.26 1044.53,-595.42"/>
<polygon fill="black" stroke="black" points="1043.59,-598.8 1054.12,-597.65 1045.17,-591.98 1043.59,-598.8"/>
</g>
<!-- transitiveIvyDeps -->
<g id="node16" class="node">
<title>transitiveIvyDeps</title>
<polygon fill="none" stroke="black" stroke-dasharray="5,2" points="1191.5,-675 1079.5,-675 1079.5,-639 1191.5,-639 1191.5,-675"/>
<text text-anchor="middle" x="1135.5" y="-651.95" font-family="Times,serif" font-size="14.00">transitiveIvyDeps</text>
</g>
<!-- platformSuffix&#45;&gt;transitiveIvyDeps -->
<g id="edge18" class="edge">
<title>platformSuffix&#45;&gt;transitiveIvyDeps</title>
<path fill="none" stroke="black" d="M908.15,-455.2C931.17,-502.16 991.47,-624.14 999.25,-630 1018.82,-644.72 1044.34,-651.99 1067.93,-655.41"/>
<polygon fill="black" stroke="black" points="1067.47,-658.88 1077.82,-656.61 1068.31,-651.93 1067.47,-658.88"/>
</g>
<!-- platformSuffix&#45;&gt;enablePluginScalacOptions.super.ScalaModule -->
<g id="edge17" class="edge">
<title>platformSuffix&#45;&gt;enablePluginScalacOptions.super.ScalaModule</title>
<path fill="none" stroke="black" d="M915.12,-418.69C929.2,-401.75 949.58,-375.44 963.25,-350 985.22,-309.13 964,-282.17 999.25,-252 1000.07,-251.3 1000.89,-250.62 1001.74,-249.95"/>
<polygon fill="black" stroke="black" points="1003.71,-252.84 1009.94,-244.27 999.72,-247.09 1003.71,-252.84"/>
</g>
<!-- scalaCompilerClasspath -->
<g id="node29" class="node">
<title>scalaCompilerClasspath</title>
<polygon fill="none" stroke="black" stroke-dasharray="5,2" points="1209.12,-459 1061.88,-459 1061.88,-423 1209.12,-423 1209.12,-459"/>
<text text-anchor="middle" x="1135.5" y="-435.95" font-family="Times,serif" font-size="14.00">scalaCompilerClasspath</text>
</g>
<!-- platformSuffix&#45;&gt;scalaCompilerClasspath -->
<g id="edge16" class="edge">
<title>platformSuffix&#45;&gt;scalaCompilerClasspath</title>
<path fill="none" stroke="black" d="M947.14,-437.81C976.84,-438.32 1015.82,-438.98 1050.54,-439.57"/>
<polygon fill="black" stroke="black" points="1050.07,-443.06 1060.12,-439.74 1050.19,-436.07 1050.07,-443.06"/>
</g>
<!-- platformSuffix&#45;&gt;scalacPluginClasspath -->
<g id="edge15" class="edge">
<title>platformSuffix&#45;&gt;scalacPluginClasspath</title>
<path fill="none" stroke="black" d="M947,-425.72C963.53,-421.9 982.18,-417.67 999.25,-414 1017.46,-410.09 1037.1,-406.06 1055.6,-402.35"/>
<polygon fill="black" stroke="black" points="1056.05,-405.83 1065.17,-400.44 1054.68,-398.96 1056.05,-405.83"/>
</g>
<!-- compileIvyDeps -->
<g id="node12" class="node">
<title>compileIvyDeps</title>
<polygon fill="none" stroke="black" stroke-dasharray="5,2" points="951.25,-615 845.25,-615 845.25,-579 951.25,-579 951.25,-615"/>
<text text-anchor="middle" x="898.25" y="-591.95" font-family="Times,serif" font-size="14.00">compileIvyDeps</text>
</g>
<!-- compileIvyDeps&#45;&gt;transitiveCompileIvyDeps -->
<g id="edge20" class="edge">
<title>compileIvyDeps&#45;&gt;transitiveCompileIvyDeps</title>
<path fill="none" stroke="black" d="M951.46,-598.33C978.71,-599.03 1012.82,-599.9 1044.19,-600.7"/>
<polygon fill="black" stroke="black" points="1044,-604.19 1054.09,-600.95 1044.18,-597.2 1044,-604.19"/>
</g>
<!-- mandatoryIvyDeps -->
<g id="node15" class="node">
<title>mandatoryIvyDeps</title>
<polygon fill="none" stroke="black" stroke-dasharray="5,2" points="958.38,-669 838.12,-669 838.12,-633 958.38,-633 958.38,-669"/>
<text text-anchor="middle" x="898.25" y="-645.95" font-family="Times,serif" font-size="14.00">mandatoryIvyDeps</text>
</g>
<!-- scalaLibraryIvyDeps&#45;&gt;mandatoryIvyDeps -->
<g id="edge22" class="edge">
<title>scalaLibraryIvyDeps&#45;&gt;mandatoryIvyDeps</title>
<path fill="none" stroke="black" d="M701.72,-501.23C726.5,-530.43 778.72,-588.06 833.25,-624 835.02,-625.17 836.86,-626.31 838.73,-627.41"/>
<polygon fill="black" stroke="black" points="836.6,-630.23 847.06,-631.91 839.93,-624.08 836.6,-630.23"/>
</g>
<!-- scalaLibraryIvyDeps&#45;&gt;scalaCompilerClasspath -->
<g id="edge21" class="edge">
<title>scalaLibraryIvyDeps&#45;&gt;scalaCompilerClasspath</title>
<path fill="none" stroke="black" d="M750.82,-479.78C806.93,-476.68 890.61,-471.37 963.25,-464 991.71,-461.11 1022.73,-457.19 1050.45,-453.39"/>
<polygon fill="black" stroke="black" points="1050.78,-456.88 1060.21,-452.04 1049.82,-449.95 1050.78,-456.88"/>
</g>
<!-- mandatoryIvyDeps.super.JavaModule -->
<g id="node14" class="node">
<title>mandatoryIvyDeps.super.JavaModule</title>
<polygon fill="none" stroke="black" stroke-dasharray="5,2" points="797.25,-669 574.25,-669 574.25,-633 797.25,-633 797.25,-669"/>
<text text-anchor="middle" x="685.75" y="-645.95" font-family="Times,serif" font-size="14.00">mandatoryIvyDeps.super.JavaModule</text>
</g>
<!-- mandatoryIvyDeps.super.JavaModule&#45;&gt;mandatoryIvyDeps -->
<g id="edge23" class="edge">
<title>mandatoryIvyDeps.super.JavaModule&#45;&gt;mandatoryIvyDeps</title>
<path fill="none" stroke="black" d="M797.55,-651C807.41,-651 817.2,-651 826.58,-651"/>
<polygon fill="black" stroke="black" points="826.28,-654.5 836.28,-651 826.28,-647.5 826.28,-654.5"/>
</g>
<!-- mandatoryIvyDeps&#45;&gt;transitiveIvyDeps -->
<g id="edge24" class="edge">
<title>mandatoryIvyDeps&#45;&gt;transitiveIvyDeps</title>
<path fill="none" stroke="black" d="M958.61,-652.51C991.88,-653.36 1033.46,-654.42 1067.84,-655.3"/>
<polygon fill="black" stroke="black" points="1067.6,-658.79 1077.68,-655.55 1067.78,-651.8 1067.6,-658.79"/>
</g>
<!-- transitiveIvyDeps&#45;&gt;resolvedIvyDeps -->
<g id="edge26" class="edge">
<title>transitiveIvyDeps&#45;&gt;resolvedIvyDeps</title>
<path fill="none" stroke="black" d="M1191.79,-655.95C1217.98,-653.09 1248.53,-646.1 1271.75,-630 1296.68,-612.71 1282.77,-589.22 1307.75,-572 1329.43,-557.06 1357.29,-549.89 1382.38,-546.61"/>
<polygon fill="black" stroke="black" points="1382.61,-550.11 1392.17,-545.53 1381.85,-543.15 1382.61,-550.11"/>
</g>
<!-- resolvedRunIvyDeps -->
<g id="node42" class="node">
<title>resolvedRunIvyDeps</title>
<polygon fill="none" stroke="black" stroke-dasharray="5,2" points="1512.75,-725 1382.75,-725 1382.75,-689 1512.75,-689 1512.75,-725"/>
<text text-anchor="middle" x="1447.75" y="-701.95" font-family="Times,serif" font-size="14.00">resolvedRunIvyDeps</text>
</g>
<!-- transitiveIvyDeps&#45;&gt;resolvedRunIvyDeps -->
<g id="edge25" class="edge">
<title>transitiveIvyDeps&#45;&gt;resolvedRunIvyDeps</title>
<path fill="none" stroke="black" d="M1191.97,-665.94C1241.94,-673.99 1315.86,-685.91 1371.22,-694.83"/>
<polygon fill="black" stroke="black" points="1370.46,-698.25 1380.89,-696.39 1371.57,-691.34 1370.46,-698.25"/>
</g>
<!-- ivyDeps -->
<g id="node17" class="node">
<title>ivyDeps</title>
<polygon fill="none" stroke="black" stroke-dasharray="5,2" points="928.75,-723 867.75,-723 867.75,-687 928.75,-687 928.75,-723"/>
<text text-anchor="middle" x="898.25" y="-699.95" font-family="Times,serif" font-size="14.00">ivyDeps</text>
</g>
<!-- ivyDeps&#45;&gt;transitiveIvyDeps -->
<g id="edge27" class="edge">
<title>ivyDeps&#45;&gt;transitiveIvyDeps</title>
<path fill="none" stroke="black" d="M928.99,-698.67C948.87,-694.46 975.61,-688.84 999.25,-684 1021.62,-679.42 1046.1,-674.5 1068,-670.14"/>
<polygon fill="black" stroke="black" points="1068.59,-673.59 1077.71,-668.21 1067.22,-666.72 1068.59,-673.59"/>
</g>
<!-- compileClasspath -->
<g id="node22" class="node">
<title>compileClasspath</title>
<polygon fill="none" stroke="black" stroke-dasharray="5,2" points="1799.12,-501 1686.38,-501 1686.38,-465 1799.12,-465 1799.12,-501"/>
<text text-anchor="middle" x="1742.75" y="-477.95" font-family="Times,serif" font-size="14.00">compileClasspath</text>
</g>
<!-- resolvedIvyDeps&#45;&gt;compileClasspath -->
<g id="edge28" class="edge">
<title>resolvedIvyDeps&#45;&gt;compileClasspath</title>
<path fill="none" stroke="black" d="M1501.96,-535.07C1527.88,-530.13 1559.49,-523.96 1587.75,-518 1616.4,-511.96 1647.94,-504.87 1674.98,-498.66"/>
<polygon fill="black" stroke="black" points="1675.45,-502.14 1684.41,-496.48 1673.88,-495.32 1675.45,-502.14"/>
</g>
<!-- compileResources -->
<g id="node19" class="node">
<title>compileResources</title>
<polygon fill="none" stroke="black" stroke-dasharray="5,2" points="1193.38,-567 1077.62,-567 1077.62,-531 1193.38,-531 1193.38,-567"/>
<text text-anchor="middle" x="1135.5" y="-543.95" font-family="Times,serif" font-size="14.00">compileResources</text>
</g>
<!-- localCompileClasspath -->
<g id="node20" class="node">
<title>localCompileClasspath</title>
<polygon fill="none" stroke="black" stroke-dasharray="5,2" points="1518.75,-509 1376.75,-509 1376.75,-473 1518.75,-473 1518.75,-509"/>
<text text-anchor="middle" x="1447.75" y="-485.95" font-family="Times,serif" font-size="14.00">localCompileClasspath</text>
</g>
<!-- compileResources&#45;&gt;localCompileClasspath -->
<g id="edge29" class="edge">
<title>compileResources&#45;&gt;localCompileClasspath</title>
<path fill="none" stroke="black" d="M1193.77,-538.29C1241.91,-529.29 1311.3,-516.32 1365.23,-506.24"/>
<polygon fill="black" stroke="black" points="1365.82,-509.69 1375.01,-504.41 1364.53,-502.81 1365.82,-509.69"/>
</g>
<!-- localCompileClasspath&#45;&gt;compileClasspath -->
<g id="edge30" class="edge">
<title>localCompileClasspath&#45;&gt;compileClasspath</title>
<path fill="none" stroke="black" d="M1518.93,-489.08C1566.22,-487.79 1628.23,-486.1 1674.82,-484.83"/>
<polygon fill="black" stroke="black" points="1674.91,-488.33 1684.81,-484.55 1674.72,-481.33 1674.91,-488.33"/>
</g>
<!-- unmanagedClasspath -->
<g id="node21" class="node">
<title>unmanagedClasspath</title>
<polygon fill="none" stroke="black" stroke-dasharray="5,2" points="1201.25,-513 1069.75,-513 1069.75,-477 1201.25,-477 1201.25,-513"/>
<text text-anchor="middle" x="1135.5" y="-489.95" font-family="Times,serif" font-size="14.00">unmanagedClasspath</text>
</g>
<!-- unmanagedClasspath&#45;&gt;localCompileClasspath -->
<g id="edge31" class="edge">
<title>unmanagedClasspath&#45;&gt;localCompileClasspath</title>
<path fill="none" stroke="black" d="M1201.54,-494.16C1249.11,-493.55 1313.99,-492.71 1365.06,-492.05"/>
<polygon fill="black" stroke="black" points="1364.93,-495.56 1374.88,-491.93 1364.84,-488.56 1364.93,-495.56"/>
</g>
<!-- compileClasspath&#45;&gt;compile -->
<g id="edge32" class="edge">
<title>compileClasspath&#45;&gt;compile</title>
<path fill="none" stroke="black" d="M1799.41,-471C1819.66,-465.48 1842.34,-457.91 1861.75,-448 1906.44,-425.18 1951.2,-387.95 1978.74,-362.98"/>
<polygon fill="black" stroke="black" points="1980.95,-365.7 1985.94,-356.36 1976.21,-360.55 1980.95,-365.7"/>
</g>
<!-- transitiveCompileClasspath -->
<g id="node23" class="node">
<title>transitiveCompileClasspath</title>
<polygon fill="none" stroke="black" stroke-dasharray="5,2" points="1530.75,-455 1364.75,-455 1364.75,-419 1530.75,-419 1530.75,-455"/>
<text text-anchor="middle" x="1447.75" y="-431.95" font-family="Times,serif" font-size="14.00">transitiveCompileClasspath</text>
</g>
<!-- transitiveCompileClasspath&#45;&gt;compileClasspath -->
<g id="edge33" class="edge">
<title>transitiveCompileClasspath&#45;&gt;compileClasspath</title>
<path fill="none" stroke="black" d="M1531.15,-449.94C1576.52,-457.06 1632.1,-465.79 1674.78,-472.49"/>
<polygon fill="black" stroke="black" points="1673.97,-475.9 1684.39,-474 1675.06,-468.99 1673.97,-475.9"/>
</g>
<!-- allScalacOptions -->
<g id="node27" class="node">
<title>allScalacOptions</title>
<polygon fill="none" stroke="black" stroke-dasharray="5,2" points="1501.5,-301 1394,-301 1394,-265 1501.5,-265 1501.5,-301"/>
<text text-anchor="middle" x="1447.75" y="-277.95" font-family="Times,serif" font-size="14.00">allScalacOptions</text>
</g>
<!-- enablePluginScalacOptions.super.ScalaModule&#45;&gt;allScalacOptions -->
<g id="edge34" class="edge">
<title>enablePluginScalacOptions.super.ScalaModule&#45;&gt;allScalacOptions</title>
<path fill="none" stroke="black" d="M1235.09,-243.43C1283.3,-252.44 1339.96,-263.04 1382.51,-270.99"/>
<polygon fill="black" stroke="black" points="1381.6,-274.38 1392.08,-272.78 1382.89,-267.5 1381.6,-274.38"/>
</g>
<!-- scalacPluginIvyDeps -->
<g id="node25" class="node">
<title>scalacPluginIvyDeps</title>
<polygon fill="none" stroke="black" stroke-dasharray="5,2" points="963.25,-341 833.25,-341 833.25,-305 963.25,-305 963.25,-341"/>
<text text-anchor="middle" x="898.25" y="-317.95" font-family="Times,serif" font-size="14.00">scalacPluginIvyDeps</text>
</g>
<!-- scalacPluginIvyDeps&#45;&gt;enablePluginScalacOptions.super.ScalaModule -->
<g id="edge36" class="edge">
<title>scalacPluginIvyDeps&#45;&gt;enablePluginScalacOptions.super.ScalaModule</title>
<path fill="none" stroke="black" d="M919.51,-304.67C938.68,-288.34 968.95,-265.07 999.25,-252 1003.34,-250.24 1007.55,-248.59 1011.83,-247.04"/>
<polygon fill="black" stroke="black" points="1012.83,-250.4 1021.2,-243.9 1010.61,-243.76 1012.83,-250.4"/>
</g>
<!-- scalacPluginIvyDeps&#45;&gt;scalacPluginClasspath -->
<g id="edge35" class="edge">
<title>scalacPluginIvyDeps&#45;&gt;scalacPluginClasspath</title>
<path fill="none" stroke="black" d="M944.55,-341.48C961.52,-347.94 981.08,-354.86 999.25,-360 1017.37,-365.13 1037.11,-369.65 1055.78,-373.46"/>
<polygon fill="black" stroke="black" points="1054.95,-376.86 1065.44,-375.38 1056.32,-370 1054.95,-376.86"/>
</g>
<!-- mandatoryScalacOptions -->
<g id="node26" class="node">
<title>mandatoryScalacOptions</title>
<polygon fill="none" stroke="black" stroke-dasharray="5,2" points="1211.75,-351 1059.25,-351 1059.25,-315 1211.75,-315 1211.75,-351"/>
<text text-anchor="middle" x="1135.5" y="-327.95" font-family="Times,serif" font-size="14.00">mandatoryScalacOptions</text>
</g>
<!-- mandatoryScalacOptions&#45;&gt;allScalacOptions -->
<g id="edge37" class="edge">
<title>mandatoryScalacOptions&#45;&gt;allScalacOptions</title>
<path fill="none" stroke="black" d="M1212,-320.83C1264.25,-312.41 1333.04,-301.33 1382.63,-293.33"/>
<polygon fill="black" stroke="black" points="1383.04,-296.81 1392.36,-291.77 1381.93,-289.9 1383.04,-296.81"/>
</g>
<!-- allScalacOptions&#45;&gt;compile -->
<g id="edge38" class="edge">
<title>allScalacOptions&#45;&gt;compile</title>
<path fill="none" stroke="black" d="M1501.88,-288.14C1580.52,-295.75 1732.51,-310.47 1861.75,-323 1896.64,-326.38 1936.27,-330.23 1965.15,-333.03"/>
<polygon fill="black" stroke="black" points="1964.64,-336.5 1974.93,-333.98 1965.32,-329.53 1964.64,-336.5"/>
</g>
<!-- scalacOptions -->
<g id="node28" class="node">
<title>scalacOptions</title>
<polygon fill="none" stroke="black" stroke-dasharray="5,2" points="1181.38,-297 1089.62,-297 1089.62,-261 1181.38,-261 1181.38,-297"/>
<text text-anchor="middle" x="1135.5" y="-273.95" font-family="Times,serif" font-size="14.00">scalacOptions</text>
</g>
<!-- scalacOptions&#45;&gt;allScalacOptions -->
<g id="edge39" class="edge">
<title>scalacOptions&#45;&gt;allScalacOptions</title>
<path fill="none" stroke="black" d="M1181.61,-279.58C1234.43,-280.26 1322.29,-281.4 1382.28,-282.17"/>
<polygon fill="black" stroke="black" points="1381.96,-285.66 1392,-282.29 1382.05,-278.67 1381.96,-285.66"/>
</g>
<!-- scalaCompilerClasspath&#45;&gt;compile -->
<g id="edge40" class="edge">
<title>scalaCompilerClasspath&#45;&gt;compile</title>
<path fill="none" stroke="black" d="M1209.21,-426.57C1239.59,-420.87 1275.29,-414.6 1307.75,-410 1552.82,-375.26 1615.63,-379.31 1861.75,-353 1896.65,-349.27 1936.28,-344.86 1965.16,-341.62"/>
<polygon fill="black" stroke="black" points="1965.4,-345.11 1974.94,-340.52 1964.61,-338.16 1965.4,-345.11"/>
</g>
<!-- scalacPluginClasspath&#45;&gt;compile -->
<g id="edge41" class="edge">
<title>scalacPluginClasspath&#45;&gt;compile</title>
<path fill="none" stroke="black" d="M1204.2,-374.87C1235.59,-369.72 1273.47,-364.18 1307.75,-361 1556.87,-337.89 1857.85,-336.44 1965.39,-336.75"/>
<polygon fill="black" stroke="black" points="1965.13,-340.25 1975.14,-336.78 1965.15,-333.25 1965.13,-340.25"/>
</g>
<!-- zincAuxiliaryClassFileExtensions.super.JavaModule -->
<g id="node31" class="node">
<title>zincAuxiliaryClassFileExtensions.super.JavaModule</title>
<polygon fill="none" stroke="black" stroke-dasharray="5,2" points="302.5,-274 0,-274 0,-238 302.5,-238 302.5,-274"/>
<text text-anchor="middle" x="151.25" y="-250.95" font-family="Times,serif" font-size="14.00">zincAuxiliaryClassFileExtensions.super.JavaModule</text>
</g>
<!-- zincAuxiliaryClassFileExtensions.super.JavaModule&#45;&gt;zincAuxiliaryClassFileExtensions -->
<g id="edge42" class="edge">
<title>zincAuxiliaryClassFileExtensions.super.JavaModule&#45;&gt;zincAuxiliaryClassFileExtensions</title>
<path fill="none" stroke="black" d="M302.74,-256C310.84,-256 318.9,-256 326.82,-256"/>
<polygon fill="black" stroke="black" points="326.8,-259.5 336.8,-256 326.8,-252.5 326.8,-259.5"/>
</g>
<!-- zincAuxiliaryClassFileExtensions&#45;&gt;compile -->
<g id="edge43" class="edge">
<title>zincAuxiliaryClassFileExtensions&#45;&gt;compile</title>
<path fill="none" stroke="black" d="M538.5,-242.61C650.21,-228.24 837.37,-206.36 999.25,-198 1384.54,-178.1 1489.7,-193.93 1861.75,-296 1878.31,-300.54 1881.39,-304.8 1897.75,-310 1919.92,-317.04 1945.11,-323.42 1965.61,-328.21"/>
<polygon fill="black" stroke="black" points="1964.77,-331.6 1975.3,-330.43 1966.33,-324.78 1964.77,-331.6"/>
</g>
<!-- finalMainClassOpt -->
<g id="node39" class="node">
<title>finalMainClassOpt</title>
<polygon fill="none" stroke="black" stroke-dasharray="5,2" points="2271.75,-678 2152.25,-678 2152.25,-642 2271.75,-642 2271.75,-678"/>
<text text-anchor="middle" x="2212" y="-654.95" font-family="Times,serif" font-size="14.00">finalMainClassOpt</text>
</g>
<!-- compile&#45;&gt;finalMainClassOpt -->
<g id="edge45" class="edge">
<title>compile&#45;&gt;finalMainClassOpt</title>
<path fill="none" stroke="black" d="M2019.5,-355.29C2053.33,-409.13 2152.74,-567.3 2193.38,-631.96"/>
<polygon fill="black" stroke="black" points="2190.29,-633.62 2198.57,-640.23 2196.22,-629.9 2190.29,-633.62"/>
</g>
<!-- localRunClasspath -->
<g id="node44" class="node">
<title>localRunClasspath</title>
<polygon fill="none" stroke="black" stroke-dasharray="5,2" points="2270.62,-328 2153.38,-328 2153.38,-292 2270.62,-292 2270.62,-328"/>
<text text-anchor="middle" x="2212" y="-304.95" font-family="Times,serif" font-size="14.00">localRunClasspath</text>
</g>
<!-- compile&#45;&gt;localRunClasspath -->
<g id="edge44" class="edge">
<title>compile&#45;&gt;localRunClasspath</title>
<path fill="none" stroke="black" d="M2037.52,-333.07C2064.71,-329.46 2106.09,-323.95 2141.62,-319.23"/>
<polygon fill="black" stroke="black" points="2141.97,-322.71 2151.42,-317.92 2141.05,-315.77 2141.97,-322.71"/>
</g>
<!-- upstreamCompileOutput -->
<g id="node34" class="node">
<title>upstreamCompileOutput</title>
<polygon fill="none" stroke="black" stroke-dasharray="5,2" points="1818.25,-144 1667.25,-144 1667.25,-108 1818.25,-108 1818.25,-144"/>
<text text-anchor="middle" x="1742.75" y="-120.95" font-family="Times,serif" font-size="14.00">upstreamCompileOutput</text>
</g>
<!-- upstreamCompileOutput&#45;&gt;compile -->
<g id="edge46" class="edge">
<title>upstreamCompileOutput&#45;&gt;compile</title>
<path fill="none" stroke="black" d="M1818.75,-130.2C1834.67,-134.38 1850.16,-141.41 1861.75,-153 1912.38,-203.61 1847.61,-258.9 1897.75,-310 1915.19,-327.78 1942.42,-334.51 1965.21,-336.8"/>
<polygon fill="black" stroke="black" points="1964.91,-340.29 1975.13,-337.53 1965.41,-333.31 1964.91,-340.29"/>
</g>
<!-- javacOptions -->
<g id="node35" class="node">
<title>javacOptions</title>
<polygon fill="none" stroke="black" stroke-dasharray="5,2" points="1786.38,-90 1699.12,-90 1699.12,-54 1786.38,-54 1786.38,-90"/>
<text text-anchor="middle" x="1742.75" y="-66.95" font-family="Times,serif" font-size="14.00">javacOptions</text>
</g>
<!-- javacOptions&#45;&gt;compile -->
<g id="edge47" class="edge">
<title>javacOptions&#45;&gt;compile</title>
<path fill="none" stroke="black" d="M1786.86,-70.7C1812.15,-72.34 1842.76,-78.92 1861.75,-99 1927.11,-168.12 1833.07,-240.24 1897.75,-310 1914.87,-328.47 1942.53,-335.14 1965.6,-337.24"/>
<polygon fill="black" stroke="black" points="1965.12,-340.71 1975.32,-337.85 1965.56,-333.73 1965.12,-340.71"/>
</g>
<!-- zincReportCachedProblems -->
<g id="node36" class="node">
<title>zincReportCachedProblems</title>
<polygon fill="none" stroke="black" stroke-dasharray="5,2" points="1826.5,-36 1659,-36 1659,0 1826.5,0 1826.5,-36"/>
<text text-anchor="middle" x="1742.75" y="-12.95" font-family="Times,serif" font-size="14.00">zincReportCachedProblems</text>
</g>
<!-- zincReportCachedProblems&#45;&gt;compile -->
<g id="edge48" class="edge">
<title>zincReportCachedProblems&#45;&gt;compile</title>
<path fill="none" stroke="black" d="M1826.8,-23.62C1840.02,-28.01 1852.39,-34.76 1861.75,-45 1941.93,-132.74 1818.42,-221.48 1897.75,-310 1914.56,-328.76 1942.22,-335.42 1965.37,-337.45"/>
<polygon fill="black" stroke="black" points="1964.95,-340.93 1975.14,-338.02 1965.36,-333.94 1964.95,-340.93"/>
</g>
<!-- zincIncrementalCompilation -->
<g id="node37" class="node">
<title>zincIncrementalCompilation</title>
<polygon fill="none" stroke="black" stroke-dasharray="5,2" points="1828.75,-439 1656.75,-439 1656.75,-403 1828.75,-403 1828.75,-439"/>
<text text-anchor="middle" x="1742.75" y="-415.95" font-family="Times,serif" font-size="14.00">zincIncrementalCompilation</text>
</g>
<!-- zincIncrementalCompilation&#45;&gt;compile -->
<g id="edge49" class="edge">
<title>zincIncrementalCompilation&#45;&gt;compile</title>
<path fill="none" stroke="black" d="M1815.47,-402.55C1830.81,-398.33 1846.87,-393.69 1861.75,-389 1897.32,-377.79 1937.16,-363.27 1965.94,-352.43"/>
<polygon fill="black" stroke="black" points="1966.88,-355.82 1974.99,-349 1964.4,-349.27 1966.88,-355.82"/>
</g>
<!-- mainClass -->
<g id="node38" class="node">
<title>mainClass</title>
<polygon fill="none" stroke="black" stroke-dasharray="5,2" points="2043.5,-678 1970.5,-678 1970.5,-642 2043.5,-642 2043.5,-678"/>
<text text-anchor="middle" x="2007" y="-654.95" font-family="Times,serif" font-size="14.00">mainClass</text>
</g>
<!-- mainClass&#45;&gt;finalMainClassOpt -->
<g id="edge50" class="edge">
<title>mainClass&#45;&gt;finalMainClassOpt</title>
<path fill="none" stroke="black" d="M2043.83,-660C2070.6,-660 2108.07,-660 2140.75,-660"/>
<polygon fill="black" stroke="black" points="2140.57,-663.5 2150.57,-660 2140.57,-656.5 2140.57,-663.5"/>
</g>
<!-- finalMainClass -->
<g id="node40" class="node">
<title>finalMainClass</title>
<polygon fill="none" stroke="black" stroke-dasharray="5,2" points="2650.62,-630 2551.38,-630 2551.38,-594 2650.62,-594 2650.62,-630"/>
<text text-anchor="middle" x="2601" y="-606.95" font-family="Times,serif" font-size="14.00">finalMainClass</text>
</g>
<!-- finalMainClassOpt&#45;&gt;finalMainClass -->
<g id="edge51" class="edge">
<title>finalMainClassOpt&#45;&gt;finalMainClass</title>
<path fill="none" stroke="black" d="M2272.03,-655.02C2332.6,-649.59 2429.49,-640.06 2512.75,-628 2521.54,-626.73 2530.79,-625.22 2539.86,-623.64"/>
<polygon fill="black" stroke="black" points="2540.47,-627.08 2549.7,-621.88 2539.24,-620.19 2540.47,-627.08"/>
</g>
<!-- run -->
<g id="node58" class="node">
<title>run</title>
<polygon fill="none" stroke="black" stroke-dasharray="5,2" points="2743.25,-397 2689.25,-397 2689.25,-361 2743.25,-361 2743.25,-397"/>
<text text-anchor="middle" x="2716.25" y="-373.95" font-family="Times,serif" font-size="14.00">run</text>
</g>
<!-- finalMainClass&#45;&gt;run -->
<g id="edge52" class="edge">
<title>finalMainClass&#45;&gt;run</title>
<path fill="none" stroke="black" d="M2617.33,-593.6C2628.34,-579.76 2642.99,-559.99 2653.25,-541 2677.2,-496.68 2696.32,-441.11 2706.7,-407.92"/>
<polygon fill="black" stroke="black" points="2709.97,-409.2 2709.56,-398.61 2703.28,-407.14 2709.97,-409.2"/>
</g>
<!-- runIvyDeps -->
<g id="node41" class="node">
<title>runIvyDeps</title>
<polygon fill="none" stroke="black" stroke-dasharray="5,2" points="1175.38,-729 1095.62,-729 1095.62,-693 1175.38,-693 1175.38,-729"/>
<text text-anchor="middle" x="1135.5" y="-705.95" font-family="Times,serif" font-size="14.00">runIvyDeps</text>
</g>
<!-- runIvyDeps&#45;&gt;resolvedRunIvyDeps -->
<g id="edge53" class="edge">
<title>runIvyDeps&#45;&gt;resolvedRunIvyDeps</title>
<path fill="none" stroke="black" d="M1175.79,-710.49C1224.76,-709.86 1309.5,-708.77 1371.21,-707.97"/>
<polygon fill="black" stroke="black" points="1370.98,-711.48 1380.93,-707.85 1370.89,-704.48 1370.98,-711.48"/>
</g>
<!-- runClasspath -->
<g id="node48" class="node">
<title>runClasspath</title>
<polygon fill="none" stroke="black" stroke-dasharray="5,2" points="2644.25,-532 2557.75,-532 2557.75,-496 2644.25,-496 2644.25,-532"/>
<text text-anchor="middle" x="2601" y="-508.95" font-family="Times,serif" font-size="14.00">runClasspath</text>
</g>
<!-- resolvedRunIvyDeps&#45;&gt;runClasspath -->
<g id="edge54" class="edge">
<title>resolvedRunIvyDeps&#45;&gt;runClasspath</title>
<path fill="none" stroke="black" d="M1513.09,-695.03C1649.1,-669.91 1957.33,-614 2006,-614 2006,-614 2006,-614 2213,-614 2346.49,-614 2390.1,-647.69 2512.75,-595 2539.68,-583.43 2563.54,-559.83 2579.48,-541.07"/>
<polygon fill="black" stroke="black" points="2582.05,-543.45 2585.68,-533.5 2576.64,-539.01 2582.05,-543.45"/>
</g>
<!-- localRunClasspath.super.RunModule -->
<g id="node43" class="node">
<title>localRunClasspath.super.RunModule</title>
<polygon fill="none" stroke="black" stroke-dasharray="5,2" points="2116.25,-247 1897.75,-247 1897.75,-211 2116.25,-211 2116.25,-247"/>
<text text-anchor="middle" x="2007" y="-223.95" font-family="Times,serif" font-size="14.00">localRunClasspath.super.RunModule</text>
</g>
<!-- localRunClasspath.super.RunModule&#45;&gt;localRunClasspath -->
<g id="edge55" class="edge">
<title>localRunClasspath.super.RunModule&#45;&gt;localRunClasspath</title>
<path fill="none" stroke="black" d="M2091.77,-247.45C2100.14,-250.02 2108.43,-252.87 2116.25,-256 2136.08,-263.95 2156.84,-275.38 2173.86,-285.69"/>
<polygon fill="black" stroke="black" points="2171.77,-288.51 2182.12,-290.79 2175.45,-282.56 2171.77,-288.51"/>
</g>
<!-- localClasspath -->
<g id="node46" class="node">
<title>localClasspath</title>
<polygon fill="none" stroke="black" stroke-dasharray="5,2" points="2457.62,-532 2362.88,-532 2362.88,-496 2457.62,-496 2457.62,-532"/>
<text text-anchor="middle" x="2410.25" y="-508.95" font-family="Times,serif" font-size="14.00">localClasspath</text>
</g>
<!-- localRunClasspath&#45;&gt;localClasspath -->
<g id="edge56" class="edge">
<title>localRunClasspath&#45;&gt;localClasspath</title>
<path fill="none" stroke="black" d="M2217.57,-328.45C2227.52,-364.61 2254.6,-444.92 2307.75,-487 2320.23,-496.88 2336.01,-503.16 2351.37,-507.15"/>
<polygon fill="black" stroke="black" points="2350.44,-510.53 2360.97,-509.33 2351.99,-503.7 2350.44,-510.53"/>
</g>
<!-- resources -->
<g id="node45" class="node">
<title>resources</title>
<polygon fill="none" stroke="black" stroke-dasharray="5,2" points="2040.5,-301 1973.5,-301 1973.5,-265 2040.5,-265 2040.5,-301"/>
<text text-anchor="middle" x="2007" y="-277.95" font-family="Times,serif" font-size="14.00">resources</text>
</g>
<!-- resources&#45;&gt;localRunClasspath -->
<g id="edge57" class="edge">
<title>resources&#45;&gt;localRunClasspath</title>
<path fill="none" stroke="black" d="M2040.62,-287.34C2067.8,-290.95 2107.47,-296.23 2141.7,-300.78"/>
<polygon fill="black" stroke="black" points="2141.2,-304.25 2151.57,-302.1 2142.12,-297.31 2141.2,-304.25"/>
</g>
<!-- localClasspath&#45;&gt;runClasspath -->
<g id="edge58" class="edge">
<title>localClasspath&#45;&gt;runClasspath</title>
<path fill="none" stroke="black" d="M2457.91,-514C2484.68,-514 2518.4,-514 2546.27,-514"/>
<polygon fill="black" stroke="black" points="2545.91,-517.5 2555.91,-514 2545.91,-510.5 2545.91,-517.5"/>
</g>
<!-- runClasspath.super.RunModule -->
<g id="node47" class="node">
<title>runClasspath.super.RunModule</title>
<polygon fill="none" stroke="black" stroke-dasharray="5,2" points="2504.12,-478 2316.38,-478 2316.38,-442 2504.12,-442 2504.12,-478"/>
<text text-anchor="middle" x="2410.25" y="-454.95" font-family="Times,serif" font-size="14.00">runClasspath.super.RunModule</text>
</g>
<!-- runClasspath.super.RunModule&#45;&gt;runClasspath -->
<g id="edge59" class="edge">
<title>runClasspath.super.RunModule&#45;&gt;runClasspath</title>
<path fill="none" stroke="black" d="M2482.06,-478.45C2492.37,-481.25 2502.85,-484.15 2512.75,-487 2523.72,-490.16 2535.42,-493.67 2546.58,-497.1"/>
<polygon fill="black" stroke="black" points="2545.47,-500.42 2556.05,-500.03 2547.53,-493.73 2545.47,-500.42"/>
</g>
<!-- runClasspath&#45;&gt;run -->
<g id="edge60" class="edge">
<title>runClasspath&#45;&gt;run</title>
<path fill="none" stroke="black" d="M2617.51,-495.51C2636.91,-472.39 2670.28,-432.61 2692.55,-406.06"/>
<polygon fill="black" stroke="black" points="2695.21,-408.34 2698.96,-398.42 2689.85,-403.84 2695.21,-408.34"/>
</g>
<!-- transitiveLocalClasspath -->
<g id="node49" class="node">
<title>transitiveLocalClasspath</title>
<polygon fill="none" stroke="black" stroke-dasharray="5,2" points="2485,-586 2335.5,-586 2335.5,-550 2485,-550 2485,-586"/>
<text text-anchor="middle" x="2410.25" y="-562.95" font-family="Times,serif" font-size="14.00">transitiveLocalClasspath</text>
</g>
<!-- transitiveLocalClasspath&#45;&gt;runClasspath -->
<g id="edge61" class="edge">
<title>transitiveLocalClasspath&#45;&gt;runClasspath</title>
<path fill="none" stroke="black" d="M2482.06,-549.55C2492.37,-546.75 2502.85,-543.85 2512.75,-541 2523.72,-537.84 2535.42,-534.33 2546.58,-530.9"/>
<polygon fill="black" stroke="black" points="2547.53,-534.27 2556.05,-527.97 2545.47,-527.58 2547.53,-534.27"/>
</g>
<!-- forkArgs.super.RunModule -->
<g id="node50" class="node">
<title>forkArgs.super.RunModule</title>
<polygon fill="none" stroke="black" stroke-dasharray="5,2" points="2493.25,-424 2327.25,-424 2327.25,-388 2493.25,-388 2493.25,-424"/>
<text text-anchor="middle" x="2410.25" y="-400.95" font-family="Times,serif" font-size="14.00">forkArgs.super.RunModule</text>
</g>
<!-- forkArgs -->
<g id="node51" class="node">
<title>forkArgs</title>
<polygon fill="none" stroke="black" stroke-dasharray="5,2" points="2633.38,-424 2568.62,-424 2568.62,-388 2633.38,-388 2633.38,-424"/>
<text text-anchor="middle" x="2601" y="-400.95" font-family="Times,serif" font-size="14.00">forkArgs</text>
</g>
<!-- forkArgs.super.RunModule&#45;&gt;forkArgs -->
<g id="edge62" class="edge">
<title>forkArgs.super.RunModule&#45;&gt;forkArgs</title>
<path fill="none" stroke="black" d="M2493.49,-406C2515.27,-406 2537.93,-406 2556.72,-406"/>
<polygon fill="black" stroke="black" points="2556.65,-409.5 2566.65,-406 2556.65,-402.5 2556.65,-409.5"/>
</g>
<!-- forkArgs&#45;&gt;run -->
<g id="edge63" class="edge">
<title>forkArgs&#45;&gt;run</title>
<path fill="none" stroke="black" d="M2633.85,-398.41C2647.58,-395.13 2663.73,-391.28 2678.01,-387.88"/>
<polygon fill="black" stroke="black" points="2678.6,-391.34 2687.51,-385.61 2676.97,-384.53 2678.6,-391.34"/>
</g>
<!-- forkEnv.super.RunModule -->
<g id="node52" class="node">
<title>forkEnv.super.RunModule</title>
<polygon fill="none" stroke="black" stroke-dasharray="5,2" points="2490.62,-370 2329.88,-370 2329.88,-334 2490.62,-334 2490.62,-370"/>
<text text-anchor="middle" x="2410.25" y="-346.95" font-family="Times,serif" font-size="14.00">forkEnv.super.RunModule</text>
</g>
<!-- forkEnv -->
<g id="node53" class="node">
<title>forkEnv</title>
<polygon fill="none" stroke="black" stroke-dasharray="5,2" points="2631.12,-370 2570.88,-370 2570.88,-334 2631.12,-334 2631.12,-370"/>
<text text-anchor="middle" x="2601" y="-346.95" font-family="Times,serif" font-size="14.00">forkEnv</text>
</g>
<!-- forkEnv.super.RunModule&#45;&gt;forkEnv -->
<g id="edge64" class="edge">
<title>forkEnv.super.RunModule&#45;&gt;forkEnv</title>
<path fill="none" stroke="black" d="M2491.02,-352C2514.46,-352 2539.13,-352 2559.06,-352"/>
<polygon fill="black" stroke="black" points="2558.99,-355.5 2568.99,-352 2558.99,-348.5 2558.99,-355.5"/>
</g>
<!-- forkEnv&#45;&gt;run -->
<g id="edge65" class="edge">
<title>forkEnv&#45;&gt;run</title>
<path fill="none" stroke="black" d="M2631.46,-359.02C2645.66,-362.41 2662.86,-366.51 2677.97,-370.11"/>
<polygon fill="black" stroke="black" points="2677.02,-373.48 2687.56,-372.4 2678.64,-366.67 2677.02,-373.48"/>
</g>
<!-- forkWorkingDir.super.RunModule -->
<g id="node54" class="node">
<title>forkWorkingDir.super.RunModule</title>
<polygon fill="none" stroke="black" stroke-dasharray="5,2" points="2512.75,-316 2307.75,-316 2307.75,-280 2512.75,-280 2512.75,-316"/>
<text text-anchor="middle" x="2410.25" y="-292.95" font-family="Times,serif" font-size="14.00">forkWorkingDir.super.RunModule</text>
</g>
<!-- forkWorkingDir -->
<g id="node55" class="node">
<title>forkWorkingDir</title>
<polygon fill="none" stroke="black" stroke-dasharray="5,2" points="2653.25,-316 2548.75,-316 2548.75,-280 2653.25,-280 2653.25,-316"/>
<text text-anchor="middle" x="2601" y="-292.95" font-family="Times,serif" font-size="14.00">forkWorkingDir</text>
</g>
<!-- forkWorkingDir.super.RunModule&#45;&gt;forkWorkingDir -->
<g id="edge66" class="edge">
<title>forkWorkingDir.super.RunModule&#45;&gt;forkWorkingDir</title>
<path fill="none" stroke="black" d="M2513.08,-298C2521.18,-298 2529.2,-298 2536.9,-298"/>
<polygon fill="black" stroke="black" points="2536.81,-301.5 2546.81,-298 2536.81,-294.5 2536.81,-301.5"/>
</g>
<!-- forkWorkingDir&#45;&gt;run -->
<g id="edge67" class="edge">
<title>forkWorkingDir&#45;&gt;run</title>
<path fill="none" stroke="black" d="M2639.55,-316.48C2644.26,-319.18 2648.94,-322.04 2653.25,-325 2665.3,-333.26 2677.63,-343.54 2688.08,-352.92"/>
<polygon fill="black" stroke="black" points="2685.52,-355.32 2695.26,-359.49 2690.24,-350.15 2685.52,-355.32"/>
</g>
<!-- runUseArgsFile.super.RunModule -->
<g id="node56" class="node">
<title>runUseArgsFile.super.RunModule</title>
<polygon fill="none" stroke="black" stroke-dasharray="5,2" points="2512,-262 2308.5,-262 2308.5,-226 2512,-226 2512,-262"/>
<text text-anchor="middle" x="2410.25" y="-238.95" font-family="Times,serif" font-size="14.00">runUseArgsFile.super.RunModule</text>
</g>
<!-- runUseArgsFile -->
<g id="node57" class="node">
<title>runUseArgsFile</title>
<polygon fill="none" stroke="black" stroke-dasharray="5,2" points="2652.12,-262 2549.88,-262 2549.88,-226 2652.12,-226 2652.12,-262"/>
<text text-anchor="middle" x="2601" y="-238.95" font-family="Times,serif" font-size="14.00">runUseArgsFile</text>
</g>
<!-- runUseArgsFile.super.RunModule&#45;&gt;runUseArgsFile -->
<g id="edge68" class="edge">
<title>runUseArgsFile.super.RunModule&#45;&gt;runUseArgsFile</title>
<path fill="none" stroke="black" d="M2512.26,-244C2521.17,-244 2530.01,-244 2538.45,-244"/>
<polygon fill="black" stroke="black" points="2538.17,-247.5 2548.17,-244 2538.17,-240.5 2538.17,-247.5"/>
</g>
<!-- runUseArgsFile&#45;&gt;run -->
<g id="edge69" class="edge">
<title>runUseArgsFile&#45;&gt;run</title>
<path fill="none" stroke="black" d="M2642.42,-262.39C2646.3,-264.99 2649.99,-267.86 2653.25,-271 2676.63,-293.54 2693.92,-326.82 2704.21,-350.46"/>
<polygon fill="black" stroke="black" points="2700.9,-351.62 2707.99,-359.5 2707.36,-348.92 2700.9,-351.62"/>
</g>
</g>
</svg>
