<svg width="368px" height="98px"
 viewBox="0.00 0.00 368.00 98.00" xmlns="http://www.w3.org/2000/svg" xmlns:xlink="http://www.w3.org/1999/xlink">
<g id="graph0" class="graph" transform="scale(1.0 1.0) rotate(0.0) translate(4.0 94.0)">
<title>example1</title>
<polygon fill="white" stroke="none" points="-4,4 -4,-94 364,-94 364,4 -4,4"/>
<!-- bar.compile -->
<g id="node1" class="node">
<title>bar.compile</title>
<polygon fill="none" stroke="black" points="80.5,-63 0,-63 0,-27 80.5,-27 80.5,-63"/>
<text text-anchor="middle" x="40.25" y="-39.95" font-family="Times,serif" font-size="14.00">bar.compile</text>
</g>
<!-- bar.test.compile -->
<g id="node2" class="node">
<title>bar.test.compile</title>
<polygon fill="none" stroke="black" points="219.5,-90 116.5,-90 116.5,-54 219.5,-54 219.5,-90"/>
<text text-anchor="middle" x="168" y="-66.95" font-family="Times,serif" font-size="14.00">bar.test.compile</text>
</g>
<!-- bar.compile&#45;&gt;bar.test.compile -->
<g id="edge2" class="edge">
<title>bar.compile&#45;&gt;bar.test.compile</title>
<path fill="none" stroke="black" d="M80.69,-53.47C88.42,-55.13 96.69,-56.9 104.95,-58.68"/>
<polygon fill="black" stroke="black" points="104.15,-62.09 114.66,-60.76 105.62,-55.24 104.15,-62.09"/>
</g>
<!-- foo.compile -->
<g id="node3" class="node">
<title>foo.compile</title>
<polygon fill="none" stroke="black" points="209,-36 127,-36 127,0 209,0 209,-36"/>
<text text-anchor="middle" x="168" y="-12.95" font-family="Times,serif" font-size="14.00">foo.compile</text>
</g>
<!-- bar.compile&#45;&gt;foo.compile -->
<g id="edge1" class="edge">
<title>bar.compile&#45;&gt;foo.compile</title>
<path fill="none" stroke="black" d="M80.69,-36.53C91.83,-34.14 104.11,-31.5 115.82,-28.99"/>
<polygon fill="black" stroke="black" points="116.31,-32.46 125.35,-26.94 114.84,-25.62 116.31,-32.46"/>
</g>
<!-- foo.test.compile -->
<g id="node4" class="node">
<title>foo.test.compile</title>
<polygon fill="none" stroke="black" points="360,-36 255.5,-36 255.5,0 360,0 360,-36"/>
<text text-anchor="middle" x="307.75" y="-12.95" font-family="Times,serif" font-size="14.00">foo.test.compile</text>
</g>
<!-- foo.compile&#45;&gt;foo.test.compile -->
<g id="edge3" class="edge">
<title>foo.compile&#45;&gt;foo.test.compile</title>
<path fill="none" stroke="black" d="M209.21,-18C220.11,-18 232.16,-18 243.98,-18"/>
<polygon fill="black" stroke="black" points="243.67,-21.5 253.67,-18 243.67,-14.5 243.67,-21.5"/>
</g>
</g>
</svg>
