<?xml version="1.0" encoding="UTF-8" standalone="no"?>
<!DOCTYPE svg PUBLIC "-//W3C//DTD SVG 1.1//EN"
 "http://www.w3.org/Graphics/SVG/1.1/DTD/svg11.dtd">
<!-- Generated by graphviz version 9.0.0 (20230911.1827)
 -->
<!-- Title: G Pages: 1 -->
<svg width="523pt" height="278pt"
 viewBox="0.00 0.00 522.50 278.25" xmlns="http://www.w3.org/2000/svg" xmlns:xlink="http://www.w3.org/1999/xlink">
<g id="graph0" class="graph" transform="scale(1 1) rotate(0) translate(4 274.25)">
<title>G</title>
<polygon fill="white" stroke="none" points="-4,4 -4,-274.25 518.5,-274.25 518.5,4 -4,4"/>
<!-- root&#45;module -->
<g id="node1" class="node">
<title>root&#45;module</title>
<polygon fill="none" stroke="black" stroke-dasharray="5,2" points="363.62,-270.25 261.38,-270.25 261.38,-245 363.62,-245 363.62,-270.25"/>
<text text-anchor="middle" x="312.5" y="-252.95" font-family="Times,serif" font-size="14.00">root&#45;module</text>
</g>
<!-- foo -->
<g id="node2" class="node">
<title>foo</title>
<polygon fill="none" stroke="black" stroke-dasharray="5,2" points="331.38,-209 293.62,-209 293.62,-183.75 331.38,-183.75 331.38,-209"/>
<text text-anchor="middle" x="312.5" y="-191.7" font-family="Times,serif" font-size="14.00">foo</text>
</g>
<!-- root&#45;module&#45;&gt;foo -->
<g id="edge1" class="edge">
<title>root&#45;module&#45;&gt;foo</title>
<path fill="none" stroke="black" stroke-dasharray="5,2" d="M312.5,-244.63C312.5,-237.73 312.5,-228.81 312.5,-220.59"/>
<polygon fill="black" stroke="black" points="316,-220.86 312.5,-210.86 309,-220.86 316,-220.86"/>
</g>
<!-- foo[a] -->
<g id="node3" class="node">
<title>foo[a]</title>
<polygon fill="none" stroke="black" stroke-dasharray="5,2" points="288.75,-147.75 232.25,-147.75 232.25,-122.5 288.75,-122.5 288.75,-147.75"/>
<text text-anchor="middle" x="260.5" y="-130.45" font-family="Times,serif" font-size="14.00">foo[a]</text>
</g>
<!-- foo&#45;&gt;foo[a] -->
<g id="edge2" class="edge">
<title>foo&#45;&gt;foo[a]</title>
<path fill="none" stroke="black" stroke-dasharray="5,2" d="M301.98,-183.38C295.21,-175.68 286.25,-165.46 278.38,-156.5"/>
<polygon fill="black" stroke="black" points="281.23,-154.44 272.01,-149.23 275.97,-159.06 281.23,-154.44"/>
</g>
<!-- foo[b] -->
<g id="node4" class="node">
<title>foo[b]</title>
<polygon fill="none" stroke="black" stroke-dasharray="5,2" points="394.12,-147.75 336.88,-147.75 336.88,-122.5 394.12,-122.5 394.12,-147.75"/>
<text text-anchor="middle" x="365.5" y="-130.45" font-family="Times,serif" font-size="14.00">foo[b]</text>
</g>
<!-- foo&#45;&gt;foo[b] -->
<g id="edge3" class="edge">
<title>foo&#45;&gt;foo[b]</title>
<path fill="none" stroke="black" stroke-dasharray="5,2" d="M323.23,-183.38C330.12,-175.68 339.26,-165.46 347.27,-156.5"/>
<polygon fill="black" stroke="black" points="349.72,-159.01 353.78,-149.23 344.51,-154.35 349.72,-159.01"/>
</g>
<!-- foo[a].bar -->
<g id="node5" class="node">
<title>foo[a].bar</title>
<polygon fill="none" stroke="black" stroke-dasharray="5,2" points="199,-86.5 114,-86.5 114,-61.25 199,-61.25 199,-86.5"/>
<text text-anchor="middle" x="156.5" y="-69.2" font-family="Times,serif" font-size="14.00">foo[a].bar</text>
</g>
<!-- foo[a]&#45;&gt;foo[a].bar -->
<g id="edge4" class="edge">
<title>foo[a]&#45;&gt;foo[a].bar</title>
<path fill="none" stroke="black" stroke-dasharray="5,2" d="M239.45,-122.13C224.51,-113.62 204.21,-102.05 187.43,-92.49"/>
<polygon fill="black" stroke="black" points="189.25,-89.51 178.83,-87.6 185.79,-95.59 189.25,-89.51"/>
</g>
<!-- foo[a].qux -->
<g id="node6" class="node">
<title>foo[a].qux</title>
<polygon fill="none" stroke="black" stroke-dasharray="5,2" points="304.12,-86.5 216.88,-86.5 216.88,-61.25 304.12,-61.25 304.12,-86.5"/>
<text text-anchor="middle" x="260.5" y="-69.2" font-family="Times,serif" font-size="14.00">foo[a].qux</text>
</g>
<!-- foo[a]&#45;&gt;foo[a].qux -->
<g id="edge5" class="edge">
<title>foo[a]&#45;&gt;foo[a].qux</title>
<path fill="none" stroke="black" stroke-dasharray="5,2" d="M260.5,-122.13C260.5,-115.23 260.5,-106.31 260.5,-98.09"/>
<polygon fill="black" stroke="black" points="264,-98.36 260.5,-88.36 257,-98.36 264,-98.36"/>
</g>
<!-- foo[b].bar -->
<g id="node7" class="node">
<title>foo[b].bar</title>
<polygon fill="none" stroke="black" stroke-dasharray="5,2" points="408.38,-86.5 322.62,-86.5 322.62,-61.25 408.38,-61.25 408.38,-86.5"/>
<text text-anchor="middle" x="365.5" y="-69.2" font-family="Times,serif" font-size="14.00">foo[b].bar</text>
</g>
<!-- foo[b]&#45;&gt;foo[b].bar -->
<g id="edge6" class="edge">
<title>foo[b]&#45;&gt;foo[b].bar</title>
<path fill="none" stroke="black" stroke-dasharray="5,2" d="M365.5,-122.13C365.5,-115.23 365.5,-106.31 365.5,-98.09"/>
<polygon fill="black" stroke="black" points="369,-98.36 365.5,-88.36 362,-98.36 369,-98.36"/>
</g>
<!-- foo[b].qux -->
<g id="node8" class="node">
<title>foo[b].qux</title>
<polygon fill="none" stroke="black" stroke-dasharray="5,2" points="514.5,-86.5 426.5,-86.5 426.5,-61.25 514.5,-61.25 514.5,-86.5"/>
<text text-anchor="middle" x="470.5" y="-69.2" font-family="Times,serif" font-size="14.00">foo[b].qux</text>
</g>
<!-- foo[b]&#45;&gt;foo[b].qux -->
<g id="edge7" class="edge">
<title>foo[b]&#45;&gt;foo[b].qux</title>
<path fill="none" stroke="black" stroke-dasharray="5,2" d="M386.75,-122.13C401.83,-113.62 422.33,-102.05 439.27,-92.49"/>
<polygon fill="black" stroke="black" points="440.98,-95.55 447.97,-87.59 437.54,-89.46 440.98,-95.55"/>
</g>
<!-- foo[a].bar.name -->
<g id="node9" class="node">
<title>foo[a].bar.name</title>
<polygon fill="white" stroke="black" points="127,-25.25 0,-25.25 0,0 127,0 127,-25.25"/>
<text text-anchor="middle" x="63.5" y="-7.95" font-family="Times,serif" font-size="14.00">foo[a].bar.name</text>
</g>
<!-- foo[a].bar&#45;&gt;foo[a].bar.name -->
<g id="edge8" class="edge">
<title>foo[a].bar&#45;&gt;foo[a].bar.name</title>
<path fill="none" stroke="black" stroke-dasharray="5,2" d="M137.68,-60.88C124.44,-52.45 106.5,-41.02 91.58,-31.52"/>
<polygon fill="black" stroke="black" points="93.88,-28.83 83.57,-26.41 90.12,-34.74 93.88,-28.83"/>
</g>
<!-- foo[a].bar.param -->
<g id="node10" class="node">
<title>foo[a].bar.param</title>
<polygon fill="white" stroke="black" points="278.38,-25.25 144.62,-25.25 144.62,0 278.38,0 278.38,-25.25"/>
<text text-anchor="middle" x="211.5" y="-7.95" font-family="Times,serif" font-size="14.00">foo[a].bar.param</text>
</g>
<!-- foo[a].bar&#45;&gt;foo[a].bar.param -->
<g id="edge9" class="edge">
<title>foo[a].bar&#45;&gt;foo[a].bar.param</title>
<path fill="none" stroke="black" stroke-dasharray="5,2" d="M167.63,-60.88C174.79,-53.18 184.27,-42.96 192.59,-34"/>
<polygon fill="black" stroke="black" points="195.12,-36.42 199.36,-26.71 189.99,-31.65 195.12,-36.42"/>
</g>
<!-- ... -->
<g id="node11" class="node">
<title>...</title>
<polygon fill="white" stroke="white" points="380.25,-25.25 350.75,-25.25 350.75,0 380.25,0 380.25,-25.25"/>
<text text-anchor="middle" x="365.5" y="-7.95" font-family="Times,serif" font-size="14.00">...</text>
</g>
<!-- foo[a].qux&#45;&gt;... -->
<!-- foo[b].bar&#45;&gt;... -->
<!-- foo[b].qux&#45;&gt;... -->
<!-- foo[a].bar.name&#45;&gt;foo[a].bar.param -->
<g id="edge13" class="edge">
<title>foo[a].bar.name&#45;&gt;foo[a].bar.param</title>
<path fill="none" stroke="black" d="M127.38,-12.62C129.22,-12.62 131.05,-12.62 132.88,-12.62"/>
<polygon fill="black" stroke="black" points="132.63,-16.13 142.63,-12.63 132.63,-9.13 132.63,-16.13"/>
</g>
</g>
</svg>
