<?xml version="1.0" encoding="UTF-8" standalone="no"?>
<!DOCTYPE svg PUBLIC "-//W3C//DTD SVG 1.1//EN"
 "http://www.w3.org/Graphics/SVG/1.1/DTD/svg11.dtd">
<!-- Generated by graphviz version 9.0.0 (20230911.1827)
 -->
<!-- Title: G Pages: 1 -->
<svg width="602pt" height="156pt"
 viewBox="0.00 0.00 601.62 155.75" xmlns="http://www.w3.org/2000/svg" xmlns:xlink="http://www.w3.org/1999/xlink">
<g id="graph0" class="graph" transform="scale(1 1) rotate(0) translate(4 151.75)">
<title>G</title>
<!-- root&#45;module -->
<g id="node1" class="node">
<title>root&#45;module</title>
<polygon fill="none" stroke="black" stroke-dasharray="5,2" points="311.75,-147.75 209.5,-147.75 209.5,-122.5 311.75,-122.5 311.75,-147.75"/>
<text text-anchor="middle" x="260.62" y="-130.45" font-family="Times,serif" font-size="14.00">root&#45;module</text>
</g>
<!-- foo1 -->
<g id="node2" class="node">
<title>foo1</title>
<polygon fill="none" stroke="black" stroke-dasharray="5,2" points="237,-86.5 190.25,-86.5 190.25,-61.25 237,-61.25 237,-86.5"/>
<text text-anchor="middle" x="213.62" y="-69.2" font-family="Times,serif" font-size="14.00">foo1</text>
</g>
<!-- root&#45;module&#45;&gt;foo1 -->
<g id="edge1" class="edge">
<title>root&#45;module&#45;&gt;foo1</title>
<path fill="none" stroke="black" stroke-dasharray="5,2" d="M251.11,-122.13C245.13,-114.59 237.23,-104.63 230.23,-95.81"/>
<polygon fill="black" stroke="black" points="233.02,-93.69 224.06,-88.03 227.54,-98.04 233.02,-93.69"/>
</g>
<!-- foo2 -->
<g id="node3" class="node">
<title>foo2</title>
<polygon fill="none" stroke="black" stroke-dasharray="5,2" points="437,-86.5 390.25,-86.5 390.25,-61.25 437,-61.25 437,-86.5"/>
<text text-anchor="middle" x="413.62" y="-69.2" font-family="Times,serif" font-size="14.00">foo2</text>
</g>
<!-- root&#45;module&#45;&gt;foo2 -->
<g id="edge5" class="edge">
<title>root&#45;module&#45;&gt;foo2</title>
<path fill="none" stroke="black" stroke-dasharray="5,2" d="M291.59,-122.13C317.11,-112.25 353.25,-98.25 379.58,-88.06"/>
<polygon fill="black" stroke="black" points="380.73,-91.37 388.79,-84.49 378.2,-84.84 380.73,-91.37"/>
</g>
<!-- foo1.bar -->
<g id="node4" class="node">
<title>foo1.bar</title>
<polygon fill="white" stroke="black" points="75.25,-25.25 0,-25.25 0,0 75.25,0 75.25,-25.25"/>
<text text-anchor="middle" x="37.62" y="-7.95" font-family="Times,serif" font-size="14.00">foo1.bar</text>
</g>
<!-- foo1&#45;&gt;foo1.bar -->
<g id="edge2" class="edge">
<title>foo1&#45;&gt;foo1.bar</title>
<path fill="none" stroke="black" stroke-dasharray="5,2" d="M189.89,-64.88C162.88,-55.79 118.11,-40.72 84.09,-29.27"/>
<polygon fill="black" stroke="black" points="85.49,-26.05 74.9,-26.17 83.26,-32.68 85.49,-26.05"/>
</g>
<!-- foo1.qux.super -->
<g id="node5" class="node">
<title>foo1.qux.super</title>
<polygon fill="white" stroke="black" points="215.88,-25.25 93.38,-25.25 93.38,0 215.88,0 215.88,-25.25"/>
<text text-anchor="middle" x="154.62" y="-7.95" font-family="Times,serif" font-size="14.00">foo1.qux.super</text>
</g>
<!-- foo1&#45;&gt;foo1.qux.super -->
<g id="edge3" class="edge">
<title>foo1&#45;&gt;foo1.qux.super</title>
<path fill="none" stroke="black" stroke-dasharray="5,2" d="M201.69,-60.88C193.93,-53.09 183.62,-42.75 174.64,-33.72"/>
<polygon fill="black" stroke="black" points="177.15,-31.29 167.61,-26.67 172.19,-36.23 177.15,-31.29"/>
</g>
<!-- foo1.qux -->
<g id="node6" class="node">
<title>foo1.qux</title>
<polygon fill="white" stroke="black" points="311.38,-25.25 233.88,-25.25 233.88,0 311.38,0 311.38,-25.25"/>
<text text-anchor="middle" x="272.62" y="-7.95" font-family="Times,serif" font-size="14.00">foo1.qux</text>
</g>
<!-- foo1&#45;&gt;foo1.qux -->
<g id="edge4" class="edge">
<title>foo1&#45;&gt;foo1.qux</title>
<path fill="none" stroke="black" stroke-dasharray="5,2" d="M225.56,-60.88C233.32,-53.09 243.63,-42.75 252.61,-33.72"/>
<polygon fill="black" stroke="black" points="255.06,-36.23 259.64,-26.67 250.1,-31.29 255.06,-36.23"/>
</g>
<!-- foo2.bar -->
<g id="node7" class="node">
<title>foo2.bar</title>
<polygon fill="white" stroke="black" points="404.25,-25.25 329,-25.25 329,0 404.25,0 404.25,-25.25"/>
<text text-anchor="middle" x="366.62" y="-7.95" font-family="Times,serif" font-size="14.00">foo2.bar</text>
</g>
<!-- foo2&#45;&gt;foo2.bar -->
<g id="edge6" class="edge">
<title>foo2&#45;&gt;foo2.bar</title>
<path fill="none" stroke="black" stroke-dasharray="5,2" d="M404.11,-60.88C398.13,-53.34 390.23,-43.38 383.23,-34.56"/>
<polygon fill="black" stroke="black" points="386.02,-32.44 377.06,-26.78 380.54,-36.79 386.02,-32.44"/>
</g>
<!-- foo2.qux -->
<g id="node8" class="node">
<title>foo2.qux</title>
<polygon fill="white" stroke="black" points="499.38,-25.25 421.88,-25.25 421.88,0 499.38,0 499.38,-25.25"/>
<text text-anchor="middle" x="460.62" y="-7.95" font-family="Times,serif" font-size="14.00">foo2.qux</text>
</g>
<!-- foo2&#45;&gt;foo2.qux -->
<g id="edge7" class="edge">
<title>foo2&#45;&gt;foo2.qux</title>
<path fill="none" stroke="black" stroke-dasharray="5,2" d="M423.14,-60.88C429.12,-53.34 437.02,-43.38 444.02,-34.56"/>
<polygon fill="black" stroke="black" points="446.71,-36.79 450.19,-26.78 441.23,-32.44 446.71,-36.79"/>
</g>
<!-- foo2.baz -->
<g id="node9" class="node">
<title>foo2.baz</title>
<polygon fill="white" stroke="black" points="593.62,-25.25 517.62,-25.25 517.62,0 593.62,0 593.62,-25.25"/>
<text text-anchor="middle" x="555.62" y="-7.95" font-family="Times,serif" font-size="14.00">foo2.baz</text>
</g>
<!-- foo2&#45;&gt;foo2.baz -->
<g id="edge8" class="edge">
<title>foo2&#45;&gt;foo2.baz</title>
<path fill="none" stroke="black" stroke-dasharray="5,2" d="M437.39,-62.96C458.88,-53.99 490.92,-40.62 516.23,-30.06"/>
<polygon fill="black" stroke="black" points="517.34,-33.39 525.22,-26.31 514.65,-26.93 517.34,-33.39"/>
</g>
<!-- foo1.bar&#45;&gt;foo1.qux.super -->
<g id="edge9" class="edge">
<title>foo1.bar&#45;&gt;foo1.qux.super</title>
<path fill="none" stroke="black" d="M75.56,-12.62C77.67,-12.62 79.78,-12.62 81.89,-12.62"/>
<polygon fill="black" stroke="black" points="81.65,-16.13 91.65,-12.63 81.65,-9.13 81.65,-16.13"/>
</g>
<!-- foo1.qux.super&#45;&gt;foo1.qux -->
<g id="edge10" class="edge">
<title>foo1.qux.super&#45;&gt;foo1.qux</title>
<path fill="none" stroke="black" d="M215.93,-12.62C218.05,-12.62 220.17,-12.62 222.3,-12.62"/>
<polygon fill="black" stroke="black" points="222.13,-16.13 232.13,-12.63 222.13,-9.13 222.13,-16.13"/>
</g>
<!-- foo2.bar&#45;&gt;foo2.qux -->
<g id="edge11" class="edge">
<title>foo2.bar&#45;&gt;foo2.qux</title>
<path fill="none" stroke="black" d="M404.45,-12.62C406.32,-12.62 408.19,-12.62 410.06,-12.62"/>
<polygon fill="black" stroke="black" points="410.05,-16.13 420.05,-12.63 410.05,-9.13 410.05,-16.13"/>
</g>
<!-- foo2.qux&#45;&gt;foo2.baz -->
<g id="edge12" class="edge">
<title>foo2.qux&#45;&gt;foo2.baz</title>
<path fill="none" stroke="black" d="M499.59,-12.62C501.74,-12.62 503.89,-12.62 506.04,-12.62"/>
<polygon fill="black" stroke="black" points="506.03,-16.13 516.03,-12.63 506.03,-9.13 506.03,-16.13"/>
</g>
</g>
</svg>
