<?xml version="1.0" encoding="UTF-8" standalone="no"?>
<!DOCTYPE svg PUBLIC "-//W3C//DTD SVG 1.1//EN"
 "http://www.w3.org/Graphics/SVG/1.1/DTD/svg11.dtd">
<!-- Generated by graphviz version 9.0.0 (20230911.1827)
 -->
<!-- Title: G Pages: 1 -->
<svg width="353pt" height="173pt"
 viewBox="0.00 0.00 353.00 173.00" xmlns="http://www.w3.org/2000/svg" xmlns:xlink="http://www.w3.org/1999/xlink">
<g id="graph0" class="graph" transform="scale(1 1) rotate(0) translate(4 169)">
<title>G</title>
<polygon fill="white" stroke="none" points="-4,4 -4,-169 349,-169 349,4 -4,4"/>
<!-- 1 &#45; Foo.md -->
<g id="node1" class="node">
<title>1 &#45; Foo.md</title>
<polygon fill="none" stroke="black" points="91,-165 0,-165 0,-139.75 91,-139.75 91,-165"/>
<text text-anchor="middle" x="45.5" y="-147.7" font-family="Times,serif" font-size="14.00">1 &#45; Foo.md</text>
</g>
<!-- post[1]\nrender -->
<g id="node2" class="node">
<title>post[1]\nrender</title>
<polygon fill="none" stroke="black" points="91.62,-103.75 25.38,-103.75 25.38,-61.25 91.62,-61.25 91.62,-103.75"/>
<text text-anchor="middle" x="58.5" y="-86.45" font-family="Times,serif" font-size="14.00">post[1]</text>
<text text-anchor="middle" x="58.5" y="-69.2" font-family="Times,serif" font-size="14.00">render</text>
</g>
<!-- 1 &#45; Foo.md&#45;&gt;post[1]\nrender -->
<g id="edge1" class="edge">
<title>1 &#45; Foo.md&#45;&gt;post[1]\nrender</title>
<path fill="none" stroke="black" d="M47.76,-139.55C49.06,-132.79 50.75,-123.96 52.41,-115.31"/>
<polygon fill="black" stroke="black" points="55.8,-116.2 54.24,-105.72 48.93,-114.88 55.8,-116.2"/>
</g>
<!-- dist -->
<g id="node7" class="node">
<title>dist</title>
<polygon fill="none" stroke="black" points="218,-25.25 175,-25.25 175,0 218,0 218,-25.25"/>
<text text-anchor="middle" x="196.5" y="-7.95" font-family="Times,serif" font-size="14.00">dist</text>
</g>
<!-- post[1]\nrender&#45;&gt;dist -->
<g id="edge4" class="edge">
<title>post[1]\nrender&#45;&gt;dist</title>
<path fill="none" stroke="black" d="M91.91,-65.07C113.98,-54.21 142.75,-40.06 164.52,-29.35"/>
<polygon fill="black" stroke="black" points="165.8,-32.62 173.23,-25.07 162.71,-26.34 165.8,-32.62"/>
</g>
<!-- 2 &#45; Foo.md -->
<g id="node3" class="node">
<title>2 &#45; Foo.md</title>
<polygon fill="none" stroke="black" points="200,-165 109,-165 109,-139.75 200,-139.75 200,-165"/>
<text text-anchor="middle" x="154.5" y="-147.7" font-family="Times,serif" font-size="14.00">2 &#45; Foo.md</text>
</g>
<!-- post[2]\nrender -->
<g id="node4" class="node">
<title>post[2]\nrender</title>
<polygon fill="none" stroke="black" points="187.62,-103.75 121.38,-103.75 121.38,-61.25 187.62,-61.25 187.62,-103.75"/>
<text text-anchor="middle" x="154.5" y="-86.45" font-family="Times,serif" font-size="14.00">post[2]</text>
<text text-anchor="middle" x="154.5" y="-69.2" font-family="Times,serif" font-size="14.00">render</text>
</g>
<!-- 2 &#45; Foo.md&#45;&gt;post[2]\nrender -->
<g id="edge2" class="edge">
<title>2 &#45; Foo.md&#45;&gt;post[2]\nrender</title>
<path fill="none" stroke="black" d="M154.5,-139.55C154.5,-132.87 154.5,-124.15 154.5,-115.6"/>
<polygon fill="black" stroke="black" points="158,-115.75 154.5,-105.75 151,-115.75 158,-115.75"/>
</g>
<!-- post[2]\nrender&#45;&gt;dist -->
<g id="edge5" class="edge">
<title>post[2]\nrender&#45;&gt;dist</title>
<path fill="none" stroke="black" d="M167.33,-60.77C172.35,-52.65 178.11,-43.35 183.18,-35.16"/>
<polygon fill="black" stroke="black" points="186.04,-37.19 188.32,-26.84 180.08,-33.5 186.04,-37.19"/>
</g>
<!-- 3 &#45; Foo.md -->
<g id="node5" class="node">
<title>3 &#45; Foo.md</title>
<polygon fill="none" stroke="black" points="309,-165 218,-165 218,-139.75 309,-139.75 309,-165"/>
<text text-anchor="middle" x="263.5" y="-147.7" font-family="Times,serif" font-size="14.00">3 &#45; Foo.md</text>
</g>
<!-- post[3]\nrender -->
<g id="node6" class="node">
<title>post[3]\nrender</title>
<polygon fill="none" stroke="black" points="271.62,-103.75 205.38,-103.75 205.38,-61.25 271.62,-61.25 271.62,-103.75"/>
<text text-anchor="middle" x="238.5" y="-86.45" font-family="Times,serif" font-size="14.00">post[3]</text>
<text text-anchor="middle" x="238.5" y="-69.2" font-family="Times,serif" font-size="14.00">render</text>
</g>
<!-- 3 &#45; Foo.md&#45;&gt;post[3]\nrender -->
<g id="edge3" class="edge">
<title>3 &#45; Foo.md&#45;&gt;post[3]\nrender</title>
<path fill="none" stroke="black" d="M259.15,-139.55C256.63,-132.72 253.33,-123.76 250.11,-115.02"/>
<polygon fill="black" stroke="black" points="253.4,-113.83 246.66,-105.65 246.83,-116.25 253.4,-113.83"/>
</g>
<!-- post[3]\nrender&#45;&gt;dist -->
<g id="edge6" class="edge">
<title>post[3]\nrender&#45;&gt;dist</title>
<path fill="none" stroke="black" d="M225.67,-60.77C220.65,-52.65 214.89,-43.35 209.82,-35.16"/>
<polygon fill="black" stroke="black" points="212.92,-33.5 204.68,-26.84 206.96,-37.19 212.92,-33.5"/>
</g>
<!-- index -->
<g id="node8" class="node">
<title>index</title>
<polygon fill="none" stroke="black" points="345,-95.12 290,-95.12 290,-69.88 345,-69.88 345,-95.12"/>
<text text-anchor="middle" x="317.5" y="-77.83" font-family="Times,serif" font-size="14.00">index</text>
</g>
<!-- index&#45;&gt;dist -->
<g id="edge7" class="edge">
<title>index&#45;&gt;dist</title>
<path fill="none" stroke="black" d="M296.15,-69.52C277.26,-58.92 249.44,-43.32 228,-31.29"/>
<polygon fill="black" stroke="black" points="229.8,-28.29 219.37,-26.45 226.38,-34.4 229.8,-28.29"/>
</g>
</g>
</svg>
