<?xml version="1.0" encoding="UTF-8" standalone="no"?>
<!DOCTYPE svg PUBLIC "-//W3C//DTD SVG 1.1//EN"
 "http://www.w3.org/Graphics/SVG/1.1/DTD/svg11.dtd">
<!-- Generated by graphviz version 9.0.0 (20230911.1827)
 -->
<!-- Title: G Pages: 1 -->
<svg width="350pt" height="241pt"
 viewBox="0.00 0.00 349.50 241.00" xmlns="http://www.w3.org/2000/svg" xmlns:xlink="http://www.w3.org/1999/xlink">
<g id="graph0" class="graph" transform="scale(1 1) rotate(0) translate(4 237)">
<title>G</title>
<polygon fill="white" stroke="none" points="-4,4 -4,-237 345.5,-237 345.5,4 -4,4"/>
<g id="clust1" class="cluster">
<title>cluster_0</title>
<polygon fill="none" stroke="black" stroke-dasharray="5,2" points="8,-8 8,-75 147.25,-75 147.25,-8 8,-8"/>
<text text-anchor="middle" x="77.62" y="-57.7" font-family="Times,serif" font-size="14.00">foo[2.10]</text>
</g>
<g id="clust2" class="cluster">
<title>cluster_1</title>
<polygon fill="none" stroke="black" stroke-dasharray="5,2" points="8,-83 8,-150 147.25,-150 147.25,-83 8,-83"/>
<text text-anchor="middle" x="77.62" y="-132.7" font-family="Times,serif" font-size="14.00">foo[2.11]</text>
</g>
<g id="clust3" class="cluster">
<title>cluster_2</title>
<polygon fill="none" stroke="black" stroke-dasharray="5,2" points="8,-158 8,-225 147.25,-225 147.25,-158 8,-158"/>
<text text-anchor="middle" x="77.62" y="-207.7" font-family="Times,serif" font-size="14.00">foo[2.12]</text>
</g>
<g id="clust4" class="cluster">
<title>cluster_3</title>
<polygon fill="none" stroke="black" stroke-dasharray="5,2" points="167.25,-8 167.25,-75 333.5,-75 333.5,-8 167.25,-8"/>
<text text-anchor="middle" x="250.38" y="-57.7" font-family="Times,serif" font-size="14.00">bar[2.10]</text>
</g>
<g id="clust5" class="cluster">
<title>cluster_4</title>
<polygon fill="none" stroke="black" stroke-dasharray="5,2" points="167.25,-83 167.25,-150 333.5,-150 333.5,-83 167.25,-83"/>
<text text-anchor="middle" x="250.38" y="-132.7" font-family="Times,serif" font-size="14.00">bar[2.11]</text>
</g>
<g id="clust6" class="cluster">
<title>cluster_5</title>
<polygon fill="none" stroke="black" stroke-dasharray="5,2" points="167.25,-158 167.25,-225 333.5,-225 333.5,-158 167.25,-158"/>
<text text-anchor="middle" x="250.38" y="-207.7" font-family="Times,serif" font-size="14.00">bar[2.12]</text>
</g>
<!-- foo[2.10].suffix -->
<g id="node1" class="node">
<title>foo[2.10].suffix</title>
<polygon fill="white" stroke="black" points="139.25,-41.62 16,-41.62 16,-16.38 139.25,-16.38 139.25,-41.62"/>
<text text-anchor="middle" x="77.62" y="-24.32" font-family="Times,serif" font-size="14.00">foo[2.10].suffix</text>
</g>
<!-- bar[2.10].bigSuffix -->
<g id="node4" class="node">
<title>bar[2.10].bigSuffix</title>
<polygon fill="white" stroke="black" points="325.5,-41.62 175.25,-41.62 175.25,-16.38 325.5,-16.38 325.5,-41.62"/>
<text text-anchor="middle" x="250.38" y="-24.32" font-family="Times,serif" font-size="14.00">bar[2.10].bigSuffix</text>
</g>
<!-- foo[2.10].suffix&#45;&gt;bar[2.10].bigSuffix -->
<g id="edge1" class="edge">
<title>foo[2.10].suffix&#45;&gt;bar[2.10].bigSuffix</title>
<path fill="none" stroke="black" d="M139.31,-29C147.12,-29 155.24,-29 163.37,-29"/>
<polygon fill="black" stroke="black" points="163.33,-32.5 173.33,-29 163.33,-25.5 163.33,-32.5"/>
</g>
<!-- foo[2.11].suffix -->
<g id="node2" class="node">
<title>foo[2.11].suffix</title>
<polygon fill="white" stroke="black" points="139.25,-116.62 16,-116.62 16,-91.38 139.25,-91.38 139.25,-116.62"/>
<text text-anchor="middle" x="77.62" y="-99.33" font-family="Times,serif" font-size="14.00">foo[2.11].suffix</text>
</g>
<!-- bar[2.11].bigSuffix -->
<g id="node5" class="node">
<title>bar[2.11].bigSuffix</title>
<polygon fill="white" stroke="black" points="325.5,-116.62 175.25,-116.62 175.25,-91.38 325.5,-91.38 325.5,-116.62"/>
<text text-anchor="middle" x="250.38" y="-99.33" font-family="Times,serif" font-size="14.00">bar[2.11].bigSuffix</text>
</g>
<!-- foo[2.11].suffix&#45;&gt;bar[2.11].bigSuffix -->
<g id="edge2" class="edge">
<title>foo[2.11].suffix&#45;&gt;bar[2.11].bigSuffix</title>
<path fill="none" stroke="black" d="M139.31,-104C147.12,-104 155.24,-104 163.37,-104"/>
<polygon fill="black" stroke="black" points="163.33,-107.5 173.33,-104 163.33,-100.5 163.33,-107.5"/>
</g>
<!-- foo[2.12].suffix -->
<g id="node3" class="node">
<title>foo[2.12].suffix</title>
<polygon fill="white" stroke="black" points="139.25,-191.62 16,-191.62 16,-166.38 139.25,-166.38 139.25,-191.62"/>
<text text-anchor="middle" x="77.62" y="-174.32" font-family="Times,serif" font-size="14.00">foo[2.12].suffix</text>
</g>
<!-- bar[2.12].bigSuffix -->
<g id="node6" class="node">
<title>bar[2.12].bigSuffix</title>
<polygon fill="white" stroke="black" points="325.5,-191.62 175.25,-191.62 175.25,-166.38 325.5,-166.38 325.5,-191.62"/>
<text text-anchor="middle" x="250.38" y="-174.32" font-family="Times,serif" font-size="14.00">bar[2.12].bigSuffix</text>
</g>
<!-- foo[2.12].suffix&#45;&gt;bar[2.12].bigSuffix -->
<g id="edge3" class="edge">
<title>foo[2.12].suffix&#45;&gt;bar[2.12].bigSuffix</title>
<path fill="none" stroke="black" d="M139.31,-179C147.12,-179 155.24,-179 163.37,-179"/>
<polygon fill="black" stroke="black" points="163.33,-182.5 173.33,-179 163.33,-175.5 163.33,-182.5"/>
</g>
</g>
</svg>
