<?xml version="1.0" encoding="UTF-8" standalone="no"?>
<!DOCTYPE svg PUBLIC "-//W3C//DTD SVG 1.1//EN"
 "http://www.w3.org/Graphics/SVG/1.1/DTD/svg11.dtd">
<!-- Generated by graphviz version 9.0.0 (20230911.1827)
 -->
<!-- Title: G Pages: 1 -->
<svg width="387pt" height="167pt"
 viewBox="0.00 0.00 386.50 167.00" xmlns="http://www.w3.org/2000/svg" xmlns:xlink="http://www.w3.org/1999/xlink">
<g id="graph0" class="graph" transform="scale(1 1) rotate(0) translate(4 163)">
<title>G</title>
<polygon fill="white" stroke="none" points="-4,4 -4,-163 382.5,-163 382.5,4 -4,4"/>
<g id="clust1" class="cluster">
<title>cluster_0</title>
<polygon fill="none" stroke="black" stroke-dasharray="5,2" points="8,-8 8,-151 370.5,-151 370.5,-8 8,-8"/>
<text text-anchor="middle" x="189.25" y="-133.7" font-family="Times,serif" font-size="14.00">outer</text>
</g>
<g id="clust2" class="cluster">
<title>cluster_1</title>
<polygon fill="none" stroke="black" stroke-dasharray="5,2" points="16,-51 16,-118 362.5,-118 362.5,-51 16,-51"/>
<text text-anchor="middle" x="189.25" y="-100.7" font-family="Times,serif" font-size="14.00">outer.inner</text>
</g>
<!-- outer.inner.sources -->
<g id="node1" class="node">
<title>outer.inner.sources</title>
<polygon fill="white" stroke="black" points="176.5,-84.62 24,-84.62 24,-59.38 176.5,-59.38 176.5,-84.62"/>
<text text-anchor="middle" x="100.25" y="-67.33" font-family="Times,serif" font-size="14.00">outer.inner.sources</text>
</g>
<!-- outer.inner.target -->
<g id="node2" class="node">
<title>outer.inner.target</title>
<polygon fill="white" stroke="black" points="354.5,-84.62 212.5,-84.62 212.5,-59.38 354.5,-59.38 354.5,-84.62"/>
<text text-anchor="middle" x="283.5" y="-67.33" font-family="Times,serif" font-size="14.00">outer.inner.target</text>
</g>
<!-- outer.inner.sources&#45;&gt;outer.inner.target -->
<g id="edge1" class="edge">
<title>outer.inner.sources&#45;&gt;outer.inner.target</title>
<path fill="none" stroke="black" d="M176.8,-72C184.79,-72 192.94,-72 200.99,-72"/>
<polygon fill="black" stroke="black" points="200.77,-75.5 210.77,-72 200.77,-68.5 200.77,-75.5"/>
</g>
<!-- outer.sources -->
<g id="node3" class="node">
<title>outer.sources</title>
<polygon fill="white" stroke="black" points="156.25,-41.62 44.25,-41.62 44.25,-16.38 156.25,-16.38 156.25,-41.62"/>
<text text-anchor="middle" x="100.25" y="-24.32" font-family="Times,serif" font-size="14.00">outer.sources</text>
</g>
<!-- outer.target -->
<g id="node4" class="node">
<title>outer.target</title>
<polygon fill="white" stroke="black" points="334.25,-41.62 232.75,-41.62 232.75,-16.38 334.25,-16.38 334.25,-41.62"/>
<text text-anchor="middle" x="283.5" y="-24.32" font-family="Times,serif" font-size="14.00">outer.target</text>
</g>
<!-- outer.sources&#45;&gt;outer.target -->
<g id="edge2" class="edge">
<title>outer.sources&#45;&gt;outer.target</title>
<path fill="none" stroke="black" d="M156.62,-29C176.99,-29 200.19,-29 221.07,-29"/>
<polygon fill="black" stroke="black" points="220.89,-32.5 230.89,-29 220.89,-25.5 220.89,-32.5"/>
</g>
</g>
</svg>
