<?xml version="1.0" encoding="UTF-8" standalone="no"?>
<!DOCTYPE svg PUBLIC "-//W3C//DTD SVG 1.1//EN"
 "http://www.w3.org/Graphics/SVG/1.1/DTD/svg11.dtd">
<!-- Generated by graphviz version 9.0.0 (20230911.1827)
 -->
<!-- Title: G Pages: 1 -->
<svg width="154pt" height="167pt"
 viewBox="0.00 0.00 153.75 167.00" xmlns="http://www.w3.org/2000/svg" xmlns:xlink="http://www.w3.org/1999/xlink">
<g id="graph0" class="graph" transform="scale(1 1) rotate(0) translate(4 163)">
<title>G</title>
<polygon fill="white" stroke="none" points="-4,4 -4,-163 149.75,-163 149.75,4 -4,4"/>
<g id="clust1" class="cluster">
<title>cluster_0</title>
<polygon fill="none" stroke="black" stroke-dasharray="5,2" points="8,-8 8,-151 137.75,-151 137.75,-8 8,-8"/>
<text text-anchor="middle" x="72.88" y="-133.7" font-family="Times,serif" font-size="14.00">foo</text>
</g>
<g id="clust2" class="cluster">
<title>cluster_1</title>
<polygon fill="none" stroke="black" stroke-dasharray="5,2" points="16,-51 16,-118 129.75,-118 129.75,-51 16,-51"/>
<text text-anchor="middle" x="72.88" y="-100.7" font-family="Times,serif" font-size="14.00">foo.qux</text>
</g>
<!-- foo.qux.baz -->
<g id="node1" class="node">
<title>foo.qux.baz</title>
<polygon fill="white" stroke="black" points="121.75,-84.62 24,-84.62 24,-59.38 121.75,-59.38 121.75,-84.62"/>
<text text-anchor="middle" x="72.88" y="-67.33" font-family="Times,serif" font-size="14.00">foo.qux.baz</text>
</g>
<!-- foo.bar -->
<g id="node2" class="node">
<title>foo.bar</title>
<polygon fill="white" stroke="black" points="106,-41.62 39.75,-41.62 39.75,-16.38 106,-16.38 106,-41.62"/>
<text text-anchor="middle" x="72.88" y="-24.32" font-family="Times,serif" font-size="14.00">foo.bar</text>
</g>
</g>
</svg>
