<?xml version="1.0" encoding="UTF-8" standalone="no"?>
<!DOCTYPE svg PUBLIC "-//W3C//DTD SVG 1.1//EN"
 "http://www.w3.org/Graphics/SVG/1.1/DTD/svg11.dtd">
<!-- Generated by graphviz version 9.0.0 (20230911.1827)
 -->
<!-- Title: G Pages: 1 -->
<svg width="566pt" height="119pt"
 viewBox="0.00 0.00 565.75 119.25" xmlns="http://www.w3.org/2000/svg" xmlns:xlink="http://www.w3.org/1999/xlink">
<g id="graph0" class="graph" transform="scale(1 1) rotate(0) translate(4 115.25)">
<title>G</title>
<polygon fill="white" stroke="none" points="-4,4 -4,-115.25 561.75,-115.25 561.75,4 -4,4"/>
<!-- ivyDeps -->
<g id="node1" class="node">
<title>ivyDeps</title>
<polygon fill="none" stroke="black" points="73,-111.25 0,-111.25 0,-86 73,-86 73,-111.25"/>
<text text-anchor="middle" x="36.5" y="-93.95" font-family="Times,serif" font-size="14.00">ivyDeps</text>
</g>
<!-- generatedSources -->
<g id="node2" class="node">
<title>generatedSources</title>
<polygon fill="none" stroke="black" points="254.75,-111.25 109,-111.25 109,-86 254.75,-86 254.75,-111.25"/>
<text text-anchor="middle" x="181.88" y="-93.95" font-family="Times,serif" font-size="14.00">generatedSources</text>
</g>
<!-- ivyDeps&#45;&gt;generatedSources -->
<g id="edge1" class="edge">
<title>ivyDeps&#45;&gt;generatedSources</title>
<path fill="none" stroke="black" d="M73.31,-98.62C80.72,-98.62 88.83,-98.62 97.15,-98.62"/>
<polygon fill="black" stroke="black" points="97.08,-102.13 107.08,-98.63 97.08,-95.13 97.08,-102.13"/>
</g>
<!-- compile -->
<g id="node3" class="node">
<title>compile</title>
<polygon fill="none" stroke="white" points="388.88,-111.25 317.38,-111.25 317.38,-86 388.88,-86 388.88,-111.25"/>
<text text-anchor="middle" x="353.12" y="-93.95" font-family="Times,serif" font-size="14.00">compile</text>
</g>
<!-- generatedSources&#45;&gt;compile -->
<g id="edge2" class="edge">
<title>generatedSources&#45;&gt;compile</title>
<path fill="none" stroke="black" d="M255.14,-98.62C272.18,-98.62 289.91,-98.62 305.47,-98.62"/>
<polygon fill="black" stroke="black" points="305.39,-102.13 315.39,-98.63 305.39,-95.13 305.39,-102.13"/>
</g>
<!-- ... -->
<g id="node4" class="node">
<title>...</title>
<polygon fill="none" stroke="white" points="481,-89.25 451.5,-89.25 451.5,-64 481,-64 481,-89.25"/>
<text text-anchor="middle" x="466.25" y="-71.95" font-family="Times,serif" font-size="14.00">...</text>
</g>
<!-- compile&#45;&gt;... -->
<g id="edge3" class="edge">
<title>compile&#45;&gt;...</title>
<path fill="none" stroke="black" d="M389.29,-91.66C405.84,-88.39 425.21,-84.55 440.24,-81.58"/>
<polygon fill="black" stroke="black" points="440.62,-85.07 449.75,-79.69 439.26,-78.2 440.62,-85.07"/>
</g>
<!-- run -->
<g id="node8" class="node">
<title>run</title>
<polygon fill="none" stroke="white" points="557.75,-89.25 517,-89.25 517,-64 557.75,-64 557.75,-89.25"/>
<text text-anchor="middle" x="537.38" y="-71.95" font-family="Times,serif" font-size="14.00">run</text>
</g>
<!-- ...&#45;&gt;run -->
<g id="edge7" class="edge">
<title>...&#45;&gt;run</title>
<path fill="none" stroke="black" d="M481.24,-76.62C488.16,-76.62 496.8,-76.62 505.18,-76.62"/>
<polygon fill="black" stroke="black" points="505.13,-80.13 515.13,-76.63 505.13,-73.13 505.13,-80.13"/>
</g>
<!-- sources -->
<g id="node5" class="node">
<title>sources</title>
<polygon fill="none" stroke="white" points="71.88,-46.25 1.12,-46.25 1.12,-21 71.88,-21 71.88,-46.25"/>
<text text-anchor="middle" x="36.5" y="-28.95" font-family="Times,serif" font-size="14.00">sources</text>
</g>
<!-- lineCount -->
<g id="node6" class="node">
<title>lineCount</title>
<polygon fill="none" stroke="black" points="224.38,-46.25 139.38,-46.25 139.38,-21 224.38,-21 224.38,-46.25"/>
<text text-anchor="middle" x="181.88" y="-28.95" font-family="Times,serif" font-size="14.00">lineCount</text>
</g>
<!-- sources&#45;&gt;lineCount -->
<g id="edge4" class="edge">
<title>sources&#45;&gt;lineCount</title>
<path fill="none" stroke="black" d="M72.21,-33.62C88.88,-33.62 109.24,-33.62 127.8,-33.62"/>
<polygon fill="black" stroke="black" points="127.57,-37.13 137.57,-33.63 127.57,-30.13 127.57,-37.13"/>
</g>
<!-- forkArgs -->
<g id="node7" class="node">
<title>forkArgs</title>
<polygon fill="none" stroke="black" points="391.88,-68.25 314.38,-68.25 314.38,-43 391.88,-43 391.88,-68.25"/>
<text text-anchor="middle" x="353.12" y="-50.95" font-family="Times,serif" font-size="14.00">forkArgs</text>
</g>
<!-- lineCount&#45;&gt;forkArgs -->
<g id="edge5" class="edge">
<title>lineCount&#45;&gt;forkArgs</title>
<path fill="none" stroke="black" d="M224.71,-39.06C248.29,-42.13 277.88,-45.97 302.61,-49.19"/>
<polygon fill="black" stroke="black" points="302.08,-52.65 312.45,-50.47 302.98,-45.71 302.08,-52.65"/>
</g>
<!-- printLineCount -->
<g id="node9" class="node">
<title>printLineCount</title>
<polygon fill="none" stroke="black" points="415.5,-25.25 290.75,-25.25 290.75,0 415.5,0 415.5,-25.25"/>
<text text-anchor="middle" x="353.12" y="-7.95" font-family="Times,serif" font-size="14.00">printLineCount</text>
</g>
<!-- lineCount&#45;&gt;printLineCount -->
<g id="edge8" class="edge">
<title>lineCount&#45;&gt;printLineCount</title>
<path fill="none" stroke="black" d="M224.71,-28.43C241.09,-26.4 260.36,-24.01 278.9,-21.71"/>
<polygon fill="black" stroke="black" points="279.31,-25.19 288.81,-20.48 278.45,-18.24 279.31,-25.19"/>
</g>
<!-- forkArgs&#45;&gt;... -->
<g id="edge6" class="edge">
<title>forkArgs&#45;&gt;...</title>
<path fill="none" stroke="black" d="M392.37,-62.85C408.1,-65.83 425.89,-69.19 439.96,-71.85"/>
<polygon fill="black" stroke="black" points="439.25,-75.27 449.73,-73.69 440.55,-68.4 439.25,-75.27"/>
</g>
</g>
</svg>
