<?xml version="1.0" encoding="UTF-8" standalone="no"?>
<!DOCTYPE svg PUBLIC "-//W3C//DTD SVG 1.1//EN"
 "http://www.w3.org/Graphics/SVG/1.1/DTD/svg11.dtd">
<!-- Generated by graphviz version 9.0.0 (20230911.1827)
 -->
<!-- Title: G Pages: 1 -->
<svg width="621pt" height="76pt"
 viewBox="0.00 0.00 620.75 76.25" xmlns="http://www.w3.org/2000/svg" xmlns:xlink="http://www.w3.org/1999/xlink">
<g id="graph0" class="graph" transform="scale(1 1) rotate(0) translate(4 72.25)">
<title>G</title>
<polygon fill="white" stroke="none" points="-4,4 -4,-72.25 616.75,-72.25 616.75,4 -4,4"/>
<!-- src -->
<g id="node1" class="node">
<title>src</title>
<polygon fill="white" stroke="white" points="29.5,-68.25 0,-68.25 0,-43 29.5,-43 29.5,-68.25"/>
<text text-anchor="middle" x="14.75" y="-50.95" font-family="Times,serif" font-size="14.00">...</text>
</g>
<!-- allSourceFiles -->
<g id="node2" class="node">
<title>allSourceFiles</title>
<polygon fill="white" stroke="white" points="182.75,-68.25 65.5,-68.25 65.5,-43 182.75,-43 182.75,-68.25"/>
<text text-anchor="middle" x="124.12" y="-50.95" font-family="Times,serif" font-size="14.00">allSourceFiles</text>
</g>
<!-- src&#45;&gt;allSourceFiles -->
<g id="edge1" class="edge">
<title>src&#45;&gt;allSourceFiles</title>
<path fill="none" stroke="black" d="M29.79,-55.62C36.42,-55.62 44.86,-55.62 53.96,-55.62"/>
<polygon fill="black" stroke="black" points="53.79,-59.13 63.79,-55.63 53.79,-52.13 53.79,-59.13"/>
</g>
<!-- lineCount -->
<g id="node3" class="node">
<title>lineCount</title>
<polygon fill="white" stroke="black" points="303.75,-68.25 218.75,-68.25 218.75,-43 303.75,-43 303.75,-68.25"/>
<text text-anchor="middle" x="261.25" y="-50.95" font-family="Times,serif" font-size="14.00">lineCount</text>
</g>
<!-- allSourceFiles&#45;&gt;lineCount -->
<g id="edge2" class="edge">
<title>allSourceFiles&#45;&gt;lineCount</title>
<path fill="none" stroke="black" d="M183.21,-55.62C191.19,-55.62 199.35,-55.62 207.23,-55.62"/>
<polygon fill="black" stroke="black" points="207.01,-59.13 217.01,-55.63 207.01,-52.13 207.01,-59.13"/>
</g>
<!-- resources -->
<g id="node4" class="node">
<title>resources</title>
<polygon fill="white" stroke="black" points="448,-68.25 362.25,-68.25 362.25,-43 448,-43 448,-68.25"/>
<text text-anchor="middle" x="405.12" y="-50.95" font-family="Times,serif" font-size="14.00">resources</text>
</g>
<!-- lineCount&#45;&gt;resources -->
<g id="edge3" class="edge">
<title>lineCount&#45;&gt;resources</title>
<path fill="none" stroke="black" d="M304.05,-55.62C318.64,-55.62 335.22,-55.62 350.63,-55.62"/>
<polygon fill="black" stroke="black" points="350.62,-59.13 360.62,-55.63 350.62,-52.13 350.62,-59.13"/>
</g>
<!-- dest -->
<g id="node5" class="node">
<title>dest</title>
<polygon fill="white" stroke="white" points="536,-46.25 506.5,-46.25 506.5,-21 536,-21 536,-46.25"/>
<text text-anchor="middle" x="521.25" y="-28.95" font-family="Times,serif" font-size="14.00">...</text>
</g>
<!-- resources&#45;&gt;dest -->
<g id="edge4" class="edge">
<title>resources&#45;&gt;dest</title>
<path fill="none" stroke="black" d="M448.3,-47.5C464.01,-44.47 481.35,-41.12 495.06,-38.48"/>
<polygon fill="black" stroke="black" points="495.41,-41.98 504.57,-36.65 494.09,-35.1 495.41,-41.98"/>
</g>
<!-- run -->
<g id="node6" class="node">
<title>run</title>
<polygon fill="white" stroke="black" points="612.75,-46.25 572,-46.25 572,-21 612.75,-21 612.75,-46.25"/>
<text text-anchor="middle" x="592.38" y="-28.95" font-family="Times,serif" font-size="14.00">run</text>
</g>
<!-- dest&#45;&gt;run -->
<g id="edge5" class="edge">
<title>dest&#45;&gt;run</title>
<path fill="none" stroke="black" d="M536.24,-33.62C543.16,-33.62 551.8,-33.62 560.18,-33.62"/>
<polygon fill="black" stroke="black" points="560.13,-37.13 570.13,-33.63 560.13,-30.13 560.13,-37.13"/>
</g>
<!-- resources.super -->
<g id="node7" class="node">
<title>resources.super</title>
<polygon fill="none" stroke="black" stroke-dasharray="5,2" points="470.5,-25.25 339.75,-25.25 339.75,0 470.5,0 470.5,-25.25"/>
<text text-anchor="middle" x="405.12" y="-7.95" font-family="Times,serif" font-size="14.00">resources.super</text>
</g>
<!-- resources.super&#45;&gt;dest -->
<g id="edge6" class="edge">
<title>resources.super&#45;&gt;dest</title>
<path fill="none" stroke="black" stroke-dasharray="5,2" d="M470.86,-24.54C479.37,-26.1 487.64,-27.62 494.91,-28.96"/>
<polygon fill="black" stroke="black" points="494.1,-32.37 504.57,-30.74 495.37,-25.49 494.1,-32.37"/>
</g>
</g>
</svg>
