<?xml version="1.0" encoding="UTF-8" standalone="no"?>
<!DOCTYPE svg PUBLIC "-//W3C//DTD SVG 1.1//EN"
 "http://www.w3.org/Graphics/SVG/1.1/DTD/svg11.dtd">
<!-- Generated by graphviz version 9.0.0 (20230911.1827)
 -->
<!-- Title: G Pages: 1 -->
<svg width="434pt" height="217pt"
 viewBox="0.00 0.00 433.88 217.00" xmlns="http://www.w3.org/2000/svg" xmlns:xlink="http://www.w3.org/1999/xlink">
<g id="graph0" class="graph" transform="scale(1 1) rotate(0) translate(4 213)">
<title>G</title>
<polygon fill="white" stroke="none" points="-4,4 -4,-213 429.88,-213 429.88,4 -4,4"/>
<!-- root&#45;module -->
<g id="node1" class="node">
<title>root&#45;module</title>
<polygon fill="none" stroke="black" stroke-dasharray="5,2" points="225.12,-209 122.88,-209 122.88,-183.75 225.12,-183.75 225.12,-209"/>
<text text-anchor="middle" x="174" y="-191.7" font-family="Times,serif" font-size="14.00">root&#45;module</text>
</g>
<!-- outer -->
<g id="node2" class="node">
<title>outer</title>
<polygon fill="none" stroke="black" stroke-dasharray="5,2" points="201.12,-147.75 146.88,-147.75 146.88,-122.5 201.12,-122.5 201.12,-147.75"/>
<text text-anchor="middle" x="174" y="-130.45" font-family="Times,serif" font-size="14.00">outer</text>
</g>
<!-- root&#45;module&#45;&gt;outer -->
<g id="edge3" class="edge">
<title>root&#45;module&#45;&gt;outer</title>
<path fill="none" stroke="black" stroke-dasharray="5,2" d="M174,-183.38C174,-176.48 174,-167.56 174,-159.34"/>
<polygon fill="black" stroke="black" points="177.5,-159.61 174,-149.61 170.5,-159.61 177.5,-159.61"/>
</g>
<!-- outer.sources -->
<g id="node3" class="node">
<title>outer.sources</title>
<polygon fill="white" stroke="black" points="112,-86.5 0,-86.5 0,-61.25 112,-61.25 112,-86.5"/>
<text text-anchor="middle" x="56" y="-69.2" font-family="Times,serif" font-size="14.00">outer.sources</text>
</g>
<!-- outer&#45;&gt;outer.sources -->
<g id="edge7" class="edge">
<title>outer&#45;&gt;outer.sources</title>
<path fill="none" stroke="black" stroke-dasharray="5,2" d="M150.12,-122.13C132.85,-113.46 109.26,-101.62 90.02,-91.96"/>
<polygon fill="black" stroke="black" points="91.7,-88.89 81.2,-87.53 88.56,-95.14 91.7,-88.89"/>
</g>
<!-- outer.task -->
<g id="node4" class="node">
<title>outer.task</title>
<polygon fill="white" stroke="black" points="217.62,-86.5 130.38,-86.5 130.38,-61.25 217.62,-61.25 217.62,-86.5"/>
<text text-anchor="middle" x="174" y="-69.2" font-family="Times,serif" font-size="14.00">outer.task</text>
</g>
<!-- outer&#45;&gt;outer.task -->
<g id="edge8" class="edge">
<title>outer&#45;&gt;outer.task</title>
<path fill="none" stroke="black" stroke-dasharray="5,2" d="M174,-122.13C174,-115.23 174,-106.31 174,-98.09"/>
<polygon fill="black" stroke="black" points="177.5,-98.36 174,-88.36 170.5,-98.36 177.5,-98.36"/>
</g>
<!-- outer.inner -->
<g id="node7" class="node">
<title>outer.inner</title>
<polygon fill="none" stroke="black" stroke-dasharray="5,2" points="330.38,-86.5 235.62,-86.5 235.62,-61.25 330.38,-61.25 330.38,-86.5"/>
<text text-anchor="middle" x="283" y="-69.2" font-family="Times,serif" font-size="14.00">outer.inner</text>
</g>
<!-- outer&#45;&gt;outer.inner -->
<g id="edge4" class="edge">
<title>outer&#45;&gt;outer.inner</title>
<path fill="none" stroke="black" stroke-dasharray="5,2" d="M196.06,-122.13C211.87,-113.54 233.4,-101.84 251.08,-92.22"/>
<polygon fill="black" stroke="black" points="252.53,-95.42 259.65,-87.57 249.19,-89.27 252.53,-95.42"/>
</g>
<!-- outer.sources&#45;&gt;outer.task -->
<g id="edge1" class="edge">
<title>outer.sources&#45;&gt;outer.task</title>
<path fill="none" stroke="black" d="M112.23,-73.88C114.37,-73.88 116.51,-73.88 118.65,-73.88"/>
<polygon fill="black" stroke="black" points="118.57,-77.38 128.57,-73.88 118.57,-70.38 118.57,-77.38"/>
</g>
<!-- outer.inner.sources -->
<g id="node5" class="node">
<title>outer.inner.sources</title>
<polygon fill="white" stroke="black" points="280.25,-25.25 127.75,-25.25 127.75,0 280.25,0 280.25,-25.25"/>
<text text-anchor="middle" x="204" y="-7.95" font-family="Times,serif" font-size="14.00">outer.inner.sources</text>
</g>
<!-- outer.inner.task -->
<g id="node6" class="node">
<title>outer.inner.task</title>
<polygon fill="white" stroke="black" points="425.88,-25.25 298.12,-25.25 298.12,0 425.88,0 425.88,-25.25"/>
<text text-anchor="middle" x="362" y="-7.95" font-family="Times,serif" font-size="14.00">outer.inner.task</text>
</g>
<!-- outer.inner.sources&#45;&gt;outer.inner.task -->
<g id="edge2" class="edge">
<title>outer.inner.sources&#45;&gt;outer.inner.task</title>
<path fill="none" stroke="black" d="M280.53,-12.62C282.5,-12.62 284.47,-12.62 286.44,-12.62"/>
<polygon fill="black" stroke="black" points="286.2,-16.13 296.2,-12.63 286.2,-9.13 286.2,-16.13"/>
</g>
<!-- outer.inner&#45;&gt;outer.inner.sources -->
<g id="edge5" class="edge">
<title>outer.inner&#45;&gt;outer.inner.sources</title>
<path fill="none" stroke="black" stroke-dasharray="5,2" d="M267.01,-60.88C256.09,-52.69 241.4,-41.67 228.95,-32.34"/>
<polygon fill="black" stroke="black" points="231.27,-29.71 221.17,-26.51 227.07,-35.31 231.27,-29.71"/>
</g>
<!-- outer.inner&#45;&gt;outer.inner.task -->
<g id="edge6" class="edge">
<title>outer.inner&#45;&gt;outer.inner.task</title>
<path fill="none" stroke="black" stroke-dasharray="5,2" d="M298.99,-60.88C309.91,-52.69 324.6,-41.67 337.05,-32.34"/>
<polygon fill="black" stroke="black" points="338.93,-35.31 344.83,-26.51 334.73,-29.71 338.93,-35.31"/>
</g>
</g>
</svg>
