<?xml version="1.0" encoding="UTF-8" standalone="no"?>
<!DOCTYPE svg PUBLIC "-//W3C//DTD SVG 1.1//EN"
 "http://www.w3.org/Graphics/SVG/1.1/DTD/svg11.dtd">
<!-- Generated by graphviz version 9.0.0 (20230911.1827)
 -->
<!-- Title: G Pages: 1 -->
<svg width="652pt" height="241pt"
 viewBox="0.00 0.00 652.00 241.00" xmlns="http://www.w3.org/2000/svg" xmlns:xlink="http://www.w3.org/1999/xlink">
<g id="graph0" class="graph" transform="scale(1 1) rotate(0) translate(4 237)">
<title>G</title>
<polygon fill="white" stroke="none" points="-4,4 -4,-237 648,-237 648,4 -4,4"/>
<g id="clust1" class="cluster">
<title>cluster_6</title>
<polygon fill="none" stroke="black" stroke-dasharray="5,2" points="8,-8 8,-75 196,-75 196,-8 8,-8"/>
<text text-anchor="middle" x="102" y="-57.7" font-family="Times,serif" font-size="14.00">foo[2.12,native]</text>
</g>
<g id="clust2" class="cluster">
<title>cluster_3</title>
<polygon fill="none" stroke="black" stroke-dasharray="5,2" points="413.12,-83 413.12,-150 568.88,-150 568.88,-83 413.12,-83"/>
<text text-anchor="middle" x="491" y="-132.7" font-family="Times,serif" font-size="14.00">foo[2.10,js]</text>
</g>
<g id="clust3" class="cluster">
<title>cluster_4</title>
<polygon fill="none" stroke="black" stroke-dasharray="5,2" points="223.12,-83 223.12,-150 378.88,-150 378.88,-83 223.12,-83"/>
<text text-anchor="middle" x="301" y="-132.7" font-family="Times,serif" font-size="14.00">foo[2.11,js]</text>
</g>
<g id="clust4" class="cluster">
<title>cluster_5</title>
<polygon fill="none" stroke="black" stroke-dasharray="5,2" points="24.12,-83 24.12,-150 179.88,-150 179.88,-83 24.12,-83"/>
<text text-anchor="middle" x="102" y="-132.7" font-family="Times,serif" font-size="14.00">foo[2.12,js]</text>
</g>
<g id="clust5" class="cluster">
<title>cluster_0</title>
<polygon fill="none" stroke="black" stroke-dasharray="5,2" points="406,-158 406,-225 576,-225 576,-158 406,-158"/>
<text text-anchor="middle" x="491" y="-207.7" font-family="Times,serif" font-size="14.00">foo[2.10,jvm]</text>
</g>
<g id="clust6" class="cluster">
<title>cluster_1</title>
<polygon fill="none" stroke="black" stroke-dasharray="5,2" points="216,-158 216,-225 386,-225 386,-158 216,-158"/>
<text text-anchor="middle" x="301" y="-207.7" font-family="Times,serif" font-size="14.00">foo[2.11,jvmcomm</text>
</g>
<g id="clust7" class="cluster">
<title>cluster_2</title>
<polygon fill="none" stroke="black" stroke-dasharray="5,2" points="17,-158 17,-225 187,-225 187,-158 17,-158"/>
<text text-anchor="middle" x="102" y="-207.7" font-family="Times,serif" font-size="14.00">foo[2.12,jvm]</text>
</g>
<!-- foo[2.12,native].suffix -->
<g id="node1" class="node">
<title>foo[2.12,native].suffix</title>
<polygon fill="white" stroke="black" points="188,-41.62 16,-41.62 16,-16.38 188,-16.38 188,-41.62"/>
<text text-anchor="middle" x="102" y="-24.32" font-family="Times,serif" font-size="14.00">foo[2.12,native].suffix</text>
</g>
<!-- foo[2.10,js].suffix -->
<g id="node2" class="node">
<title>foo[2.10,js].suffix</title>
<polygon fill="white" stroke="black" points="560.88,-116.62 421.12,-116.62 421.12,-91.38 560.88,-91.38 560.88,-116.62"/>
<text text-anchor="middle" x="491" y="-99.33" font-family="Times,serif" font-size="14.00">foo[2.10,js].suffix</text>
</g>
<!-- foo[2.11,js].suffix -->
<g id="node3" class="node">
<title>foo[2.11,js].suffix</title>
<polygon fill="white" stroke="black" points="370.88,-116.62 231.12,-116.62 231.12,-91.38 370.88,-91.38 370.88,-116.62"/>
<text text-anchor="middle" x="301" y="-99.33" font-family="Times,serif" font-size="14.00">foo[2.11,js].suffix</text>
</g>
<!-- foo[2.11,js].suffix&#45;&gt;foo[2.10,js].suffix -->
<!-- foo[2.12,js].suffix -->
<g id="node4" class="node">
<title>foo[2.12,js].suffix</title>
<polygon fill="white" stroke="black" points="171.88,-116.62 32.12,-116.62 32.12,-91.38 171.88,-91.38 171.88,-116.62"/>
<text text-anchor="middle" x="102" y="-99.33" font-family="Times,serif" font-size="14.00">foo[2.12,js].suffix</text>
</g>
<!-- foo[2.12,js].suffix&#45;&gt;foo[2.11,js].suffix -->
<!-- foo[2.10,jvm].suffix -->
<g id="node5" class="node">
<title>foo[2.10,jvm].suffix</title>
<polygon fill="white" stroke="black" points="568,-191.62 414,-191.62 414,-166.38 568,-166.38 568,-191.62"/>
<text text-anchor="middle" x="491" y="-174.32" font-family="Times,serif" font-size="14.00">foo[2.10,jvm].suffix</text>
</g>
<!-- bar -->
<g id="node8" class="node">
<title>bar</title>
<polygon fill="white" stroke="black" points="644,-191.62 604,-191.62 604,-166.38 644,-166.38 644,-191.62"/>
<text text-anchor="middle" x="624" y="-174.32" font-family="Times,serif" font-size="14.00">bar</text>
</g>
<!-- foo[2.10,jvm].suffix&#45;&gt;bar -->
<g id="edge5" class="edge">
<title>foo[2.10,jvm].suffix&#45;&gt;bar</title>
<path fill="none" stroke="black" d="M568.2,-179C576.74,-179 585.04,-179 592.47,-179"/>
<polygon fill="black" stroke="black" points="592.21,-182.5 602.21,-179 592.21,-175.5 592.21,-182.5"/>
</g>
<!-- foo[2.11,jvm].suffix -->
<g id="node6" class="node">
<title>foo[2.11,jvm].suffix</title>
<polygon fill="white" stroke="black" points="378,-191.62 224,-191.62 224,-166.38 378,-166.38 378,-191.62"/>
<text text-anchor="middle" x="301" y="-174.32" font-family="Times,serif" font-size="14.00">foo[2.11,jvm].suffix</text>
</g>
<!-- foo[2.11,jvm].suffix&#45;&gt;foo[2.10,jvm].suffix -->
<!-- foo[2.12,jvm].suffix -->
<g id="node7" class="node">
<title>foo[2.12,jvm].suffix</title>
<polygon fill="white" stroke="black" points="179,-191.62 25,-191.62 25,-166.38 179,-166.38 179,-191.62"/>
<text text-anchor="middle" x="102" y="-174.32" font-family="Times,serif" font-size="14.00">foo[2.12,jvm].suffix</text>
</g>
<!-- foo[2.12,jvm].suffix&#45;&gt;foo[2.11,jvm].suffix -->
</g>
</svg>
