<?xml version="1.0" encoding="UTF-8" standalone="no"?>
<!DOCTYPE svg PUBLIC "-//W3C//DTD SVG 1.1//EN"
 "http://www.w3.org/Graphics/SVG/1.1/DTD/svg11.dtd">
<!-- Generated by graphviz version 9.0.0 (20230911.1827)
 -->
<!-- Title: G Pages: 1 -->
<svg width="276pt" height="252pt"
 viewBox="0.00 0.00 276.00 252.00" xmlns="http://www.w3.org/2000/svg" xmlns:xlink="http://www.w3.org/1999/xlink">
<g id="graph0" class="graph" transform="scale(1 1) rotate(0) translate(4 248)">
<title>G</title>
<polygon fill="white" stroke="none" points="-4,4 -4,-248 272,-248 272,4 -4,4"/>
<g id="clust1" class="cluster">
<title>cluster_1</title>
<polygon fill="none" stroke="black" stroke-dasharray="5,2" points="30.5,-8 30.5,-118 259.25,-118 259.25,-8 30.5,-8"/>
<text text-anchor="middle" x="144.88" y="-100.7" font-family="Times,serif" font-size="14.00">foo2</text>
</g>
<g id="clust2" class="cluster">
<title>cluster_0</title>
<polygon fill="none" stroke="black" stroke-dasharray="5,2" points="8,-126 8,-236 260,-236 260,-126 8,-126"/>
<text text-anchor="middle" x="134" y="-218.7" font-family="Times,serif" font-size="14.00">foo1</text>
</g>
<!-- foo2.bar -->
<g id="node1" class="node">
<title>foo2.bar</title>
<polygon fill="white" stroke="black" points="114.88,-84.62 39.62,-84.62 39.62,-59.38 114.88,-59.38 114.88,-84.62"/>
<text text-anchor="middle" x="77.25" y="-67.33" font-family="Times,serif" font-size="14.00">foo2.bar</text>
</g>
<!-- foo2.qux -->
<g id="node2" class="node">
<title>foo2.qux</title>
<polygon fill="white" stroke="black" points="116,-41.62 38.5,-41.62 38.5,-16.38 116,-16.38 116,-41.62"/>
<text text-anchor="middle" x="77.25" y="-24.32" font-family="Times,serif" font-size="14.00">foo2.qux</text>
</g>
<!-- foo2.baz -->
<g id="node3" class="node">
<title>foo2.baz</title>
<polygon fill="white" stroke="black" points="251.25,-41.62 175.25,-41.62 175.25,-16.38 251.25,-16.38 251.25,-41.62"/>
<text text-anchor="middle" x="213.25" y="-24.32" font-family="Times,serif" font-size="14.00">foo2.baz</text>
</g>
<!-- foo2.qux&#45;&gt;foo2.baz -->
<g id="edge1" class="edge">
<title>foo2.qux&#45;&gt;foo2.baz</title>
<path fill="none" stroke="black" d="M116.29,-29C131.11,-29 148.27,-29 163.94,-29"/>
<polygon fill="black" stroke="black" points="163.53,-32.5 173.53,-29 163.53,-25.5 163.53,-32.5"/>
</g>
<!-- foo1.bar -->
<g id="node4" class="node">
<title>foo1.bar</title>
<polygon fill="white" stroke="black" points="114.88,-202.62 39.62,-202.62 39.62,-177.38 114.88,-177.38 114.88,-202.62"/>
<text text-anchor="middle" x="77.25" y="-185.32" font-family="Times,serif" font-size="14.00">foo1.bar</text>
</g>
<!-- foo1.qux.super -->
<g id="node5" class="node">
<title>foo1.qux.super</title>
<polygon fill="white" stroke="black" points="138.5,-159.62 16,-159.62 16,-134.38 138.5,-134.38 138.5,-159.62"/>
<text text-anchor="middle" x="77.25" y="-142.32" font-family="Times,serif" font-size="14.00">foo1.qux.super</text>
</g>
<!-- foo1.qux -->
<g id="node6" class="node">
<title>foo1.qux</title>
<polygon fill="white" stroke="black" points="252,-159.62 174.5,-159.62 174.5,-134.38 252,-134.38 252,-159.62"/>
<text text-anchor="middle" x="213.25" y="-142.32" font-family="Times,serif" font-size="14.00">foo1.qux</text>
</g>
<!-- foo1.qux.super&#45;&gt;foo1.qux -->
<g id="edge2" class="edge">
<title>foo1.qux.super&#45;&gt;foo1.qux</title>
<path fill="none" stroke="black" d="M138.98,-147C146.98,-147 155.1,-147 162.88,-147"/>
<polygon fill="black" stroke="black" points="162.85,-150.5 172.85,-147 162.85,-143.5 162.85,-150.5"/>
</g>
</g>
</svg>
