<?xml version="1.0" encoding="UTF-8" standalone="no"?>
<!DOCTYPE svg PUBLIC "-//W3C//DTD SVG 1.1//EN"
 "http://www.w3.org/Graphics/SVG/1.1/DTD/svg11.dtd">
<!-- Generated by graphviz version 9.0.0 (20230911.1827)
 -->
<!-- Title: G Pages: 1 -->
<svg width="981pt" height="370pt"
 viewBox="0.00 0.00 981.25 370.00" xmlns="http://www.w3.org/2000/svg" xmlns:xlink="http://www.w3.org/1999/xlink">
<g id="graph0" class="graph" transform="scale(1 1) rotate(0) translate(4 366)">
<title>G</title>
<g id="clust1" class="cluster">
<title>cluster_0</title>
<polygon fill="none" stroke="black" stroke-dasharray="5,2" points="8,-244 8,-354 659.5,-354 659.5,-244 8,-244"/>
<text text-anchor="middle" x="333.75" y="-336.7" font-family="Times,serif" font-size="14.00">foo.bar</text>
</g>
<g id="clust2" class="cluster">
<title>cluster_1</title>
<polygon fill="none" stroke="black" stroke-dasharray="5,2" points="181.88,-126 181.88,-236 810.12,-236 810.12,-126 181.88,-126"/>
<text text-anchor="middle" x="496" y="-218.7" font-family="Times,serif" font-size="14.00">foo</text>
</g>
<g id="clust3" class="cluster">
<title>cluster_2</title>
<polygon fill="none" stroke="black" stroke-dasharray="5,2" points="349.38,-8 349.38,-118 965.25,-118 965.25,-8 349.38,-8"/>
<text text-anchor="middle" x="657.31" y="-100.7" font-family="Times,serif" font-size="14.00">qux</text>
</g>
<!-- foo.bar.sources -->
<g id="node1" class="node">
<title>foo.bar.sources</title>
<polygon fill="white" stroke="black" points="140,-277.62 16,-277.62 16,-252.38 140,-252.38 140,-277.62"/>
<text text-anchor="middle" x="78" y="-260.32" font-family="Times,serif" font-size="14.00">foo.bar.sources</text>
</g>
<!-- foo.bar.compile -->
<g id="node2" class="node">
<title>foo.bar.compile</title>
<polygon fill="white" stroke="black" points="300.75,-277.62 176,-277.62 176,-252.38 300.75,-252.38 300.75,-277.62"/>
<text text-anchor="middle" x="238.38" y="-260.32" font-family="Times,serif" font-size="14.00">foo.bar.compile</text>
</g>
<!-- foo.bar.sources&#45;&gt;foo.bar.compile -->
<g id="edge1" class="edge">
<title>foo.bar.sources&#45;&gt;foo.bar.compile</title>
<path fill="none" stroke="black" d="M140.23,-265C148.1,-265 156.22,-265 164.25,-265"/>
<polygon fill="black" stroke="black" points="164.01,-268.5 174.01,-265 164.01,-261.5 164.01,-268.5"/>
</g>
<!-- foo.bar.classPath -->
<g id="node3" class="node">
<title>foo.bar.classPath</title>
<polygon fill="white" stroke="black" points="476.5,-277.62 339.75,-277.62 339.75,-252.38 476.5,-252.38 476.5,-277.62"/>
<text text-anchor="middle" x="408.12" y="-260.32" font-family="Times,serif" font-size="14.00">foo.bar.classPath</text>
</g>
<!-- foo.bar.compile&#45;&gt;foo.bar.classPath -->
<g id="edge2" class="edge">
<title>foo.bar.compile&#45;&gt;foo.bar.classPath</title>
<path fill="none" stroke="black" d="M300.89,-265C309.7,-265 318.86,-265 327.95,-265"/>
<polygon fill="black" stroke="black" points="327.88,-268.5 337.88,-265 327.88,-261.5 327.88,-268.5"/>
</g>
<!-- foo.bar.assembly -->
<g id="node4" class="node">
<title>foo.bar.assembly</title>
<polygon fill="white" stroke="black" points="651.5,-298.62 515.5,-298.62 515.5,-273.38 651.5,-273.38 651.5,-298.62"/>
<text text-anchor="middle" x="583.5" y="-281.32" font-family="Times,serif" font-size="14.00">foo.bar.assembly</text>
</g>
<!-- foo.bar.classPath&#45;&gt;foo.bar.assembly -->
<g id="edge3" class="edge">
<title>foo.bar.classPath&#45;&gt;foo.bar.assembly</title>
<path fill="none" stroke="black" d="M476.65,-273.18C485.54,-274.26 494.72,-275.37 503.78,-276.46"/>
<polygon fill="black" stroke="black" points="503.31,-279.93 513.65,-277.66 504.15,-272.98 503.31,-279.93"/>
</g>
<!-- foo.compile -->
<g id="node6" class="node">
<title>foo.compile</title>
<polygon fill="white" stroke="black" points="457,-159.62 359.25,-159.62 359.25,-134.38 457,-134.38 457,-159.62"/>
<text text-anchor="middle" x="408.12" y="-142.32" font-family="Times,serif" font-size="14.00">foo.compile</text>
</g>
<!-- foo.bar.classPath&#45;&gt;foo.compile -->
<g id="edge5" class="edge">
<title>foo.bar.classPath&#45;&gt;foo.compile</title>
<path fill="none" stroke="black" d="M408.12,-252.27C408.12,-225.21 408.12,-198.15 408.12,-171.09"/>
<polygon fill="black" stroke="black" points="411.63,-171.42 408.13,-161.42 404.63,-171.42 411.63,-171.42"/>
</g>
<!-- foo.classPath -->
<g id="node7" class="node">
<title>foo.classPath</title>
<polygon fill="white" stroke="black" points="638.38,-159.62 528.62,-159.62 528.62,-134.38 638.38,-134.38 638.38,-159.62"/>
<text text-anchor="middle" x="583.5" y="-142.32" font-family="Times,serif" font-size="14.00">foo.classPath</text>
</g>
<!-- foo.bar.classPath&#45;&gt;foo.classPath -->
<g id="edge6" class="edge">
<title>foo.bar.classPath&#45;&gt;foo.classPath</title>
<path fill="none" stroke="black" d="M460.55,-252.04C467.41,-248.85 473.96,-244.9 479.5,-240 506.3,-216.3 488.26,-191.2 515.5,-168 516.45,-167.19 517.43,-166.41 518.44,-165.66"/>
<polygon fill="black" stroke="black" points="520.18,-168.71 526.87,-160.49 516.51,-162.74 520.18,-168.71"/>
</g>
<!-- foo.bar.mainClass -->
<g id="node5" class="node">
<title>foo.bar.mainClass</title>
<polygon fill="white" stroke="black" points="479.5,-320.62 336.75,-320.62 336.75,-295.38 479.5,-295.38 479.5,-320.62"/>
<text text-anchor="middle" x="408.12" y="-303.32" font-family="Times,serif" font-size="14.00">foo.bar.mainClass</text>
</g>
<!-- foo.bar.mainClass&#45;&gt;foo.bar.assembly -->
<g id="edge4" class="edge">
<title>foo.bar.mainClass&#45;&gt;foo.bar.assembly</title>
<path fill="none" stroke="black" d="M479.89,-299.02C487.78,-298.02 495.86,-296.99 503.84,-295.98"/>
<polygon fill="black" stroke="black" points="504.05,-299.48 513.53,-294.75 503.17,-292.54 504.05,-299.48"/>
</g>
<!-- foo.compile&#45;&gt;foo.classPath -->
<g id="edge8" class="edge">
<title>foo.compile&#45;&gt;foo.classPath</title>
<path fill="none" stroke="black" d="M457.42,-147C475.85,-147 497.17,-147 516.94,-147"/>
<polygon fill="black" stroke="black" points="516.85,-150.5 526.85,-147 516.85,-143.5 516.85,-150.5"/>
</g>
<!-- foo.assembly -->
<g id="node9" class="node">
<title>foo.assembly</title>
<polygon fill="white" stroke="black" points="802.12,-180.62 693.12,-180.62 693.12,-155.38 802.12,-155.38 802.12,-180.62"/>
<text text-anchor="middle" x="747.62" y="-163.32" font-family="Times,serif" font-size="14.00">foo.assembly</text>
</g>
<!-- foo.classPath&#45;&gt;foo.assembly -->
<g id="edge9" class="edge">
<title>foo.classPath&#45;&gt;foo.assembly</title>
<path fill="none" stroke="black" d="M638.49,-153.99C652.3,-155.78 667.29,-157.72 681.59,-159.58"/>
<polygon fill="black" stroke="black" points="681.01,-163.03 691.37,-160.84 681.91,-156.09 681.01,-163.03"/>
</g>
<!-- qux.compile -->
<g id="node13" class="node">
<title>qux.compile</title>
<polygon fill="white" stroke="black" points="634.62,-41.62 532.38,-41.62 532.38,-16.38 634.62,-16.38 634.62,-41.62"/>
<text text-anchor="middle" x="583.5" y="-24.32" font-family="Times,serif" font-size="14.00">qux.compile</text>
</g>
<!-- foo.classPath&#45;&gt;qux.compile -->
<g id="edge12" class="edge">
<title>foo.classPath&#45;&gt;qux.compile</title>
<path fill="none" stroke="black" d="M583.5,-134.27C583.5,-107.21 583.5,-80.15 583.5,-53.09"/>
<polygon fill="black" stroke="black" points="587,-53.42 583.5,-43.42 580,-53.42 587,-53.42"/>
</g>
<!-- qux.classPath -->
<g id="node14" class="node">
<title>qux.classPath</title>
<polygon fill="white" stroke="black" points="804.75,-41.62 690.5,-41.62 690.5,-16.38 804.75,-16.38 804.75,-41.62"/>
<text text-anchor="middle" x="747.62" y="-24.32" font-family="Times,serif" font-size="14.00">qux.classPath</text>
</g>
<!-- foo.classPath&#45;&gt;qux.classPath -->
<g id="edge13" class="edge">
<title>foo.classPath&#45;&gt;qux.classPath</title>
<path fill="none" stroke="black" d="M638.58,-135.46C646.25,-132.07 653.54,-127.68 659.5,-122 684.37,-98.33 662.87,-73.92 687.5,-50 688,-49.51 688.51,-49.04 689.04,-48.58"/>
<polygon fill="black" stroke="black" points="690.98,-51.49 697.11,-42.85 686.93,-45.78 690.98,-51.49"/>
</g>
<!-- foo.sources -->
<g id="node8" class="node">
<title>foo.sources</title>
<polygon fill="white" stroke="black" points="286.88,-159.62 189.88,-159.62 189.88,-134.38 286.88,-134.38 286.88,-159.62"/>
<text text-anchor="middle" x="238.38" y="-142.32" font-family="Times,serif" font-size="14.00">foo.sources</text>
</g>
<!-- foo.sources&#45;&gt;foo.compile -->
<g id="edge7" class="edge">
<title>foo.sources&#45;&gt;foo.compile</title>
<path fill="none" stroke="black" d="M287,-147C305.78,-147 327.57,-147 347.4,-147"/>
<polygon fill="black" stroke="black" points="347.29,-150.5 357.29,-147 347.29,-143.5 347.29,-150.5"/>
</g>
<!-- foo.mainClass -->
<g id="node10" class="node">
<title>foo.mainClass</title>
<polygon fill="white" stroke="black" points="641.38,-202.62 525.62,-202.62 525.62,-177.38 641.38,-177.38 641.38,-202.62"/>
<text text-anchor="middle" x="583.5" y="-185.32" font-family="Times,serif" font-size="14.00">foo.mainClass</text>
</g>
<!-- foo.mainClass&#45;&gt;foo.assembly -->
<g id="edge10" class="edge">
<title>foo.mainClass&#45;&gt;foo.assembly</title>
<path fill="none" stroke="black" d="M641.66,-182.24C654.49,-180.5 668.2,-178.64 681.34,-176.86"/>
<polygon fill="black" stroke="black" points="681.76,-180.33 691.2,-175.52 680.82,-173.4 681.76,-180.33"/>
</g>
<!-- qux.mainClass -->
<g id="node11" class="node">
<title>qux.mainClass</title>
<polygon fill="white" stroke="black" points="807.75,-84.62 687.5,-84.62 687.5,-59.38 807.75,-59.38 807.75,-84.62"/>
<text text-anchor="middle" x="747.62" y="-67.33" font-family="Times,serif" font-size="14.00">qux.mainClass</text>
</g>
<!-- qux.assembly -->
<g id="node12" class="node">
<title>qux.assembly</title>
<polygon fill="white" stroke="black" points="957.25,-62.62 843.75,-62.62 843.75,-37.38 957.25,-37.38 957.25,-62.62"/>
<text text-anchor="middle" x="900.5" y="-45.33" font-family="Times,serif" font-size="14.00">qux.assembly</text>
</g>
<!-- qux.mainClass&#45;&gt;qux.assembly -->
<g id="edge11" class="edge">
<title>qux.mainClass&#45;&gt;qux.assembly</title>
<path fill="none" stroke="black" d="M807.82,-63.37C815.79,-62.21 824.01,-61.01 832.11,-59.83"/>
<polygon fill="black" stroke="black" points="832.54,-63.3 841.93,-58.39 831.53,-56.37 832.54,-63.3"/>
</g>
<!-- qux.compile&#45;&gt;qux.classPath -->
<g id="edge15" class="edge">
<title>qux.compile&#45;&gt;qux.classPath</title>
<path fill="none" stroke="black" d="M634.91,-29C648.83,-29 664.18,-29 678.91,-29"/>
<polygon fill="black" stroke="black" points="678.51,-32.5 688.51,-29 678.51,-25.5 678.51,-32.5"/>
</g>
<!-- qux.classPath&#45;&gt;qux.assembly -->
<g id="edge16" class="edge">
<title>qux.classPath&#45;&gt;qux.assembly</title>
<path fill="none" stroke="black" d="M805.23,-36.88C813.99,-38.1 823.12,-39.37 832.09,-40.62"/>
<polygon fill="black" stroke="black" points="831.44,-44.06 841.83,-41.97 832.4,-37.13 831.44,-44.06"/>
</g>
<!-- qux.sources -->
<g id="node15" class="node">
<title>qux.sources</title>
<polygon fill="white" stroke="black" points="458.88,-41.62 357.38,-41.62 357.38,-16.38 458.88,-16.38 458.88,-41.62"/>
<text text-anchor="middle" x="408.12" y="-24.32" font-family="Times,serif" font-size="14.00">qux.sources</text>
</g>
<!-- qux.sources&#45;&gt;qux.compile -->
<g id="edge14" class="edge">
<title>qux.sources&#45;&gt;qux.compile</title>
<path fill="none" stroke="black" d="M459.27,-29C478.51,-29 500.68,-29 520.87,-29"/>
<polygon fill="black" stroke="black" points="520.65,-32.5 530.65,-29 520.65,-25.5 520.65,-32.5"/>
</g>
</g>
</svg>
