<?xml version="1.0" encoding="UTF-8" standalone="no"?>
<!DOCTYPE svg PUBLIC "-//W3C//DTD SVG 1.1//EN"
 "http://www.w3.org/Graphics/SVG/1.1/DTD/svg11.dtd">
<!-- Generated by graphviz version 9.0.0 (20230911.1827)
 -->
<!-- Title: G Pages: 1 -->
<svg width="866pt" height="252pt"
 viewBox="0.00 0.00 865.75 252.00" xmlns="http://www.w3.org/2000/svg" xmlns:xlink="http://www.w3.org/1999/xlink">
<g id="graph0" class="graph" transform="scale(1 1) rotate(0) translate(4 248)">
<title>G</title>
<g id="clust1" class="cluster">
<title>cluster_0</title>
<polygon fill="none" stroke="black" stroke-dasharray="5,2" points="8,-126 8,-236 551.5,-236 551.5,-126 8,-126"/>
<text text-anchor="middle" x="279.75" y="-218.7" font-family="Times,serif" font-size="14.00">foo</text>
</g>
<g id="clust2" class="cluster">
<title>cluster_1</title>
<polygon fill="none" stroke="black" stroke-dasharray="5,2" points="283.75,-8 283.75,-118 849.75,-118 849.75,-8 283.75,-8"/>
<text text-anchor="middle" x="566.75" y="-100.7" font-family="Times,serif" font-size="14.00">bar</text>
</g>
<!-- foo.sources -->
<g id="node1" class="node">
<title>foo.sources</title>
<polygon fill="white" stroke="black" points="113,-159.62 16,-159.62 16,-134.38 113,-134.38 113,-159.62"/>
<text text-anchor="middle" x="64.5" y="-142.32" font-family="Times,serif" font-size="14.00">foo.sources</text>
</g>
<!-- foo.compile -->
<g id="node2" class="node">
<title>foo.compile</title>
<polygon fill="white" stroke="black" points="246.75,-159.62 149,-159.62 149,-134.38 246.75,-134.38 246.75,-159.62"/>
<text text-anchor="middle" x="197.88" y="-142.32" font-family="Times,serif" font-size="14.00">foo.compile</text>
</g>
<!-- foo.sources&#45;&gt;foo.compile -->
<g id="edge1" class="edge">
<title>foo.sources&#45;&gt;foo.compile</title>
<path fill="none" stroke="black" d="M113.3,-147C121.18,-147 129.43,-147 137.55,-147"/>
<polygon fill="black" stroke="black" points="137.38,-150.5 147.38,-147 137.38,-143.5 137.38,-150.5"/>
</g>
<!-- foo.classPath -->
<g id="node3" class="node">
<title>foo.classPath</title>
<polygon fill="white" stroke="black" points="395.5,-159.62 285.75,-159.62 285.75,-134.38 395.5,-134.38 395.5,-159.62"/>
<text text-anchor="middle" x="340.62" y="-142.32" font-family="Times,serif" font-size="14.00">foo.classPath</text>
</g>
<!-- foo.compile&#45;&gt;foo.classPath -->
<g id="edge2" class="edge">
<title>foo.compile&#45;&gt;foo.classPath</title>
<path fill="none" stroke="black" d="M246.92,-147C255.65,-147 264.9,-147 274.04,-147"/>
<polygon fill="black" stroke="black" points="274,-150.5 284,-147 274,-143.5 274,-150.5"/>
</g>
<!-- foo.assembly -->
<g id="node4" class="node">
<title>foo.assembly</title>
<polygon fill="white" stroke="black" points="543.5,-192.62 434.5,-192.62 434.5,-167.38 543.5,-167.38 543.5,-192.62"/>
<text text-anchor="middle" x="489" y="-175.32" font-family="Times,serif" font-size="14.00">foo.assembly</text>
</g>
<!-- foo.classPath&#45;&gt;foo.assembly -->
<g id="edge3" class="edge">
<title>foo.classPath&#45;&gt;foo.assembly</title>
<path fill="none" stroke="black" d="M395.71,-159.19C404.63,-161.2 413.95,-163.31 423.1,-165.37"/>
<polygon fill="black" stroke="black" points="422.13,-168.74 432.66,-167.52 423.67,-161.91 422.13,-168.74"/>
</g>
<!-- bar.compile -->
<g id="node6" class="node">
<title>bar.compile</title>
<polygon fill="white" stroke="black" points="538.25,-84.62 439.75,-84.62 439.75,-59.38 538.25,-59.38 538.25,-84.62"/>
<text text-anchor="middle" x="489" y="-67.33" font-family="Times,serif" font-size="14.00">bar.compile</text>
</g>
<!-- foo.classPath&#45;&gt;bar.compile -->
<g id="edge5" class="edge">
<title>foo.classPath&#45;&gt;bar.compile</title>
<path fill="none" stroke="black" d="M372.87,-133.91C381.26,-130.21 390.29,-126.08 398.5,-122 418.03,-112.28 439.37,-100.41 456.32,-90.67"/>
<polygon fill="black" stroke="black" points="458.03,-93.72 464.93,-85.68 454.53,-87.66 458.03,-93.72"/>
</g>
<!-- bar.classPath -->
<g id="node7" class="node">
<title>bar.classPath</title>
<polygon fill="white" stroke="black" points="693,-84.62 582.5,-84.62 582.5,-59.38 693,-59.38 693,-84.62"/>
<text text-anchor="middle" x="637.75" y="-67.33" font-family="Times,serif" font-size="14.00">bar.classPath</text>
</g>
<!-- foo.classPath&#45;&gt;bar.classPath -->
<g id="edge6" class="edge">
<title>foo.classPath&#45;&gt;bar.classPath</title>
<path fill="none" stroke="black" d="M393.83,-133.9C436.3,-123.22 497.79,-107.71 551.5,-94 559.15,-92.05 567.18,-89.99 575.14,-87.94"/>
<polygon fill="black" stroke="black" points="576,-91.33 584.81,-85.45 574.25,-84.55 576,-91.33"/>
</g>
<!-- foo.mainClass -->
<g id="node5" class="node">
<title>foo.mainClass</title>
<polygon fill="white" stroke="black" points="398.5,-202.62 282.75,-202.62 282.75,-177.38 398.5,-177.38 398.5,-202.62"/>
<text text-anchor="middle" x="340.62" y="-185.32" font-family="Times,serif" font-size="14.00">foo.mainClass</text>
</g>
<!-- foo.mainClass&#45;&gt;foo.assembly -->
<g id="edge4" class="edge">
<title>foo.mainClass&#45;&gt;foo.assembly</title>
<path fill="none" stroke="black" d="M398.64,-186.11C406.6,-185.56 414.84,-185 422.94,-184.44"/>
<polygon fill="black" stroke="black" points="423.01,-187.95 432.75,-183.77 422.53,-180.96 423.01,-187.95"/>
</g>
<!-- bar.compile&#45;&gt;bar.classPath -->
<g id="edge8" class="edge">
<title>bar.compile&#45;&gt;bar.classPath</title>
<path fill="none" stroke="black" d="M538.46,-72C548.87,-72 560.04,-72 570.98,-72"/>
<polygon fill="black" stroke="black" points="570.74,-75.5 580.74,-72 570.74,-68.5 570.74,-75.5"/>
</g>
<!-- bar.assembly -->
<g id="node9" class="node">
<title>bar.assembly</title>
<polygon fill="white" stroke="black" points="841.75,-62.62 732,-62.62 732,-37.38 841.75,-37.38 841.75,-62.62"/>
<text text-anchor="middle" x="786.88" y="-45.33" font-family="Times,serif" font-size="14.00">bar.assembly</text>
</g>
<!-- bar.classPath&#45;&gt;bar.assembly -->
<g id="edge9" class="edge">
<title>bar.classPath&#45;&gt;bar.assembly</title>
<path fill="none" stroke="black" d="M693.12,-63.87C702.08,-62.53 711.45,-61.13 720.64,-59.75"/>
<polygon fill="black" stroke="black" points="720.86,-63.26 730.24,-58.32 719.83,-56.34 720.86,-63.26"/>
</g>
<!-- bar.sources -->
<g id="node8" class="node">
<title>bar.sources</title>
<polygon fill="white" stroke="black" points="389.5,-84.62 291.75,-84.62 291.75,-59.38 389.5,-59.38 389.5,-84.62"/>
<text text-anchor="middle" x="340.62" y="-67.33" font-family="Times,serif" font-size="14.00">bar.sources</text>
</g>
<!-- bar.sources&#45;&gt;bar.compile -->
<g id="edge7" class="edge">
<title>bar.sources&#45;&gt;bar.compile</title>
<path fill="none" stroke="black" d="M389.96,-72C402.14,-72 415.36,-72 428.03,-72"/>
<polygon fill="black" stroke="black" points="427.95,-75.5 437.95,-72 427.95,-68.5 427.95,-75.5"/>
</g>
<!-- bar.mainClass -->
<g id="node10" class="node">
<title>bar.mainClass</title>
<polygon fill="white" stroke="black" points="696,-41.62 579.5,-41.62 579.5,-16.38 696,-16.38 696,-41.62"/>
<text text-anchor="middle" x="637.75" y="-24.32" font-family="Times,serif" font-size="14.00">bar.mainClass</text>
</g>
<!-- bar.mainClass&#45;&gt;bar.assembly -->
<g id="edge10" class="edge">
<title>bar.mainClass&#45;&gt;bar.assembly</title>
<path fill="none" stroke="black" d="M696.48,-37.24C704.35,-38.36 712.49,-39.53 720.49,-40.67"/>
<polygon fill="black" stroke="black" points="719.79,-44.1 730.18,-42.05 720.78,-37.17 719.79,-44.1"/>
</g>
</g>
</svg>
