<?xml version="1.0" encoding="UTF-8" standalone="no"?>
<!DOCTYPE svg PUBLIC "-//W3C//DTD SVG 1.1//EN"
 "http://www.w3.org/Graphics/SVG/1.1/DTD/svg11.dtd">
<!-- Generated by graphviz version 9.0.0 (20230911.1827)
 -->
<!-- Title: G Pages: 1 -->
<svg width="226pt" height="241pt"
 viewBox="0.00 0.00 225.50 241.00" xmlns="http://www.w3.org/2000/svg" xmlns:xlink="http://www.w3.org/1999/xlink">
<g id="graph0" class="graph" transform="scale(1 1) rotate(0) translate(4 237)">
<title>G</title>
<polygon fill="white" stroke="none" points="-4,4 -4,-237 221.5,-237 221.5,4 -4,4"/>
<g id="clust1" class="cluster">
<title>cluster_2</title>
<polygon fill="none" stroke="black" stroke-dasharray="5,2" points="8,-83 8,-150 147.25,-150 147.25,-83 8,-83"/>
<text text-anchor="middle" x="77.62" y="-132.7" font-family="Times,serif" font-size="14.00">foo[2.12]</text>
</g>
<g id="clust2" class="cluster">
<title>cluster_1</title>
<polygon fill="none" stroke="black" stroke-dasharray="5,2" points="8,-158 8,-225 147.25,-225 147.25,-158 8,-158"/>
<text text-anchor="middle" x="77.62" y="-207.7" font-family="Times,serif" font-size="14.00">foo[2.11]</text>
</g>
<g id="clust3" class="cluster">
<title>cluster_0</title>
<polygon fill="none" stroke="black" stroke-dasharray="5,2" points="8,-8 8,-75 147.25,-75 147.25,-8 8,-8"/>
<text text-anchor="middle" x="77.62" y="-57.7" font-family="Times,serif" font-size="14.00">foo[2.10]</text>
</g>
<!-- foo[2.12].suffix -->
<g id="node1" class="node">
<title>foo[2.12].suffix</title>
<polygon fill="white" stroke="black" points="139.25,-116.62 16,-116.62 16,-91.38 139.25,-91.38 139.25,-116.62"/>
<text text-anchor="middle" x="77.62" y="-99.33" font-family="Times,serif" font-size="14.00">foo[2.12].suffix</text>
</g>
<!-- qux -->
<g id="node5" class="node">
<title>qux</title>
<polygon fill="white" stroke="black" points="217.5,-116.62 175.25,-116.62 175.25,-91.38 217.5,-91.38 217.5,-116.62"/>
<text text-anchor="middle" x="196.38" y="-99.33" font-family="Times,serif" font-size="14.00">qux</text>
</g>
<!-- foo[2.12].suffix&#45;&gt;qux -->
<g id="edge3" class="edge">
<title>foo[2.12].suffix&#45;&gt;qux</title>
<path fill="none" stroke="black" d="M139.74,-104C147.96,-104 156.12,-104 163.55,-104"/>
<polygon fill="black" stroke="black" points="163.37,-107.5 173.37,-104 163.37,-100.5 163.37,-107.5"/>
</g>
<!-- foo[2.11].suffix -->
<g id="node2" class="node">
<title>foo[2.11].suffix</title>
<polygon fill="white" stroke="black" points="139.25,-191.62 16,-191.62 16,-166.38 139.25,-166.38 139.25,-191.62"/>
<text text-anchor="middle" x="77.62" y="-174.32" font-family="Times,serif" font-size="14.00">foo[2.11].suffix</text>
</g>
<!-- foo[2.10].suffix -->
<g id="node3" class="node">
<title>foo[2.10].suffix</title>
<polygon fill="white" stroke="black" points="139.25,-41.62 16,-41.62 16,-16.38 139.25,-16.38 139.25,-41.62"/>
<text text-anchor="middle" x="77.62" y="-24.32" font-family="Times,serif" font-size="14.00">foo[2.10].suffix</text>
</g>
<!-- bar -->
<g id="node4" class="node">
<title>bar</title>
<polygon fill="white" stroke="black" points="216.38,-41.62 176.38,-41.62 176.38,-16.38 216.38,-16.38 216.38,-41.62"/>
<text text-anchor="middle" x="196.38" y="-24.32" font-family="Times,serif" font-size="14.00">bar</text>
</g>
<!-- foo[2.10].suffix&#45;&gt;bar -->
<g id="edge1" class="edge">
<title>foo[2.10].suffix&#45;&gt;bar</title>
<path fill="none" stroke="black" d="M139.74,-29C148.35,-29 156.89,-29 164.59,-29"/>
<polygon fill="black" stroke="black" points="164.39,-32.5 174.39,-29 164.39,-25.5 164.39,-32.5"/>
</g>
<!-- foo[2.10].suffix&#45;&gt;qux -->
<g id="edge2" class="edge">
<title>foo[2.10].suffix&#45;&gt;qux</title>
<path fill="none" stroke="black" d="M98.96,-42.06C117.38,-53.89 144.74,-71.47 165.61,-84.88"/>
<polygon fill="black" stroke="black" points="163.69,-87.81 174,-90.27 167.48,-81.92 163.69,-87.81"/>
</g>
</g>
</svg>
