<?xml version="1.0" encoding="UTF-8" standalone="no"?>
<!DOCTYPE svg PUBLIC "-//W3C//DTD SVG 1.1//EN"
 "http://www.w3.org/Graphics/SVG/1.1/DTD/svg11.dtd">
<!-- Generated by graphviz version 9.0.0 (20230911.1827)
 -->
<!-- Title: G Pages: 1 -->
<svg width="175pt" height="217pt"
 viewBox="0.00 0.00 175.00 217.00" xmlns="http://www.w3.org/2000/svg" xmlns:xlink="http://www.w3.org/1999/xlink">
<g id="graph0" class="graph" transform="scale(1 1) rotate(0) translate(4 213)">
<title>G</title>
<polygon fill="white" stroke="none" points="-4,4 -4,-213 171,-213 171,4 -4,4"/>
<!-- root&#45;module -->
<g id="node1" class="node">
<title>root&#45;module</title>
<polygon fill="none" stroke="black" stroke-dasharray="5,2" points="142,-209 39.75,-209 39.75,-183.75 142,-183.75 142,-209"/>
<text text-anchor="middle" x="90.88" y="-191.7" font-family="Times,serif" font-size="14.00">root&#45;module</text>
</g>
<!-- foo -->
<g id="node2" class="node">
<title>foo</title>
<polygon fill="none" stroke="black" stroke-dasharray="5,2" points="109.75,-147.75 72,-147.75 72,-122.5 109.75,-122.5 109.75,-147.75"/>
<text text-anchor="middle" x="90.88" y="-130.45" font-family="Times,serif" font-size="14.00">foo</text>
</g>
<!-- root&#45;module&#45;&gt;foo -->
<g id="edge1" class="edge">
<title>root&#45;module&#45;&gt;foo</title>
<path fill="none" stroke="black" stroke-dasharray="5,2" d="M90.88,-183.38C90.88,-176.48 90.88,-167.56 90.88,-159.34"/>
<polygon fill="black" stroke="black" points="94.38,-159.61 90.88,-149.61 87.38,-159.61 94.38,-159.61"/>
</g>
<!-- foo.qux -->
<g id="node3" class="node">
<title>foo.qux</title>
<polygon fill="none" stroke="black" stroke-dasharray="5,2" points="83.12,-86.5 14.62,-86.5 14.62,-61.25 83.12,-61.25 83.12,-86.5"/>
<text text-anchor="middle" x="48.88" y="-69.2" font-family="Times,serif" font-size="14.00">foo.qux</text>
</g>
<!-- foo&#45;&gt;foo.qux -->
<g id="edge2" class="edge">
<title>foo&#45;&gt;foo.qux</title>
<path fill="none" stroke="black" stroke-dasharray="5,2" d="M82.38,-122.13C77.08,-114.67 70.12,-104.85 63.92,-96.09"/>
<polygon fill="black" stroke="black" points="66.88,-94.22 58.24,-88.08 61.16,-98.26 66.88,-94.22"/>
</g>
<!-- foo.bar -->
<g id="node5" class="node">
<title>foo.bar</title>
<polygon fill="white" stroke="black" points="167,-86.5 100.75,-86.5 100.75,-61.25 167,-61.25 167,-86.5"/>
<text text-anchor="middle" x="133.88" y="-69.2" font-family="Times,serif" font-size="14.00">foo.bar</text>
</g>
<!-- foo&#45;&gt;foo.bar -->
<g id="edge4" class="edge">
<title>foo&#45;&gt;foo.bar</title>
<path fill="none" stroke="black" stroke-dasharray="5,2" d="M99.58,-122.13C105,-114.67 112.12,-104.85 118.48,-96.09"/>
<polygon fill="black" stroke="black" points="121.26,-98.22 124.3,-88.07 115.59,-94.11 121.26,-98.22"/>
</g>
<!-- foo.qux.baz -->
<g id="node4" class="node">
<title>foo.qux.baz</title>
<polygon fill="white" stroke="black" points="97.75,-25.25 0,-25.25 0,0 97.75,0 97.75,-25.25"/>
<text text-anchor="middle" x="48.88" y="-7.95" font-family="Times,serif" font-size="14.00">foo.qux.baz</text>
</g>
<!-- foo.qux&#45;&gt;foo.qux.baz -->
<g id="edge3" class="edge">
<title>foo.qux&#45;&gt;foo.qux.baz</title>
<path fill="none" stroke="black" stroke-dasharray="5,2" d="M48.88,-60.88C48.88,-53.98 48.88,-45.06 48.88,-36.84"/>
<polygon fill="black" stroke="black" points="52.38,-37.11 48.88,-27.11 45.38,-37.11 52.38,-37.11"/>
</g>
</g>
</svg>
