<?xml version="1.0" encoding="UTF-8" standalone="no"?>
<!DOCTYPE svg PUBLIC "-//W3C//DTD SVG 1.1//EN"
 "http://www.w3.org/Graphics/SVG/1.1/DTD/svg11.dtd">
<!-- Generated by graphviz version 9.0.0 (20230911.1827)
 -->
<!-- Title: G Pages: 1 -->
<svg width="326pt" height="33pt"
 viewBox="0.00 0.00 326.00 33.25" xmlns="http://www.w3.org/2000/svg" xmlns:xlink="http://www.w3.org/1999/xlink">
<g id="graph0" class="graph" transform="scale(1 1) rotate(0) translate(4 29.25)">
<title>G</title>
<polygon fill="white" stroke="none" points="-4,4 -4,-29.25 322,-29.25 322,4 -4,4"/>
<!-- sources -->
<g id="node1" class="node">
<title>sources</title>
<polygon fill="white" stroke="white" points="70.75,-25.25 0,-25.25 0,0 70.75,0 70.75,-25.25"/>
<text text-anchor="middle" x="35.38" y="-7.95" font-family="Times,serif" font-size="14.00">sources</text>
</g>
<!-- allSources -->
<g id="node2" class="node">
<title>allSources</title>
<polygon fill="white" stroke="black" points="197,-25.25 106.75,-25.25 106.75,0 197,0 197,-25.25"/>
<text text-anchor="middle" x="151.88" y="-7.95" font-family="Times,serif" font-size="14.00">allSources</text>
</g>
<!-- sources&#45;&gt;allSources -->
<g id="edge1" class="edge">
<title>sources&#45;&gt;allSources</title>
<path fill="none" stroke="black" d="M71.04,-12.62C78.64,-12.62 86.88,-12.62 95.08,-12.62"/>
<polygon fill="black" stroke="black" points="95.06,-16.13 105.06,-12.63 95.06,-9.13 95.06,-16.13"/>
</g>
<!-- lineCount -->
<g id="node3" class="node">
<title>lineCount</title>
<polygon fill="white" stroke="black" points="318,-25.25 233,-25.25 233,0 318,0 318,-25.25"/>
<text text-anchor="middle" x="275.5" y="-7.95" font-family="Times,serif" font-size="14.00">lineCount</text>
</g>
<!-- allSources&#45;&gt;lineCount -->
<g id="edge2" class="edge">
<title>allSources&#45;&gt;lineCount</title>
<path fill="none" stroke="black" d="M197.47,-12.62C205.22,-12.62 213.34,-12.62 221.28,-12.62"/>
<polygon fill="black" stroke="black" points="221.22,-16.13 231.22,-12.63 221.22,-9.13 221.22,-16.13"/>
</g>
</g>
</svg>
