<?xml version="1.0" encoding="UTF-8" standalone="no"?>
<!DOCTYPE svg PUBLIC "-//W3C//DTD SVG 1.1//EN"
 "http://www.w3.org/Graphics/SVG/1.1/DTD/svg11.dtd">
<!-- Generated by graphviz version 9.0.0 (20230911.1827)
 -->
<!-- Title: G Pages: 1 -->
<svg width="370pt" height="33pt"
 viewBox="0.00 0.00 370.25 33.25" xmlns="http://www.w3.org/2000/svg" xmlns:xlink="http://www.w3.org/1999/xlink">
<g id="graph0" class="graph" transform="scale(1 1) rotate(0) translate(4 29.25)">
<title>G</title>
<polygon fill="white" stroke="none" points="-4,4 -4,-29.25 366.25,-29.25 366.25,4 -4,4"/>
<!-- allSources -->
<g id="node1" class="node">
<title>allSources</title>
<polygon fill="white" stroke="white" points="90.25,-25.25 0,-25.25 0,0 90.25,0 90.25,-25.25"/>
<text text-anchor="middle" x="45.12" y="-7.95" font-family="Times,serif" font-size="14.00">allSources</text>
</g>
<!-- largeFile -->
<g id="node2" class="node">
<title>largeFile</title>
<polygon fill="white" stroke="black" points="206,-25.25 126.25,-25.25 126.25,0 206,0 206,-25.25"/>
<text text-anchor="middle" x="166.12" y="-7.95" font-family="Times,serif" font-size="14.00">largeFile</text>
</g>
<!-- allSources&#45;&gt;largeFile -->
<g id="edge1" class="edge">
<title>allSources&#45;&gt;largeFile</title>
<path fill="none" stroke="black" d="M90.44,-12.62C98.25,-12.62 106.44,-12.62 114.41,-12.62"/>
<polygon fill="black" stroke="black" points="114.36,-16.13 124.36,-12.63 114.36,-9.13 114.36,-16.13"/>
</g>
<!-- hugeFileName -->
<g id="node3" class="node">
<title>hugeFileName</title>
<polygon fill="white" stroke="black" points="362.25,-25.25 242,-25.25 242,0 362.25,0 362.25,-25.25"/>
<text text-anchor="middle" x="302.12" y="-7.95" font-family="Times,serif" font-size="14.00">hugeFileName</text>
</g>
<!-- largeFile&#45;&gt;hugeFileName -->
<g id="edge2" class="edge">
<title>largeFile&#45;&gt;hugeFileName</title>
<path fill="none" stroke="black" d="M206.24,-12.62C213.84,-12.62 222.01,-12.62 230.27,-12.62"/>
<polygon fill="black" stroke="black" points="230.01,-16.13 240.01,-12.63 230.01,-9.13 230.01,-16.13"/>
</g>
</g>
</svg>
