<?xml version="1.0" encoding="UTF-8" standalone="no"?>
<!DOCTYPE svg PUBLIC "-//W3C//DTD SVG 1.1//EN"
 "http://www.w3.org/Graphics/SVG/1.1/DTD/svg11.dtd">
<!-- Generated by graphviz version 9.0.0 (20230911.1827)
 -->
<!-- Title: G Pages: 1 -->
<svg width="208pt" height="76pt"
 viewBox="0.00 0.00 208.00 76.25" xmlns="http://www.w3.org/2000/svg" xmlns:xlink="http://www.w3.org/1999/xlink">
<g id="graph0" class="graph" transform="scale(1 1) rotate(0) translate(4 72.25)">
<title>G</title>
<polygon fill="white" stroke="none" points="-4,4 -4,-72.25 204,-72.25 204,4 -4,4"/>
<!-- makefile -->
<g id="node1" class="node">
<title>makefile</title>
<polygon fill="white" stroke="black" points="78.25,-68.25 2.25,-68.25 2.25,-43 78.25,-43 78.25,-68.25"/>
<text text-anchor="middle" x="40.25" y="-50.95" font-family="Times,serif" font-size="14.00">makefile</text>
</g>
<!-- make -->
<g id="node2" class="node">
<title>make</title>
<polygon fill="white" stroke="black" points="185.38,-68.25 131.12,-68.25 131.12,-43 185.38,-43 185.38,-68.25"/>
<text text-anchor="middle" x="158.25" y="-50.95" font-family="Times,serif" font-size="14.00">make</text>
</g>
<!-- makefile&#45;&gt;make -->
<g id="edge1" class="edge">
<title>makefile&#45;&gt;make</title>
<path fill="none" stroke="black" d="M78.59,-55.62C91.57,-55.62 106.14,-55.62 119.18,-55.62"/>
<polygon fill="black" stroke="black" points="119.12,-59.13 129.12,-55.63 119.12,-52.13 119.12,-59.13"/>
</g>
<!-- cSources -->
<g id="node3" class="node">
<title>cSources</title>
<polygon fill="white" stroke="black" points="80.5,-25.25 0,-25.25 0,0 80.5,0 80.5,-25.25"/>
<text text-anchor="middle" x="40.25" y="-7.95" font-family="Times,serif" font-size="14.00">cSources</text>
</g>
<!-- cSources&#45;&gt;make -->
<g id="edge2" class="edge">
<title>cSources&#45;&gt;make</title>
<path fill="none" stroke="black" d="M76.37,-25.64C90.15,-30.75 105.99,-36.62 119.98,-41.81"/>
<polygon fill="black" stroke="black" points="118.71,-45.07 129.31,-45.27 121.15,-38.51 118.71,-45.07"/>
</g>
<!-- cHeaders -->
<g id="node4" class="node">
<title>cHeaders</title>
<polygon fill="white" stroke="black" points="200,-25.25 116.5,-25.25 116.5,0 200,0 200,-25.25"/>
<text text-anchor="middle" x="158.25" y="-7.95" font-family="Times,serif" font-size="14.00">cHeaders</text>
</g>
<!-- cSources&#45;&gt;cHeaders -->
<g id="edge3" class="edge">
<title>cSources&#45;&gt;cHeaders</title>
<path fill="none" stroke="black" d="M80.85,-12.62C88.61,-12.62 96.86,-12.62 104.96,-12.62"/>
<polygon fill="black" stroke="black" points="104.74,-16.13 114.74,-12.63 104.74,-9.13 104.74,-16.13"/>
</g>
</g>
</svg>
