<?xml version="1.0" encoding="UTF-8" standalone="no"?>
<!DOCTYPE svg PUBLIC "-//W3C//DTD SVG 1.1//EN"
 "http://www.w3.org/Graphics/SVG/1.1/DTD/svg11.dtd">
<!-- Generated by graphviz version 9.0.0 (20230911.1827)
 -->
<!-- Title: G Pages: 1 -->
<svg width="363pt" height="370pt"
 viewBox="0.00 0.00 363.00 370.00" xmlns="http://www.w3.org/2000/svg" xmlns:xlink="http://www.w3.org/1999/xlink">
<g id="graph0" class="graph" transform="scale(1 1) rotate(0) translate(4 366)">
<title>G</title>
<polygon fill="white" stroke="none" points="-4,4 -4,-366 359,-366 359,4 -4,4"/>
<g id="clust1" class="cluster">
<title>cluster_2</title>
<polygon fill="none" stroke="black" stroke-dasharray="5,2" points="8,-8 8,-118 347,-118 347,-8 8,-8"/>
<text text-anchor="middle" x="177.5" y="-100.7" font-family="Times,serif" font-size="14.00">foo[2.12]</text>
</g>
<g id="clust2" class="cluster">
<title>cluster_1</title>
<polygon fill="none" stroke="black" stroke-dasharray="5,2" points="8,-126 8,-236 347,-236 347,-126 8,-126"/>
<text text-anchor="middle" x="177.5" y="-218.7" font-family="Times,serif" font-size="14.00">foo[2.11]</text>
</g>
<g id="clust3" class="cluster">
<title>cluster_0</title>
<polygon fill="none" stroke="black" stroke-dasharray="5,2" points="8,-244 8,-354 347,-354 347,-244 8,-244"/>
<text text-anchor="middle" x="177.5" y="-336.7" font-family="Times,serif" font-size="14.00">foo[2.10]</text>
</g>
<!-- foo[2.12].suffix -->
<g id="node1" class="node">
<title>foo[2.12].suffix</title>
<polygon fill="white" stroke="black" points="147.12,-84.62 23.88,-84.62 23.88,-59.38 147.12,-59.38 147.12,-84.62"/>
<text text-anchor="middle" x="85.5" y="-67.33" font-family="Times,serif" font-size="14.00">foo[2.12].suffix</text>
</g>
<!-- foo[2.12].bigSuffix -->
<g id="node2" class="node">
<title>foo[2.12].bigSuffix</title>
<polygon fill="white" stroke="black" points="339,-84.62 191,-84.62 191,-59.38 339,-59.38 339,-84.62"/>
<text text-anchor="middle" x="265" y="-67.33" font-family="Times,serif" font-size="14.00">foo[2.12].bigSuffix</text>
</g>
<!-- foo[2.12].suffix&#45;&gt;foo[2.12].bigSuffix -->
<g id="edge1" class="edge">
<title>foo[2.12].suffix&#45;&gt;foo[2.12].bigSuffix</title>
<path fill="none" stroke="black" d="M147.59,-72C157.75,-72 168.45,-72 179.08,-72"/>
<polygon fill="black" stroke="black" points="179.04,-75.5 189.04,-72 179.04,-68.5 179.04,-75.5"/>
</g>
<!-- foo[2.12].sources -->
<g id="node3" class="node">
<title>foo[2.12].sources</title>
<polygon fill="white" stroke="black" points="155,-41.62 16,-41.62 16,-16.38 155,-16.38 155,-41.62"/>
<text text-anchor="middle" x="85.5" y="-24.32" font-family="Times,serif" font-size="14.00">foo[2.12].sources</text>
</g>
<!-- foo[2.11].suffix -->
<g id="node4" class="node">
<title>foo[2.11].suffix</title>
<polygon fill="white" stroke="black" points="147.12,-202.62 23.88,-202.62 23.88,-177.38 147.12,-177.38 147.12,-202.62"/>
<text text-anchor="middle" x="85.5" y="-185.32" font-family="Times,serif" font-size="14.00">foo[2.11].suffix</text>
</g>
<!-- foo[2.11].bigSuffix -->
<g id="node5" class="node">
<title>foo[2.11].bigSuffix</title>
<polygon fill="white" stroke="black" points="339,-202.62 191,-202.62 191,-177.38 339,-177.38 339,-202.62"/>
<text text-anchor="middle" x="265" y="-185.32" font-family="Times,serif" font-size="14.00">foo[2.11].bigSuffix</text>
</g>
<!-- foo[2.11].suffix&#45;&gt;foo[2.11].bigSuffix -->
<g id="edge2" class="edge">
<title>foo[2.11].suffix&#45;&gt;foo[2.11].bigSuffix</title>
<path fill="none" stroke="black" d="M147.59,-190C157.75,-190 168.45,-190 179.08,-190"/>
<polygon fill="black" stroke="black" points="179.04,-193.5 189.04,-190 179.04,-186.5 179.04,-193.5"/>
</g>
<!-- foo[2.11].sources -->
<g id="node6" class="node">
<title>foo[2.11].sources</title>
<polygon fill="white" stroke="black" points="155,-159.62 16,-159.62 16,-134.38 155,-134.38 155,-159.62"/>
<text text-anchor="middle" x="85.5" y="-142.32" font-family="Times,serif" font-size="14.00">foo[2.11].sources</text>
</g>
<!-- foo[2.10].suffix -->
<g id="node7" class="node">
<title>foo[2.10].suffix</title>
<polygon fill="white" stroke="black" points="147.12,-320.62 23.88,-320.62 23.88,-295.38 147.12,-295.38 147.12,-320.62"/>
<text text-anchor="middle" x="85.5" y="-303.32" font-family="Times,serif" font-size="14.00">foo[2.10].suffix</text>
</g>
<!-- foo[2.10].bigSuffix -->
<g id="node8" class="node">
<title>foo[2.10].bigSuffix</title>
<polygon fill="white" stroke="black" points="339,-320.62 191,-320.62 191,-295.38 339,-295.38 339,-320.62"/>
<text text-anchor="middle" x="265" y="-303.32" font-family="Times,serif" font-size="14.00">foo[2.10].bigSuffix</text>
</g>
<!-- foo[2.10].suffix&#45;&gt;foo[2.10].bigSuffix -->
<g id="edge3" class="edge">
<title>foo[2.10].suffix&#45;&gt;foo[2.10].bigSuffix</title>
<path fill="none" stroke="black" d="M147.59,-308C157.75,-308 168.45,-308 179.08,-308"/>
<polygon fill="black" stroke="black" points="179.04,-311.5 189.04,-308 179.04,-304.5 179.04,-311.5"/>
</g>
<!-- foo[2.10].sources -->
<g id="node9" class="node">
<title>foo[2.10].sources</title>
<polygon fill="white" stroke="black" points="155,-277.62 16,-277.62 16,-252.38 155,-252.38 155,-277.62"/>
<text text-anchor="middle" x="85.5" y="-260.32" font-family="Times,serif" font-size="14.00">foo[2.10].sources</text>
</g>
</g>
</svg>
