<?xml version="1.0" encoding="UTF-8" standalone="no"?>
<!DOCTYPE svg PUBLIC "-//W3C//DTD SVG 1.1//EN"
 "http://www.w3.org/Graphics/SVG/1.1/DTD/svg11.dtd">
<!-- Generated by graphviz version 9.0.0 (20230911.1827)
 -->
<!-- Title: G Pages: 1 -->
<svg width="458pt" height="217pt"
 viewBox="0.00 0.00 458.00 217.00" xmlns="http://www.w3.org/2000/svg" xmlns:xlink="http://www.w3.org/1999/xlink">
<g id="graph0" class="graph" transform="scale(1 1) rotate(0) translate(4 213)">
<title>G</title>
<polygon fill="white" stroke="none" points="-4,4 -4,-213 454,-213 454,4 -4,4"/>
<!-- root&#45;module -->
<g id="node1" class="node">
<title>root&#45;module</title>
<polygon fill="none" stroke="black" stroke-dasharray="5,2" points="232.12,-209 129.88,-209 129.88,-183.75 232.12,-183.75 232.12,-209"/>
<text text-anchor="middle" x="181" y="-191.7" font-family="Times,serif" font-size="14.00">root&#45;module</text>
</g>
<!-- outer -->
<g id="node2" class="node">
<title>outer</title>
<polygon fill="none" stroke="black" stroke-dasharray="5,2" points="208.12,-147.75 153.88,-147.75 153.88,-122.5 208.12,-122.5 208.12,-147.75"/>
<text text-anchor="middle" x="181" y="-130.45" font-family="Times,serif" font-size="14.00">outer</text>
</g>
<!-- root&#45;module&#45;&gt;outer -->
<g id="edge3" class="edge">
<title>root&#45;module&#45;&gt;outer</title>
<path fill="none" stroke="black" stroke-dasharray="5,2" d="M181,-183.38C181,-176.48 181,-167.56 181,-159.34"/>
<polygon fill="black" stroke="black" points="184.5,-159.61 181,-149.61 177.5,-159.61 184.5,-159.61"/>
</g>
<!-- outer.sources -->
<g id="node3" class="node">
<title>outer.sources</title>
<polygon fill="white" stroke="black" points="112,-86.5 0,-86.5 0,-61.25 112,-61.25 112,-86.5"/>
<text text-anchor="middle" x="56" y="-69.2" font-family="Times,serif" font-size="14.00">outer.sources</text>
</g>
<!-- outer&#45;&gt;outer.sources -->
<g id="edge7" class="edge">
<title>outer&#45;&gt;outer.sources</title>
<path fill="none" stroke="black" stroke-dasharray="5,2" d="M155.7,-122.13C137.24,-113.38 111.95,-101.4 91.47,-91.69"/>
<polygon fill="black" stroke="black" points="93.16,-88.62 82.63,-87.5 90.16,-94.94 93.16,-88.62"/>
</g>
<!-- outer.target -->
<g id="node4" class="node">
<title>outer.target</title>
<polygon fill="white" stroke="black" points="231.75,-86.5 130.25,-86.5 130.25,-61.25 231.75,-61.25 231.75,-86.5"/>
<text text-anchor="middle" x="181" y="-69.2" font-family="Times,serif" font-size="14.00">outer.target</text>
</g>
<!-- outer&#45;&gt;outer.target -->
<g id="edge8" class="edge">
<title>outer&#45;&gt;outer.target</title>
<path fill="none" stroke="black" stroke-dasharray="5,2" d="M181,-122.13C181,-115.23 181,-106.31 181,-98.09"/>
<polygon fill="black" stroke="black" points="184.5,-98.36 181,-88.36 177.5,-98.36 184.5,-98.36"/>
</g>
<!-- outer.inner -->
<g id="node7" class="node">
<title>outer.inner</title>
<polygon fill="none" stroke="black" stroke-dasharray="5,2" points="344.38,-86.5 249.62,-86.5 249.62,-61.25 344.38,-61.25 344.38,-86.5"/>
<text text-anchor="middle" x="297" y="-69.2" font-family="Times,serif" font-size="14.00">outer.inner</text>
</g>
<!-- outer&#45;&gt;outer.inner -->
<g id="edge4" class="edge">
<title>outer&#45;&gt;outer.inner</title>
<path fill="none" stroke="black" stroke-dasharray="5,2" d="M204.47,-122.13C221.46,-113.46 244.64,-101.62 263.56,-91.96"/>
<polygon fill="black" stroke="black" points="264.9,-95.2 272.21,-87.54 261.72,-88.97 264.9,-95.2"/>
</g>
<!-- outer.sources&#45;&gt;outer.target -->
<g id="edge1" class="edge">
<title>outer.sources&#45;&gt;outer.target</title>
<path fill="none" stroke="black" d="M112.15,-73.88C114.28,-73.88 116.4,-73.88 118.53,-73.88"/>
<polygon fill="black" stroke="black" points="118.39,-77.38 128.39,-73.88 118.39,-70.38 118.39,-77.38"/>
</g>
<!-- outer.inner.sources -->
<g id="node5" class="node">
<title>outer.inner.sources</title>
<polygon fill="white" stroke="black" points="290.25,-25.25 137.75,-25.25 137.75,0 290.25,0 290.25,-25.25"/>
<text text-anchor="middle" x="214" y="-7.95" font-family="Times,serif" font-size="14.00">outer.inner.sources</text>
</g>
<!-- outer.inner.target -->
<g id="node6" class="node">
<title>outer.inner.target</title>
<polygon fill="white" stroke="black" points="450,-25.25 308,-25.25 308,0 450,0 450,-25.25"/>
<text text-anchor="middle" x="379" y="-7.95" font-family="Times,serif" font-size="14.00">outer.inner.target</text>
</g>
<!-- outer.inner.sources&#45;&gt;outer.inner.target -->
<g id="edge2" class="edge">
<title>outer.inner.sources&#45;&gt;outer.inner.target</title>
<path fill="none" stroke="black" d="M290.7,-12.62C292.55,-12.62 294.4,-12.62 296.24,-12.62"/>
<polygon fill="black" stroke="black" points="296.09,-16.13 306.09,-12.63 296.09,-9.13 296.09,-16.13"/>
</g>
<!-- outer.inner&#45;&gt;outer.inner.sources -->
<g id="edge5" class="edge">
<title>outer.inner&#45;&gt;outer.inner.sources</title>
<path fill="none" stroke="black" stroke-dasharray="5,2" d="M280.2,-60.88C268.62,-52.61 252.99,-41.46 239.83,-32.06"/>
<polygon fill="black" stroke="black" points="242.18,-29.44 232,-26.48 238.11,-35.14 242.18,-29.44"/>
</g>
<!-- outer.inner&#45;&gt;outer.inner.target -->
<g id="edge6" class="edge">
<title>outer.inner&#45;&gt;outer.inner.target</title>
<path fill="none" stroke="black" stroke-dasharray="5,2" d="M313.59,-60.88C324.93,-52.69 340.18,-41.67 353.11,-32.34"/>
<polygon fill="black" stroke="black" points="355.15,-35.18 361.2,-26.48 351.05,-29.5 355.15,-35.18"/>
</g>
</g>
</svg>
