<?xml version="1.0" encoding="UTF-8" standalone="no"?>
<!DOCTYPE svg PUBLIC "-//W3C//DTD SVG 1.1//EN"
 "http://www.w3.org/Graphics/SVG/1.1/DTD/svg11.dtd">
<!-- Generated by graphviz version 9.0.0 (20230911.1827)
 -->
<!-- Title: G Pages: 1 -->
<svg width="463pt" height="134pt"
 viewBox="0.00 0.00 462.50 134.00" xmlns="http://www.w3.org/2000/svg" xmlns:xlink="http://www.w3.org/1999/xlink">
<g id="graph0" class="graph" transform="scale(1 1) rotate(0) translate(4 130)">
<title>G</title>
<g id="clust1" class="cluster">
<title>cluster_0</title>
<polygon fill="none" stroke="black" stroke-dasharray="5,2" points="8,-8 8,-118 446.5,-118 446.5,-8 8,-8"/>
<text text-anchor="middle" x="227.25" y="-100.7" font-family="Times,serif" font-size="14.00">DiyJavaModule</text>
</g>
<!-- n0 -->
<g id="node1" class="node">
<title>n0</title>
<polygon fill="white" stroke="none" points="51.73,-60.72 51.02,-60.72 51.02,-59.28 51.73,-59.28 51.73,-60.72"/>
</g>
<!-- compile -->
<g id="node2" class="node">
<title>compile</title>
<polygon fill="white" stroke="black" points="194.25,-41.62 122.75,-41.62 122.75,-16.38 194.25,-16.38 194.25,-41.62"/>
<text text-anchor="middle" x="158.5" y="-24.32" font-family="Times,serif" font-size="14.00">compile</text>
</g>
<!-- n0&#45;&gt;compile -->
<g id="edge1" class="edge">
<title>n0&#45;&gt;compile</title>
<path fill="none" stroke="black" stroke-dasharray="5,2" d="M52.43,-59.99C53.57,-59.71 72.04,-55.21 86.75,-51 94.74,-48.71 103.21,-46.18 111.4,-43.67"/>
<polygon fill="black" stroke="black" points="112.36,-47.03 120.88,-40.73 110.29,-40.35 112.36,-47.03"/>
</g>
<!-- classPath -->
<g id="node3" class="node">
<title>classPath</title>
<polygon fill="white" stroke="black" points="316.75,-41.62 233.25,-41.62 233.25,-16.38 316.75,-16.38 316.75,-41.62"/>
<text text-anchor="middle" x="275" y="-24.32" font-family="Times,serif" font-size="14.00">classPath</text>
</g>
<!-- n0&#45;&gt;classPath -->
<g id="edge2" class="edge">
<title>n0&#45;&gt;classPath</title>
<path fill="none" stroke="black" stroke-dasharray="5,2" d="M52.43,-60C54.86,-60.04 132.91,-61.29 194.25,-51 203.31,-49.48 212.83,-47.34 222,-45"/>
<polygon fill="black" stroke="black" points="222.76,-48.42 231.51,-42.45 220.94,-41.66 222.76,-48.42"/>
</g>
<!-- compile&#45;&gt;classPath -->
<g id="edge5" class="edge">
<title>compile&#45;&gt;classPath</title>
<path fill="none" stroke="black" d="M194.48,-29C202.98,-29 212.27,-29 221.4,-29"/>
<polygon fill="black" stroke="black" points="221.29,-32.5 231.29,-29 221.29,-25.5 221.29,-32.5"/>
</g>
<!-- assembly -->
<g id="node5" class="node">
<title>assembly</title>
<polygon fill="white" stroke="black" points="438.5,-62.62 355.75,-62.62 355.75,-37.38 438.5,-37.38 438.5,-62.62"/>
<text text-anchor="middle" x="397.12" y="-45.33" font-family="Times,serif" font-size="14.00">assembly</text>
</g>
<!-- classPath&#45;&gt;assembly -->
<g id="edge6" class="edge">
<title>classPath&#45;&gt;assembly</title>
<path fill="none" stroke="black" d="M317,-36.17C325.7,-37.69 334.99,-39.31 344.04,-40.89"/>
<polygon fill="black" stroke="black" points="343.36,-44.33 353.81,-42.6 344.57,-37.43 343.36,-44.33"/>
</g>
<!-- mainClass -->
<g id="node4" class="node">
<title>mainClass</title>
<polygon fill="white" stroke="black" points="319.75,-84.62 230.25,-84.62 230.25,-59.38 319.75,-59.38 319.75,-84.62"/>
<text text-anchor="middle" x="275" y="-67.33" font-family="Times,serif" font-size="14.00">mainClass</text>
</g>
<!-- mainClass&#45;&gt;assembly -->
<g id="edge3" class="edge">
<title>mainClass&#45;&gt;assembly</title>
<path fill="none" stroke="black" d="M320.05,-63.93C327.88,-62.5 336.1,-60.99 344.12,-59.52"/>
<polygon fill="black" stroke="black" points="344.58,-63 353.78,-57.75 343.32,-56.11 344.58,-63"/>
</g>
<!-- sources -->
<g id="node6" class="node">
<title>sources</title>
<polygon fill="white" stroke="black" points="86.75,-41.62 16,-41.62 16,-16.38 86.75,-16.38 86.75,-41.62"/>
<text text-anchor="middle" x="51.38" y="-24.32" font-family="Times,serif" font-size="14.00">sources</text>
</g>
<!-- sources&#45;&gt;compile -->
<g id="edge4" class="edge">
<title>sources&#45;&gt;compile</title>
<path fill="none" stroke="black" d="M87.09,-29C94.81,-29 103.12,-29 111.22,-29"/>
<polygon fill="black" stroke="black" points="110.95,-32.5 120.95,-29 110.95,-25.5 110.95,-32.5"/>
</g>
</g>
</svg>
