<?xml version="1.0" encoding="UTF-8" standalone="no"?>
<!DOCTYPE svg PUBLIC "-//W3C//DTD SVG 1.1//EN"
 "http://www.w3.org/Graphics/SVG/1.1/DTD/svg11.dtd">
<!-- Generated by graphviz version 9.0.0 (20230911.1827)
 -->
<!-- Title: G Pages: 1 -->
<svg width="461pt" height="156pt"
 viewBox="0.00 0.00 460.62 155.75" xmlns="http://www.w3.org/2000/svg" xmlns:xlink="http://www.w3.org/1999/xlink">
<g id="graph0" class="graph" transform="scale(1 1) rotate(0) translate(4 151.75)">
<title>G</title>
<!-- root&#45;module -->
<g id="node1" class="node">
<title>root&#45;module</title>
<polygon fill="none" stroke="black" stroke-dasharray="5,2" points="229.75,-147.75 127.5,-147.75 127.5,-122.5 229.75,-122.5 229.75,-147.75"/>
<text text-anchor="middle" x="178.62" y="-130.45" font-family="Times,serif" font-size="14.00">root&#45;module</text>
</g>
<!-- foo1 -->
<g id="node2" class="node">
<title>foo1</title>
<polygon fill="none" stroke="black" stroke-dasharray="5,2" points="155,-86.5 108.25,-86.5 108.25,-61.25 155,-61.25 155,-86.5"/>
<text text-anchor="middle" x="131.62" y="-69.2" font-family="Times,serif" font-size="14.00">foo1</text>
</g>
<!-- root&#45;module&#45;&gt;foo1 -->
<g id="edge1" class="edge">
<title>root&#45;module&#45;&gt;foo1</title>
<path fill="none" stroke="black" stroke-dasharray="5,2" d="M169.11,-122.13C163.13,-114.59 155.23,-104.63 148.23,-95.81"/>
<polygon fill="black" stroke="black" points="151.02,-93.69 142.06,-88.03 145.54,-98.04 151.02,-93.69"/>
</g>
<!-- foo2 -->
<g id="node3" class="node">
<title>foo2</title>
<polygon fill="none" stroke="black" stroke-dasharray="5,2" points="296,-86.5 249.25,-86.5 249.25,-61.25 296,-61.25 296,-86.5"/>
<text text-anchor="middle" x="272.62" y="-69.2" font-family="Times,serif" font-size="14.00">foo2</text>
</g>
<!-- root&#45;module&#45;&gt;foo2 -->
<g id="edge4" class="edge">
<title>root&#45;module&#45;&gt;foo2</title>
<path fill="none" stroke="black" stroke-dasharray="5,2" d="M197.65,-122.13C211.03,-113.7 229.16,-102.27 244.24,-92.77"/>
<polygon fill="black" stroke="black" points="245.76,-95.95 252.35,-87.65 242.02,-90.03 245.76,-95.95"/>
</g>
<!-- foo1.bar -->
<g id="node4" class="node">
<title>foo1.bar</title>
<polygon fill="white" stroke="black" points="75.25,-25.25 0,-25.25 0,0 75.25,0 75.25,-25.25"/>
<text text-anchor="middle" x="37.62" y="-7.95" font-family="Times,serif" font-size="14.00">foo1.bar</text>
</g>
<!-- foo1&#45;&gt;foo1.bar -->
<g id="edge2" class="edge">
<title>foo1&#45;&gt;foo1.bar</title>
<path fill="none" stroke="black" stroke-dasharray="5,2" d="M112.6,-60.88C99.22,-52.45 81.09,-41.02 66.01,-31.52"/>
<polygon fill="black" stroke="black" points="68.23,-28.78 57.9,-26.4 64.49,-34.7 68.23,-28.78"/>
</g>
<!-- foo1.qux -->
<g id="node5" class="node">
<title>foo1.qux</title>
<polygon fill="white" stroke="black" points="170.38,-25.25 92.88,-25.25 92.88,0 170.38,0 170.38,-25.25"/>
<text text-anchor="middle" x="131.62" y="-7.95" font-family="Times,serif" font-size="14.00">foo1.qux</text>
</g>
<!-- foo1&#45;&gt;foo1.qux -->
<g id="edge3" class="edge">
<title>foo1&#45;&gt;foo1.qux</title>
<path fill="none" stroke="black" stroke-dasharray="5,2" d="M131.62,-60.88C131.62,-53.98 131.62,-45.06 131.62,-36.84"/>
<polygon fill="black" stroke="black" points="135.13,-37.11 131.63,-27.11 128.13,-37.11 135.13,-37.11"/>
</g>
<!-- foo2.bar -->
<g id="node6" class="node">
<title>foo2.bar</title>
<polygon fill="white" stroke="black" points="263.25,-25.25 188,-25.25 188,0 263.25,0 263.25,-25.25"/>
<text text-anchor="middle" x="225.62" y="-7.95" font-family="Times,serif" font-size="14.00">foo2.bar</text>
</g>
<!-- foo2&#45;&gt;foo2.bar -->
<g id="edge5" class="edge">
<title>foo2&#45;&gt;foo2.bar</title>
<path fill="none" stroke="black" stroke-dasharray="5,2" d="M263.11,-60.88C257.13,-53.34 249.23,-43.38 242.23,-34.56"/>
<polygon fill="black" stroke="black" points="245.02,-32.44 236.06,-26.78 239.54,-36.79 245.02,-32.44"/>
</g>
<!-- foo2.qux -->
<g id="node7" class="node">
<title>foo2.qux</title>
<polygon fill="white" stroke="black" points="358.38,-25.25 280.88,-25.25 280.88,0 358.38,0 358.38,-25.25"/>
<text text-anchor="middle" x="319.62" y="-7.95" font-family="Times,serif" font-size="14.00">foo2.qux</text>
</g>
<!-- foo2&#45;&gt;foo2.qux -->
<g id="edge6" class="edge">
<title>foo2&#45;&gt;foo2.qux</title>
<path fill="none" stroke="black" stroke-dasharray="5,2" d="M282.14,-60.88C288.12,-53.34 296.02,-43.38 303.02,-34.56"/>
<polygon fill="black" stroke="black" points="305.71,-36.79 309.19,-26.78 300.23,-32.44 305.71,-36.79"/>
</g>
<!-- foo2.baz -->
<g id="node8" class="node">
<title>foo2.baz</title>
<polygon fill="white" stroke="black" points="452.62,-25.25 376.62,-25.25 376.62,0 452.62,0 452.62,-25.25"/>
<text text-anchor="middle" x="414.62" y="-7.95" font-family="Times,serif" font-size="14.00">foo2.baz</text>
</g>
<!-- foo2&#45;&gt;foo2.baz -->
<g id="edge7" class="edge">
<title>foo2&#45;&gt;foo2.baz</title>
<path fill="none" stroke="black" stroke-dasharray="5,2" d="M296.39,-62.96C317.88,-53.99 349.92,-40.62 375.23,-30.06"/>
<polygon fill="black" stroke="black" points="376.34,-33.39 384.22,-26.31 373.65,-26.93 376.34,-33.39"/>
</g>
</g>
</svg>
