<?xml version="1.0" encoding="UTF-8" standalone="no"?>
<!DOCTYPE svg PUBLIC "-//W3C//DTD SVG 1.1//EN"
 "http://www.w3.org/Graphics/SVG/1.1/DTD/svg11.dtd">
<!-- Generated by graphviz version 9.0.0 (20230911.1827)
 -->
<!-- Title: G Pages: 1 -->
<svg width="171pt" height="76pt"
 viewBox="0.00 0.00 170.50 76.25" xmlns="http://www.w3.org/2000/svg" xmlns:xlink="http://www.w3.org/1999/xlink">
<g id="graph0" class="graph" transform="scale(1 1) rotate(0) translate(4 72.25)">
<title>G</title>
<polygon fill="white" stroke="none" points="-4,4 -4,-72.25 166.5,-72.25 166.5,4 -4,4"/>
<!-- classFiles -->
<g id="node1" class="node">
<title>classFiles</title>
<polygon fill="white" stroke="white" points="85.75,-68.25 0,-68.25 0,-43 85.75,-43 85.75,-68.25"/>
<text text-anchor="middle" x="42.88" y="-50.95" font-family="Times,serif" font-size="14.00">classFiles</text>
</g>
<!-- run -->
<g id="node2" class="node">
<title>run</title>
<polygon fill="white" stroke="black" points="162.5,-46.25 121.75,-46.25 121.75,-21 162.5,-21 162.5,-46.25"/>
<text text-anchor="middle" x="142.12" y="-28.95" font-family="Times,serif" font-size="14.00">run</text>
</g>
<!-- classFiles&#45;&gt;run -->
<g id="edge1" class="edge">
<title>classFiles&#45;&gt;run</title>
<path fill="none" stroke="black" d="M86.25,-46.04C94.24,-44.23 102.47,-42.37 110.03,-40.66"/>
<polygon fill="black" stroke="black" points="110.81,-44.07 119.79,-38.45 109.26,-37.24 110.81,-44.07"/>
</g>
<!-- resources -->
<g id="node3" class="node">
<title>resources</title>
<polygon fill="white" stroke="white" points="85.75,-25.25 0,-25.25 0,0 85.75,0 85.75,-25.25"/>
<text text-anchor="middle" x="42.88" y="-7.95" font-family="Times,serif" font-size="14.00">resources</text>
</g>
<!-- resources&#45;&gt;run -->
<g id="edge2" class="edge">
<title>resources&#45;&gt;run</title>
<path fill="none" stroke="black" d="M86.25,-21.77C94.24,-23.5 102.47,-25.28 110.03,-26.91"/>
<polygon fill="black" stroke="black" points="109.27,-30.33 119.78,-29.02 110.75,-23.48 109.27,-30.33"/>
</g>
</g>
</svg>
