<?xml version="1.0" encoding="UTF-8" standalone="no"?>
<!DOCTYPE svg PUBLIC "-//W3C//DTD SVG 1.1//EN"
 "http://www.w3.org/Graphics/SVG/1.1/DTD/svg11.dtd">
<!-- Generated by graphviz version 9.0.0 (20230911.1827)
 -->
<!-- Title: G Pages: 1 -->
<svg width="541pt" height="76pt"
 viewBox="0.00 0.00 541.25 76.25" xmlns="http://www.w3.org/2000/svg" xmlns:xlink="http://www.w3.org/1999/xlink">
<g id="graph0" class="graph" transform="scale(1 1) rotate(0) translate(4 72.25)">
<title>G</title>
<polygon fill="white" stroke="none" points="-4,4 -4,-72.25 537.25,-72.25 537.25,4 -4,4"/>
<!-- bar.sourceRoots.super -->
<g id="node1" class="node">
<title>bar.sourceRoots.super</title>
<polygon fill="white" stroke="black" points="175.75,-68.25 0,-68.25 0,-43 175.75,-43 175.75,-68.25"/>
<text text-anchor="middle" x="87.88" y="-50.95" font-family="Times,serif" font-size="14.00">bar.sourceRoots.super</text>
</g>
<!-- bar.sourceRoots -->
<g id="node2" class="node">
<title>bar.sourceRoots</title>
<polygon fill="white" stroke="black" points="342.5,-46.25 211.75,-46.25 211.75,-21 342.5,-21 342.5,-46.25"/>
<text text-anchor="middle" x="277.12" y="-28.95" font-family="Times,serif" font-size="14.00">bar.sourceRoots</text>
</g>
<!-- bar.sourceRoots.super&#45;&gt;bar.sourceRoots -->
<g id="edge1" class="edge">
<title>bar.sourceRoots.super&#45;&gt;bar.sourceRoots</title>
<path fill="none" stroke="black" d="M176.2,-45.37C184.14,-44.43 192.14,-43.49 199.98,-42.57"/>
<polygon fill="black" stroke="black" points="200.28,-46.06 209.81,-41.42 199.47,-39.11 200.28,-46.06"/>
</g>
<!-- bar.sourceContents -->
<g id="node3" class="node">
<title>bar.sourceContents</title>
<polygon fill="white" stroke="black" points="533.25,-46.25 378.5,-46.25 378.5,-21 533.25,-21 533.25,-46.25"/>
<text text-anchor="middle" x="455.88" y="-28.95" font-family="Times,serif" font-size="14.00">bar.sourceContents</text>
</g>
<!-- bar.sourceRoots&#45;&gt;bar.sourceContents -->
<g id="edge2" class="edge">
<title>bar.sourceRoots&#45;&gt;bar.sourceContents</title>
<path fill="none" stroke="black" d="M342.94,-33.62C350.7,-33.62 358.73,-33.62 366.76,-33.62"/>
<polygon fill="black" stroke="black" points="366.57,-37.13 376.57,-33.63 366.57,-30.13 366.57,-37.13"/>
</g>
<!-- bar.additionalSources -->
<g id="node4" class="node">
<title>bar.additionalSources</title>
<polygon fill="white" stroke="black" points="173.5,-25.25 2.25,-25.25 2.25,0 173.5,0 173.5,-25.25"/>
<text text-anchor="middle" x="87.88" y="-7.95" font-family="Times,serif" font-size="14.00">bar.additionalSources</text>
</g>
<!-- bar.additionalSources&#45;&gt;bar.sourceRoots -->
<g id="edge3" class="edge">
<title>bar.additionalSources&#45;&gt;bar.sourceRoots</title>
<path fill="none" stroke="black" d="M173.73,-22.14C182.55,-23.13 191.47,-24.13 200.17,-25.11"/>
<polygon fill="black" stroke="black" points="199.64,-28.57 209.97,-26.21 200.42,-21.61 199.64,-28.57"/>
</g>
</g>
</svg>
