<?xml version="1.0" encoding="UTF-8" standalone="no"?>
<!DOCTYPE svg PUBLIC "-//W3C//DTD SVG 1.1//EN"
 "http://www.w3.org/Graphics/SVG/1.1/DTD/svg11.dtd">
<!-- Generated by graphviz version 9.0.0 (20230911.1827)
 -->
<!-- Title: G Pages: 1 -->
<svg width="555pt" height="76pt"
 viewBox="0.00 0.00 555.25 76.25" xmlns="http://www.w3.org/2000/svg" xmlns:xlink="http://www.w3.org/1999/xlink">
<g id="graph0" class="graph" transform="scale(1 1) rotate(0) translate(4 72.25)">
<title>G</title>
<polygon fill="white" stroke="none" points="-4,4 -4,-72.25 551.25,-72.25 551.25,4 -4,4"/>
<!-- allSourceFiles -->
<g id="node1" class="node">
<title>allSourceFiles</title>
<polygon fill="white" stroke="white" points="117.25,-68.25 0,-68.25 0,-43 117.25,-43 117.25,-68.25"/>
<text text-anchor="middle" x="58.62" y="-50.95" font-family="Times,serif" font-size="14.00">allSourceFiles</text>
</g>
<!-- lineCount -->
<g id="node2" class="node">
<title>lineCount</title>
<polygon fill="white" stroke="black" points="238.25,-68.25 153.25,-68.25 153.25,-43 238.25,-43 238.25,-68.25"/>
<text text-anchor="middle" x="195.75" y="-50.95" font-family="Times,serif" font-size="14.00">lineCount</text>
</g>
<!-- allSourceFiles&#45;&gt;lineCount -->
<g id="edge1" class="edge">
<title>allSourceFiles&#45;&gt;lineCount</title>
<path fill="none" stroke="black" d="M117.71,-55.62C125.69,-55.62 133.85,-55.62 141.73,-55.62"/>
<polygon fill="black" stroke="black" points="141.51,-59.13 151.51,-55.63 141.51,-52.13 141.51,-59.13"/>
</g>
<!-- resources -->
<g id="node3" class="node">
<title>resources</title>
<polygon fill="white" stroke="black" points="382.5,-68.25 296.75,-68.25 296.75,-43 382.5,-43 382.5,-68.25"/>
<text text-anchor="middle" x="339.62" y="-50.95" font-family="Times,serif" font-size="14.00">resources</text>
</g>
<!-- lineCount&#45;&gt;resources -->
<g id="edge2" class="edge">
<title>lineCount&#45;&gt;resources</title>
<path fill="none" stroke="black" d="M238.55,-55.62C253.14,-55.62 269.72,-55.62 285.13,-55.62"/>
<polygon fill="black" stroke="black" points="285.12,-59.13 295.12,-55.63 285.12,-52.13 285.12,-59.13"/>
</g>
<!-- ... -->
<g id="node4" class="node">
<title>...</title>
<polygon fill="white" stroke="white" points="470.5,-46.25 441,-46.25 441,-21 470.5,-21 470.5,-46.25"/>
<text text-anchor="middle" x="455.75" y="-28.95" font-family="Times,serif" font-size="14.00">...</text>
</g>
<!-- resources&#45;&gt;... -->
<g id="edge3" class="edge">
<title>resources&#45;&gt;...</title>
<path fill="none" stroke="black" d="M382.8,-47.5C398.51,-44.47 415.85,-41.12 429.56,-38.48"/>
<polygon fill="black" stroke="black" points="429.91,-41.98 439.07,-36.65 428.59,-35.1 429.91,-41.98"/>
</g>
<!-- run -->
<g id="node5" class="node">
<title>run</title>
<polygon fill="white" stroke="white" points="547.25,-46.25 506.5,-46.25 506.5,-21 547.25,-21 547.25,-46.25"/>
<text text-anchor="middle" x="526.88" y="-28.95" font-family="Times,serif" font-size="14.00">run</text>
</g>
<!-- ...&#45;&gt;run -->
<g id="edge4" class="edge">
<title>...&#45;&gt;run</title>
<path fill="none" stroke="black" d="M470.74,-33.62C477.66,-33.62 486.3,-33.62 494.68,-33.62"/>
<polygon fill="black" stroke="black" points="494.63,-37.13 504.63,-33.63 494.63,-30.13 494.63,-37.13"/>
</g>
<!-- resources.super -->
<g id="node6" class="node">
<title>resources.super</title>
<polygon fill="none" stroke="black" stroke-dasharray="5,2" points="405,-25.25 274.25,-25.25 274.25,0 405,0 405,-25.25"/>
<text text-anchor="middle" x="339.62" y="-7.95" font-family="Times,serif" font-size="14.00">resources.super</text>
</g>
<!-- resources.super&#45;&gt;... -->
</g>
</svg>
