<?xml version="1.0" encoding="UTF-8" standalone="no"?>
<!DOCTYPE svg PUBLIC "-//W3C//DTD SVG 1.1//EN"
 "http://www.w3.org/Graphics/SVG/1.1/DTD/svg11.dtd">
<!-- Generated by graphviz version 9.0.0 (20230911.1827)
 -->
<!-- Title: G Pages: 1 -->
<svg width="323pt" height="119pt"
 viewBox="0.00 0.00 323.00 119.25" xmlns="http://www.w3.org/2000/svg" xmlns:xlink="http://www.w3.org/1999/xlink">
<g id="graph0" class="graph" transform="scale(1 1) rotate(0) translate(4 115.25)">
<title>G</title>
<polygon fill="white" stroke="none" points="-4,4 -4,-115.25 319,-115.25 319,4 -4,4"/>
<!-- sources -->
<g id="node1" class="node">
<title>sources</title>
<polygon fill="white" stroke="black" points="70.75,-111.25 0,-111.25 0,-86 70.75,-86 70.75,-111.25"/>
<text text-anchor="middle" x="35.38" y="-93.95" font-family="Times,serif" font-size="14.00">sources</text>
</g>
<!-- compile -->
<g id="node2" class="node">
<title>compile</title>
<polygon fill="white" stroke="black" points="187.25,-111.25 115.75,-111.25 115.75,-86 187.25,-86 187.25,-111.25"/>
<text text-anchor="middle" x="151.5" y="-93.95" font-family="Times,serif" font-size="14.00">compile</text>
</g>
<!-- sources&#45;&gt;compile -->
<g id="edge1" class="edge">
<title>sources&#45;&gt;compile</title>
<path fill="none" stroke="black" d="M71.24,-98.62C81.65,-98.62 93.23,-98.62 104.25,-98.62"/>
<polygon fill="black" stroke="black" points="103.95,-102.13 113.95,-98.63 103.95,-95.13 103.95,-102.13"/>
</g>
<!-- assembly -->
<g id="node3" class="node">
<title>assembly</title>
<polygon fill="white" stroke="black" points="315,-68.25 232.25,-68.25 232.25,-43 315,-43 315,-68.25"/>
<text text-anchor="middle" x="273.62" y="-50.95" font-family="Times,serif" font-size="14.00">assembly</text>
</g>
<!-- compile&#45;&gt;assembly -->
<g id="edge2" class="edge">
<title>compile&#45;&gt;assembly</title>
<path fill="none" stroke="black" d="M187.57,-86.07C199.35,-81.85 212.7,-77.08 225.27,-72.58"/>
<polygon fill="black" stroke="black" points="226.39,-75.89 234.63,-69.23 224.03,-69.3 226.39,-75.89"/>
</g>
<!-- resources -->
<g id="node4" class="node">
<title>resources</title>
<polygon fill="white" stroke="black" points="194.38,-68.25 108.62,-68.25 108.62,-43 194.38,-43 194.38,-68.25"/>
<text text-anchor="middle" x="151.5" y="-50.95" font-family="Times,serif" font-size="14.00">resources</text>
</g>
<!-- resources&#45;&gt;assembly -->
<g id="edge3" class="edge">
<title>resources&#45;&gt;assembly</title>
<path fill="none" stroke="black" d="M194.85,-55.62C203.12,-55.62 211.88,-55.62 220.42,-55.62"/>
<polygon fill="black" stroke="black" points="220.35,-59.13 230.35,-55.63 220.35,-52.13 220.35,-59.13"/>
</g>
<!-- mainClass -->
<g id="node5" class="node">
<title>mainClass</title>
<polygon fill="white" stroke="black" points="196.25,-25.25 106.75,-25.25 106.75,0 196.25,0 196.25,-25.25"/>
<text text-anchor="middle" x="151.5" y="-7.95" font-family="Times,serif" font-size="14.00">mainClass</text>
</g>
<!-- mainClass&#45;&gt;assembly -->
<g id="edge4" class="edge">
<title>mainClass&#45;&gt;assembly</title>
<path fill="none" stroke="black" d="M188.87,-25.64C200.29,-29.73 213.07,-34.31 225.14,-38.63"/>
<polygon fill="black" stroke="black" points="223.95,-41.92 234.54,-41.99 226.31,-35.33 223.95,-41.92"/>
</g>
</g>
</svg>
