<?xml version="1.0" encoding="UTF-8" standalone="no"?>
<!DOCTYPE svg PUBLIC "-//W3C//DTD SVG 1.1//EN"
 "http://www.w3.org/Graphics/SVG/1.1/DTD/svg11.dtd">
<!-- Generated by graphviz version 9.0.0 (20230911.1827)
 -->
<!-- Title: G Pages: 1 -->
<svg width="292pt" height="76pt"
 viewBox="0.00 0.00 291.50 76.25" xmlns="http://www.w3.org/2000/svg" xmlns:xlink="http://www.w3.org/1999/xlink">
<g id="graph0" class="graph" transform="scale(1 1) rotate(0) translate(4 72.25)">
<title>G</title>
<polygon fill="white" stroke="none" points="-4,4 -4,-72.25 287.5,-72.25 287.5,4 -4,4"/>
<!-- allSources -->
<g id="node1" class="node">
<title>allSources</title>
<polygon fill="white" stroke="white" points="90.25,-68.25 0,-68.25 0,-43 90.25,-43 90.25,-68.25"/>
<text text-anchor="middle" x="45.12" y="-50.95" font-family="Times,serif" font-size="14.00">allSources</text>
</g>
<!-- classFiles -->
<g id="node2" class="node">
<title>classFiles</title>
<polygon fill="white" stroke="black" points="212,-68.25 126.25,-68.25 126.25,-43 212,-43 212,-68.25"/>
<text text-anchor="middle" x="169.12" y="-50.95" font-family="Times,serif" font-size="14.00">classFiles</text>
</g>
<!-- allSources&#45;&gt;classFiles -->
<g id="edge1" class="edge">
<title>allSources&#45;&gt;classFiles</title>
<path fill="none" stroke="black" d="M90.51,-55.62C98.39,-55.62 106.66,-55.62 114.75,-55.62"/>
<polygon fill="black" stroke="black" points="114.49,-59.13 124.49,-55.63 114.49,-52.13 114.49,-59.13"/>
</g>
<!-- jar -->
<g id="node3" class="node">
<title>jar</title>
<polygon fill="white" stroke="black" points="283.5,-46.25 248,-46.25 248,-21 283.5,-21 283.5,-46.25"/>
<text text-anchor="middle" x="265.75" y="-28.95" font-family="Times,serif" font-size="14.00">jar</text>
</g>
<!-- classFiles&#45;&gt;jar -->
<g id="edge2" class="edge">
<title>classFiles&#45;&gt;jar</title>
<path fill="none" stroke="black" d="M212.46,-45.78C220.59,-43.89 228.93,-41.95 236.49,-40.2"/>
<polygon fill="black" stroke="black" points="237.16,-43.63 246.11,-37.96 235.58,-36.81 237.16,-43.63"/>
</g>
<!-- resources -->
<g id="node4" class="node">
<title>resources</title>
<polygon fill="white" stroke="white" points="212,-25.25 126.25,-25.25 126.25,0 212,0 212,-25.25"/>
<text text-anchor="middle" x="169.12" y="-7.95" font-family="Times,serif" font-size="14.00">resources</text>
</g>
<!-- resources&#45;&gt;jar -->
<g id="edge3" class="edge">
<title>resources&#45;&gt;jar</title>
<path fill="none" stroke="black" d="M212.46,-22.02C220.59,-23.83 228.93,-25.68 236.49,-27.35"/>
<polygon fill="black" stroke="black" points="235.58,-30.74 246.11,-29.49 237.1,-23.9 235.58,-30.74"/>
</g>
</g>
</svg>
